G04 #@! TF.GenerationSoftware,KiCad,Pcbnew,(5.1.2-1)-1*
G04 #@! TF.CreationDate,2019-05-25T08:59:50+02:00*
G04 #@! TF.ProjectId,IEC64,49454336-342e-46b6-9963-61645f706362,1.2*
G04 #@! TF.SameCoordinates,Original*
G04 #@! TF.FileFunction,Copper,L2,Bot*
G04 #@! TF.FilePolarity,Positive*
%FSLAX46Y46*%
G04 Gerber Fmt 4.6, Leading zero omitted, Abs format (unit mm)*
G04 Created by KiCad (PCBNEW (5.1.2-1)-1) date 2019-05-25 08:59:50*
%MOMM*%
%LPD*%
G04 APERTURE LIST*
%ADD10O,6.350000X1.524000*%
%ADD11C,1.600000*%
%ADD12R,8.255000X1.905000*%
%ADD13O,1.700000X1.700000*%
%ADD14R,1.700000X1.700000*%
%ADD15R,1.600000X1.600000*%
%ADD16O,1.600000X1.600000*%
%ADD17O,2.200000X1.500000*%
%ADD18C,8.000000*%
%ADD19C,1.400000*%
%ADD20C,0.900000*%
%ADD21C,0.800000*%
%ADD22C,0.400000*%
%ADD23C,0.254000*%
G04 APERTURE END LIST*
D10*
X101346400Y-77851000D03*
X101346400Y-75311000D03*
X101346400Y-70231000D03*
X101346400Y-113411000D03*
X101346400Y-72771000D03*
X101346400Y-118491000D03*
X101346400Y-93091000D03*
X101346400Y-90551000D03*
X101346400Y-80391000D03*
X101346400Y-100711000D03*
X101346400Y-103251000D03*
X101346400Y-95631000D03*
X101346400Y-82931000D03*
X101346400Y-108331000D03*
X101346400Y-67691000D03*
X101346400Y-88011000D03*
X101346400Y-110871000D03*
X101346400Y-98171000D03*
X101346400Y-115951000D03*
X101346400Y-105791000D03*
X101346400Y-85471000D03*
X101346400Y-121031000D03*
D11*
X123875000Y-67050000D03*
X121375000Y-67050000D03*
X165875000Y-70125000D03*
X163375000Y-70125000D03*
X111800000Y-90125000D03*
X109300000Y-90125000D03*
X109325000Y-67025000D03*
X111825000Y-67025000D03*
D12*
X189890000Y-116179600D03*
X189890000Y-112217200D03*
X189890000Y-108254800D03*
X189890000Y-104292400D03*
X189890000Y-100330000D03*
X189890000Y-96367600D03*
X189890000Y-92405200D03*
X189890000Y-88442800D03*
X189890000Y-84480400D03*
X189890000Y-80520540D03*
X189890000Y-76555600D03*
X189890000Y-72593200D03*
D13*
X173355000Y-80391000D03*
X175895000Y-80391000D03*
X173355000Y-82931000D03*
X175895000Y-82931000D03*
X173355000Y-85471000D03*
X175895000Y-85471000D03*
X173355000Y-88011000D03*
X175895000Y-88011000D03*
X173355000Y-90551000D03*
X175895000Y-90551000D03*
X173355000Y-93091000D03*
X175895000Y-93091000D03*
X173355000Y-95631000D03*
X175895000Y-95631000D03*
X173355000Y-98171000D03*
X175895000Y-98171000D03*
X173355000Y-100711000D03*
X175895000Y-100711000D03*
X173355000Y-103251000D03*
X175895000Y-103251000D03*
X173355000Y-105791000D03*
X175895000Y-105791000D03*
X173355000Y-108331000D03*
D14*
X175895000Y-108331000D03*
D15*
X125822000Y-119498000D03*
D16*
X128362000Y-111878000D03*
X128362000Y-119498000D03*
X125822000Y-111878000D03*
D15*
X130902000Y-119498000D03*
D16*
X138522000Y-111878000D03*
X133442000Y-119498000D03*
X135982000Y-111878000D03*
X135982000Y-119498000D03*
X133442000Y-111878000D03*
X138522000Y-119498000D03*
X130902000Y-111878000D03*
D17*
X112412000Y-93154000D03*
X112412000Y-95694000D03*
X112412000Y-98234000D03*
X112412000Y-100774000D03*
X112412000Y-103314000D03*
X112412000Y-105854000D03*
X112412000Y-108394000D03*
X120032000Y-108394000D03*
X120032000Y-105854000D03*
X120032000Y-103314000D03*
X120032000Y-100774000D03*
X120032000Y-98234000D03*
X120032000Y-95694000D03*
X120032000Y-93154000D03*
X120002000Y-70002000D03*
X120002000Y-72542000D03*
X120002000Y-75082000D03*
X120002000Y-77622000D03*
X120002000Y-80162000D03*
X120002000Y-82702000D03*
X120002000Y-85242000D03*
X112382000Y-85242000D03*
X112382000Y-82702000D03*
X112382000Y-80162000D03*
X112382000Y-77622000D03*
X112382000Y-75082000D03*
X112382000Y-72542000D03*
X112382000Y-70002000D03*
X159886000Y-118380000D03*
X159886000Y-115840000D03*
X159886000Y-113300000D03*
X159886000Y-110760000D03*
X159886000Y-108220000D03*
X159886000Y-105680000D03*
X159886000Y-103140000D03*
X159886000Y-100600000D03*
X159886000Y-98060000D03*
X159886000Y-95520000D03*
X159886000Y-92980000D03*
X159886000Y-90440000D03*
X159886000Y-87900000D03*
X159886000Y-85360000D03*
X159886000Y-82820000D03*
X159886000Y-80280000D03*
X159886000Y-77740000D03*
X159886000Y-75200000D03*
X159886000Y-72660000D03*
X159886000Y-70120000D03*
X144646000Y-70120000D03*
X144646000Y-72660000D03*
X144646000Y-75200000D03*
X144646000Y-77740000D03*
X144646000Y-80280000D03*
X144646000Y-82820000D03*
X144646000Y-85360000D03*
X144646000Y-87900000D03*
X144646000Y-90440000D03*
X144646000Y-92980000D03*
X144646000Y-95520000D03*
X144646000Y-98060000D03*
X144646000Y-100600000D03*
X144646000Y-103140000D03*
X144646000Y-105680000D03*
X144646000Y-108220000D03*
X144646000Y-110760000D03*
X144646000Y-113300000D03*
X144646000Y-115840000D03*
X144646000Y-118380000D03*
X124396000Y-69996000D03*
X124396000Y-72536000D03*
X124396000Y-75076000D03*
X124396000Y-77616000D03*
X124396000Y-80156000D03*
X124396000Y-82696000D03*
X124396000Y-85236000D03*
X124396000Y-87776000D03*
X124396000Y-90316000D03*
X124396000Y-92856000D03*
X124396000Y-95396000D03*
X124396000Y-97936000D03*
X124396000Y-100476000D03*
X124396000Y-103016000D03*
X139636000Y-103016000D03*
X139636000Y-100476000D03*
X139636000Y-97936000D03*
X139636000Y-95396000D03*
X139636000Y-92856000D03*
X139636000Y-90316000D03*
X139636000Y-87776000D03*
X139636000Y-85236000D03*
X139636000Y-82696000D03*
X139636000Y-80156000D03*
X139636000Y-77616000D03*
X139636000Y-75076000D03*
X139636000Y-72536000D03*
X139636000Y-69996000D03*
D18*
X174625000Y-70485000D03*
X174625000Y-118110000D03*
D15*
X137160000Y-108458000D03*
D16*
X134620000Y-108458000D03*
X132080000Y-108458000D03*
X129540000Y-108458000D03*
X127000000Y-108458000D03*
D15*
X164600000Y-76850000D03*
D16*
X164600000Y-79390000D03*
X164600000Y-81930000D03*
X164600000Y-84470000D03*
X164600000Y-87010000D03*
X164600000Y-89550000D03*
D11*
X113792000Y-119380000D03*
D16*
X121412000Y-119380000D03*
X121412000Y-116332000D03*
D11*
X113792000Y-116332000D03*
D19*
X105505200Y-121387600D03*
D20*
X150975000Y-77050000D03*
X148550000Y-114075000D03*
X148025000Y-94975000D03*
X154500000Y-89950000D03*
X148525000Y-109075000D03*
X118825000Y-117275000D03*
X142100000Y-72100000D03*
X164300000Y-99825000D03*
X169050000Y-111325000D03*
X178750000Y-111625000D03*
X184125000Y-78650000D03*
X183250000Y-83350000D03*
X183850000Y-88100000D03*
X183900000Y-91325000D03*
X183625000Y-94250000D03*
X183625000Y-97050000D03*
X183425000Y-100675000D03*
X162625000Y-102775000D03*
X169050000Y-103225000D03*
X164075000Y-105650000D03*
X116550000Y-75100000D03*
X107900000Y-75100000D03*
X107150000Y-86400000D03*
X110425000Y-115275000D03*
X107925000Y-113600000D03*
X185350000Y-118500000D03*
X106650500Y-110881200D03*
X127567300Y-105233100D03*
X127708000Y-85236000D03*
X135420000Y-93791800D03*
X106728500Y-73721100D03*
X180580000Y-108776400D03*
X185081400Y-106393300D03*
X188275200Y-102467100D03*
X106193800Y-77905500D03*
X116339000Y-78828400D03*
X105926700Y-71236000D03*
X117797000Y-71489500D03*
X146591800Y-106020200D03*
X116260200Y-89478200D03*
X109492000Y-88015800D03*
X112491500Y-88015800D03*
X128632300Y-78603500D03*
X115192600Y-92452700D03*
X105557600Y-103886900D03*
X117650700Y-102112100D03*
X128879400Y-80965600D03*
X121598500Y-87806700D03*
X110617200Y-84981600D03*
X115192400Y-93871300D03*
X115284000Y-77081400D03*
X115200100Y-80945400D03*
X109013700Y-99287100D03*
X107973800Y-100372300D03*
X105165700Y-106884100D03*
X127391100Y-107001100D03*
X117683900Y-113399500D03*
X118534200Y-112338600D03*
X104921700Y-99655600D03*
X113491700Y-94413300D03*
X128658000Y-82437900D03*
X119760300Y-88407100D03*
X132821000Y-102983800D03*
D19*
X151498200Y-100433600D03*
D21*
X121375000Y-67050000D02*
X120693900Y-67050000D01*
X120693900Y-67050000D02*
X114149800Y-73594100D01*
X114149800Y-73594100D02*
X114149800Y-83474200D01*
X114149800Y-83474200D02*
X112382000Y-85242000D01*
X101346400Y-67691000D02*
X105121700Y-67691000D01*
X109325000Y-67025000D02*
X105787700Y-67025000D01*
X105787700Y-67025000D02*
X105121700Y-67691000D01*
X184154200Y-81260600D02*
X178214900Y-81260600D01*
X178214900Y-81260600D02*
X177345300Y-80391000D01*
X185162200Y-80520500D02*
X184422100Y-81260600D01*
X184422100Y-81260600D02*
X184154200Y-81260600D01*
X184154200Y-81260600D02*
X184154200Y-83472400D01*
X184154200Y-83472400D02*
X185162200Y-84480400D01*
X175895000Y-80391000D02*
X177345300Y-80391000D01*
X112412000Y-109744300D02*
X112412000Y-114952000D01*
X112412000Y-114952000D02*
X113792000Y-116332000D01*
X173355000Y-88011000D02*
X173355000Y-90551000D01*
X173355000Y-85471000D02*
X173355000Y-88011000D01*
X109300000Y-90125000D02*
X109300100Y-90125000D01*
X109300100Y-90125000D02*
X109300100Y-89693100D01*
X109300100Y-89693100D02*
X112382000Y-86611200D01*
X112382000Y-86611200D02*
X112382000Y-86592300D01*
X113792000Y-116332000D02*
X113792000Y-119380000D01*
X112412000Y-108394000D02*
X112412000Y-109744300D01*
X112382000Y-85242000D02*
X112382000Y-86592300D01*
X105121700Y-121031000D02*
X105148600Y-121031000D01*
X105148600Y-121031000D02*
X105505200Y-121387600D01*
X101346400Y-121031000D02*
X105121700Y-121031000D01*
X173355000Y-93091000D02*
X173355000Y-91640700D01*
X172629900Y-90551000D02*
X172629900Y-90915600D01*
X172629900Y-90915600D02*
X173355000Y-91640700D01*
X173355000Y-90551000D02*
X172629900Y-90551000D01*
X188708100Y-96367600D02*
X187526100Y-96367600D01*
X189890000Y-96367600D02*
X188708100Y-96367600D01*
X188708100Y-96367600D02*
X188708100Y-92405200D01*
X187526100Y-84480400D02*
X185162200Y-84480400D01*
X189890000Y-84480400D02*
X187526100Y-84480400D01*
X187526100Y-88442800D02*
X185162200Y-88442800D01*
X189890000Y-88442800D02*
X187526100Y-88442800D01*
X187526100Y-84480400D02*
X187526100Y-88442800D01*
X188708100Y-92405200D02*
X187908100Y-92405200D01*
X187908100Y-92405200D02*
X185162200Y-89659300D01*
X185162200Y-89659300D02*
X185162200Y-88442800D01*
X189890000Y-92405200D02*
X188708100Y-92405200D01*
X187725000Y-76555600D02*
X185162200Y-79118400D01*
X185162200Y-79118400D02*
X185162200Y-80520500D01*
X189890000Y-80520500D02*
X185162200Y-80520500D01*
X187526100Y-72593200D02*
X187725000Y-72792100D01*
X187725000Y-72792100D02*
X187725000Y-76555600D01*
X189890000Y-72593200D02*
X187526100Y-72593200D01*
X174625000Y-118110000D02*
X174625000Y-113231100D01*
X174625000Y-113231100D02*
X187526100Y-100330000D01*
X187526100Y-96367600D02*
X187526100Y-100330000D01*
X125822000Y-110477700D02*
X124396000Y-109051700D01*
X124396000Y-109051700D02*
X124396000Y-104366300D01*
X124396000Y-103016000D02*
X124396000Y-104366300D01*
X189890000Y-100330000D02*
X187526100Y-100330000D01*
X189890000Y-76555600D02*
X187725000Y-76555600D01*
X173355000Y-82931000D02*
X173355000Y-80391000D01*
X173355000Y-85471000D02*
X173355000Y-82931000D01*
X173355000Y-98171000D02*
X173355000Y-95631000D01*
X125822000Y-111878000D02*
X125822000Y-110477700D01*
D22*
X104921700Y-110871000D02*
X106640300Y-110871000D01*
X106640300Y-110871000D02*
X106650500Y-110881200D01*
X127708000Y-85236000D02*
X127708000Y-105092400D01*
X127708000Y-105092400D02*
X127567300Y-105233100D01*
X101346400Y-110871000D02*
X104921700Y-110871000D01*
X101346400Y-113411000D02*
X105437500Y-113411000D01*
X105437500Y-113411000D02*
X112629700Y-120603200D01*
X112629700Y-120603200D02*
X114319400Y-120603200D01*
X114319400Y-120603200D02*
X115595000Y-119327600D01*
X115595000Y-119327600D02*
X115595000Y-99752700D01*
X115595000Y-99752700D02*
X116431200Y-98916500D01*
X116431200Y-98916500D02*
X116431200Y-97176400D01*
X116431200Y-97176400D02*
X117243600Y-96364000D01*
X117243600Y-96364000D02*
X117243600Y-93092900D01*
X117243600Y-93092900D02*
X121410100Y-88926400D01*
X121410100Y-88926400D02*
X121410100Y-88926300D01*
X121410100Y-88926300D02*
X124396000Y-88926300D01*
X124396000Y-87776000D02*
X124396000Y-88926300D01*
X104921700Y-115951000D02*
X110174200Y-121203500D01*
X110174200Y-121203500D02*
X114568000Y-121203500D01*
X114568000Y-121203500D02*
X116195300Y-119576200D01*
X116195300Y-119576200D02*
X116195300Y-100213300D01*
X116195300Y-100213300D02*
X117543600Y-98865000D01*
X117543600Y-98865000D02*
X117543600Y-97244000D01*
X117543600Y-97244000D02*
X118144100Y-96643500D01*
X118144100Y-96643500D02*
X118144100Y-93059300D01*
X118144100Y-93059300D02*
X120887300Y-90316100D01*
X120887300Y-90316100D02*
X122895700Y-90316100D01*
X122895700Y-90316100D02*
X122895700Y-90316000D01*
X135420000Y-93791800D02*
X135420000Y-100841200D01*
X135420000Y-100841200D02*
X140258800Y-105680000D01*
X140258800Y-105680000D02*
X144646000Y-105680000D01*
X124396000Y-90316000D02*
X122895700Y-90316000D01*
X101346400Y-115951000D02*
X104921700Y-115951000D01*
X104921700Y-118491000D02*
X108234500Y-121803800D01*
X108234500Y-121803800D02*
X116230000Y-121803800D01*
X116230000Y-121803800D02*
X116795600Y-121238200D01*
X116795600Y-121238200D02*
X116795600Y-101098600D01*
X116795600Y-101098600D02*
X118143900Y-99750300D01*
X118143900Y-99750300D02*
X118143900Y-98053700D01*
X118143900Y-98053700D02*
X119233600Y-96964000D01*
X119233600Y-96964000D02*
X120811600Y-96964000D01*
X120811600Y-96964000D02*
X121882300Y-95893300D01*
X121882300Y-95893300D02*
X121882300Y-93869400D01*
X121882300Y-93869400D02*
X122895700Y-92856000D01*
X144646000Y-109370300D02*
X144026000Y-109370300D01*
X144026000Y-109370300D02*
X142343300Y-111053000D01*
X142343300Y-111053000D02*
X142343300Y-118271300D01*
X142343300Y-118271300D02*
X138643100Y-121971500D01*
X138643100Y-121971500D02*
X117528900Y-121971500D01*
X117528900Y-121971500D02*
X116795600Y-121238200D01*
X144646000Y-108220000D02*
X144646000Y-109370300D01*
X124396000Y-92856000D02*
X122895700Y-92856000D01*
X101346400Y-118491000D02*
X104921700Y-118491000D01*
X110881700Y-80162000D02*
X105572700Y-85471000D01*
X105572700Y-85471000D02*
X104921700Y-85471000D01*
X101346400Y-85471000D02*
X104921700Y-85471000D01*
X112382000Y-80162000D02*
X110881700Y-80162000D01*
X175895000Y-105791000D02*
X174644700Y-105791000D01*
X159886000Y-113300000D02*
X159886000Y-112149700D01*
X159886000Y-112149700D02*
X161036300Y-112149700D01*
X161036300Y-112149700D02*
X166125000Y-107061000D01*
X166125000Y-107061000D02*
X173892800Y-107061000D01*
X173892800Y-107061000D02*
X174644700Y-106309100D01*
X174644700Y-106309100D02*
X174644700Y-105791000D01*
X159886000Y-109609700D02*
X161885100Y-109609700D01*
X161885100Y-109609700D02*
X166973800Y-104521000D01*
X166973800Y-104521000D02*
X173892800Y-104521000D01*
X173892800Y-104521000D02*
X174644700Y-103769100D01*
X174644700Y-103769100D02*
X174644700Y-103251000D01*
X175895000Y-103251000D02*
X174644700Y-103251000D01*
X159886000Y-110760000D02*
X159886000Y-109609700D01*
X175895000Y-100711000D02*
X174644700Y-100711000D01*
X159886000Y-108220000D02*
X159886000Y-107069700D01*
X159886000Y-107069700D02*
X161036300Y-107069700D01*
X161036300Y-107069700D02*
X166125000Y-101981000D01*
X166125000Y-101981000D02*
X173892800Y-101981000D01*
X173892800Y-101981000D02*
X174644700Y-101229100D01*
X174644700Y-101229100D02*
X174644700Y-100711000D01*
X159886000Y-82820000D02*
X159886000Y-83970300D01*
X164600000Y-87010000D02*
X163399700Y-87010000D01*
X163399700Y-87010000D02*
X163399700Y-86833700D01*
X163399700Y-86833700D02*
X160536300Y-83970300D01*
X160536300Y-83970300D02*
X159886000Y-83970300D01*
X159886000Y-80280000D02*
X159886000Y-81430300D01*
X164600000Y-84470000D02*
X163399700Y-84470000D01*
X163399700Y-84470000D02*
X163399700Y-84293700D01*
X163399700Y-84293700D02*
X160536300Y-81430300D01*
X160536300Y-81430300D02*
X159886000Y-81430300D01*
X175895000Y-88011000D02*
X175895000Y-89261300D01*
X164600000Y-89550000D02*
X165800300Y-89550000D01*
X165800300Y-89550000D02*
X170591700Y-94341400D01*
X170591700Y-94341400D02*
X173875600Y-94341400D01*
X173875600Y-94341400D02*
X174625000Y-93592000D01*
X174625000Y-93592000D02*
X174625000Y-90013200D01*
X174625000Y-90013200D02*
X175376900Y-89261300D01*
X175376900Y-89261300D02*
X175895000Y-89261300D01*
X104921700Y-72771000D02*
X105778400Y-72771000D01*
X105778400Y-72771000D02*
X106728500Y-73721100D01*
X101346400Y-72771000D02*
X104921700Y-72771000D01*
X175895000Y-85471000D02*
X175895000Y-84220700D01*
X159886000Y-87900000D02*
X161386300Y-87900000D01*
X161386300Y-87900000D02*
X161700200Y-88213900D01*
X161700200Y-88213900D02*
X165097500Y-88213900D01*
X165097500Y-88213900D02*
X171786200Y-81525200D01*
X171786200Y-81525200D02*
X171786200Y-80155100D01*
X171786200Y-80155100D02*
X172855200Y-79086100D01*
X172855200Y-79086100D02*
X173893300Y-79086100D01*
X173893300Y-79086100D02*
X174625000Y-79817800D01*
X174625000Y-79817800D02*
X174625000Y-83468800D01*
X174625000Y-83468800D02*
X175376900Y-84220700D01*
X175376900Y-84220700D02*
X175895000Y-84220700D01*
X189890000Y-116179600D02*
X185362200Y-116179600D01*
X173355000Y-108331000D02*
X173355000Y-109581300D01*
X173355000Y-109581300D02*
X170221700Y-112714600D01*
X170221700Y-112714600D02*
X170221700Y-119942700D01*
X170221700Y-119942700D02*
X172817300Y-122538300D01*
X172817300Y-122538300D02*
X179003500Y-122538300D01*
X179003500Y-122538300D02*
X185362200Y-116179600D01*
X185362200Y-112217200D02*
X184020800Y-112217200D01*
X184020800Y-112217200D02*
X180580000Y-108776400D01*
X189890000Y-112217200D02*
X185362200Y-112217200D01*
X185362200Y-108254800D02*
X185362200Y-106674100D01*
X185362200Y-106674100D02*
X185081400Y-106393300D01*
X189890000Y-108254800D02*
X185362200Y-108254800D01*
X188275200Y-102467100D02*
X189890000Y-104081900D01*
X189890000Y-104081900D02*
X189890000Y-104292400D01*
X104921700Y-77851000D02*
X106139300Y-77851000D01*
X106139300Y-77851000D02*
X106193800Y-77905500D01*
X101346400Y-77851000D02*
X104921700Y-77851000D01*
X120002000Y-80162000D02*
X117672600Y-80162000D01*
X117672600Y-80162000D02*
X116339000Y-78828400D01*
X146591800Y-106020200D02*
X146776500Y-105835500D01*
X146776500Y-105835500D02*
X146776500Y-70251000D01*
X146776500Y-70251000D02*
X144105500Y-67580000D01*
X144105500Y-67580000D02*
X129794700Y-67580000D01*
X129794700Y-67580000D02*
X126222400Y-71152300D01*
X126222400Y-71152300D02*
X118134100Y-71152300D01*
X118134100Y-71152300D02*
X118134100Y-71152400D01*
X118134100Y-71152400D02*
X117797000Y-71489500D01*
X105926700Y-71236000D02*
X104921700Y-70231000D01*
X101346400Y-70231000D02*
X104921700Y-70231000D01*
X116260200Y-89478200D02*
X115706600Y-88924600D01*
X115706600Y-88924600D02*
X111288100Y-88924600D01*
X111288100Y-88924600D02*
X110550000Y-89662700D01*
X110550000Y-89662700D02*
X110550000Y-90659300D01*
X110550000Y-90659300D02*
X109883900Y-91325400D01*
X109883900Y-91325400D02*
X106862200Y-91325400D01*
X106862200Y-91325400D02*
X105096600Y-93091000D01*
X105096600Y-93091000D02*
X101346400Y-93091000D01*
X128632300Y-78603500D02*
X128278600Y-78603500D01*
X128278600Y-78603500D02*
X125456100Y-81426000D01*
X125456100Y-81426000D02*
X123657500Y-81426000D01*
X123657500Y-81426000D02*
X121111500Y-83972000D01*
X121111500Y-83972000D02*
X116535300Y-83972000D01*
X116535300Y-83972000D02*
X112491500Y-88015800D01*
X109492000Y-88015800D02*
X106956800Y-90551000D01*
X106956800Y-90551000D02*
X101346400Y-90551000D01*
X104921700Y-80391000D02*
X109080400Y-76232300D01*
X109080400Y-76232300D02*
X112382000Y-76232300D01*
X101346400Y-80391000D02*
X104921700Y-80391000D01*
X112382000Y-75082000D02*
X112382000Y-76232300D01*
X101346400Y-100711000D02*
X105097700Y-100711000D01*
X105097700Y-100711000D02*
X108963300Y-96845400D01*
X108963300Y-96845400D02*
X113303900Y-96845400D01*
X113303900Y-96845400D02*
X113941800Y-96207500D01*
X113941800Y-96207500D02*
X113941800Y-96073000D01*
X113941800Y-96073000D02*
X114342100Y-95672700D01*
X114342100Y-95672700D02*
X114342100Y-93303200D01*
X114342100Y-93303200D02*
X115192600Y-92452700D01*
X128879400Y-80965600D02*
X127233700Y-82611300D01*
X127233700Y-82611300D02*
X127233700Y-84507800D01*
X127233700Y-84507800D02*
X126857700Y-84883800D01*
X126857700Y-84883800D02*
X126857700Y-92399300D01*
X126857700Y-92399300D02*
X125250600Y-94006400D01*
X125250600Y-94006400D02*
X123808600Y-94006400D01*
X123808600Y-94006400D02*
X122647000Y-95168000D01*
X122647000Y-95168000D02*
X122647000Y-97608300D01*
X122647000Y-97608300D02*
X120751300Y-99504000D01*
X120751300Y-99504000D02*
X119279900Y-99504000D01*
X119279900Y-99504000D02*
X117650700Y-101133200D01*
X117650700Y-101133200D02*
X117650700Y-102112100D01*
X104921700Y-103251000D02*
X105557600Y-103886900D01*
X101346400Y-103251000D02*
X104921700Y-103251000D01*
X101346400Y-95631000D02*
X105038300Y-95631000D01*
X105038300Y-95631000D02*
X108743500Y-91925800D01*
X108743500Y-91925800D02*
X110814500Y-91925800D01*
X110814500Y-91925800D02*
X111336900Y-91403400D01*
X111336900Y-91403400D02*
X114140100Y-91403400D01*
X114140100Y-91403400D02*
X115215000Y-90328500D01*
X115215000Y-90328500D02*
X116612400Y-90328500D01*
X116612400Y-90328500D02*
X117110500Y-89830400D01*
X117110500Y-89830400D02*
X117110500Y-88963300D01*
X117110500Y-88963300D02*
X119480100Y-86593700D01*
X119480100Y-86593700D02*
X120760200Y-86593700D01*
X120760200Y-86593700D02*
X123387900Y-83966000D01*
X123387900Y-83966000D02*
X125123800Y-83966000D01*
X125123800Y-83966000D02*
X125909400Y-83180400D01*
X125909400Y-83180400D02*
X125909400Y-81884100D01*
X125909400Y-81884100D02*
X128339700Y-79453800D01*
X128339700Y-79453800D02*
X128984500Y-79453800D01*
X128984500Y-79453800D02*
X131976900Y-76461400D01*
X131976900Y-76461400D02*
X140520900Y-76461400D01*
X140520900Y-76461400D02*
X141146700Y-77087200D01*
X141146700Y-77087200D02*
X141146700Y-78142000D01*
X141146700Y-78142000D02*
X140283000Y-79005700D01*
X140283000Y-79005700D02*
X139636000Y-79005700D01*
X139636000Y-80156000D02*
X139636000Y-79005700D01*
X104921700Y-82931000D02*
X109080400Y-78772300D01*
X109080400Y-78772300D02*
X112382000Y-78772300D01*
X101346400Y-82931000D02*
X104921700Y-82931000D01*
X112382000Y-77622000D02*
X112382000Y-78772300D01*
X104921700Y-108331000D02*
X106084000Y-107168700D01*
X106084000Y-107168700D02*
X113135800Y-107168700D01*
X113135800Y-107168700D02*
X114994700Y-105309800D01*
X114994700Y-105309800D02*
X114994700Y-99504100D01*
X114994700Y-99504100D02*
X115830900Y-98667900D01*
X115830900Y-98667900D02*
X115830900Y-96927800D01*
X115830900Y-96927800D02*
X116643300Y-96115400D01*
X116643300Y-96115400D02*
X116643300Y-92844300D01*
X116643300Y-92844300D02*
X118911400Y-90576200D01*
X118911400Y-90576200D02*
X118911400Y-90493800D01*
X118911400Y-90493800D02*
X121598500Y-87806700D01*
X101346400Y-108331000D02*
X104921700Y-108331000D01*
X101346400Y-88011000D02*
X107587800Y-88011000D01*
X107587800Y-88011000D02*
X110617200Y-84981600D01*
X104921700Y-98171000D02*
X108668800Y-94423900D01*
X108668800Y-94423900D02*
X108668800Y-94423800D01*
X108668800Y-94423800D02*
X109165400Y-94423800D01*
X109165400Y-94423800D02*
X111585500Y-92003700D01*
X111585500Y-92003700D02*
X114439200Y-92003700D01*
X114439200Y-92003700D02*
X114840500Y-91602400D01*
X114840500Y-91602400D02*
X116187400Y-91602400D01*
X116187400Y-91602400D02*
X117710800Y-90079000D01*
X117710800Y-90079000D02*
X117710800Y-89211900D01*
X117710800Y-89211900D02*
X119728700Y-87194000D01*
X119728700Y-87194000D02*
X121008800Y-87194000D01*
X121008800Y-87194000D02*
X121781300Y-86421500D01*
X121781300Y-86421500D02*
X125194300Y-86421500D01*
X125194300Y-86421500D02*
X126257400Y-85358400D01*
X126257400Y-85358400D02*
X126257400Y-84635200D01*
X126257400Y-84635200D02*
X126629400Y-84263200D01*
X126629400Y-84263200D02*
X126629400Y-82013000D01*
X126629400Y-82013000D02*
X128588300Y-80054100D01*
X128588300Y-80054100D02*
X135697600Y-80054100D01*
X135697600Y-80054100D02*
X138135700Y-77616000D01*
X139636000Y-77616000D02*
X138135700Y-77616000D01*
X101346400Y-98171000D02*
X104921700Y-98171000D01*
X115192400Y-93871300D02*
X115192400Y-95671300D01*
X115192400Y-95671300D02*
X114542100Y-96321600D01*
X114542100Y-96321600D02*
X114542100Y-98109800D01*
X114542100Y-98109800D02*
X113230500Y-99421400D01*
X113230500Y-99421400D02*
X111566700Y-99421400D01*
X111566700Y-99421400D02*
X110578000Y-98432700D01*
X110578000Y-98432700D02*
X108657200Y-98432700D01*
X108657200Y-98432700D02*
X106943200Y-100146700D01*
X106943200Y-100146700D02*
X106943200Y-103769500D01*
X106943200Y-103769500D02*
X104921700Y-105791000D01*
X101346400Y-105791000D02*
X104921700Y-105791000D01*
X144646000Y-68969700D02*
X143902600Y-68226300D01*
X143902600Y-68226300D02*
X136239400Y-68226300D01*
X136239400Y-68226300D02*
X128239300Y-76226400D01*
X128239300Y-76226400D02*
X123447800Y-76226400D01*
X123447800Y-76226400D02*
X120901800Y-78772400D01*
X120901800Y-78772400D02*
X117683500Y-78772400D01*
X117683500Y-78772400D02*
X115992500Y-77081400D01*
X115992500Y-77081400D02*
X115284000Y-77081400D01*
X144646000Y-70120000D02*
X144646000Y-68969700D01*
X144646000Y-75200000D02*
X144646000Y-74049700D01*
X144646000Y-74049700D02*
X145293000Y-74049700D01*
X145293000Y-74049700D02*
X146176100Y-73166600D01*
X146176100Y-73166600D02*
X146176100Y-72137000D01*
X146176100Y-72137000D02*
X145429100Y-71390000D01*
X145429100Y-71390000D02*
X143877100Y-71390000D01*
X143877100Y-71390000D02*
X141313800Y-68826700D01*
X141313800Y-68826700D02*
X137206300Y-68826700D01*
X137206300Y-68826700D02*
X127147000Y-78886000D01*
X127147000Y-78886000D02*
X123658300Y-78886000D01*
X123658300Y-78886000D02*
X121201000Y-81343300D01*
X121201000Y-81343300D02*
X115598000Y-81343300D01*
X115598000Y-81343300D02*
X115200100Y-80945400D01*
X112412000Y-105854000D02*
X112412000Y-104703700D01*
X112412000Y-104703700D02*
X111765000Y-104703700D01*
X111765000Y-104703700D02*
X109013700Y-101952400D01*
X109013700Y-101952400D02*
X109013700Y-99287100D01*
X107973800Y-100372300D02*
X107973800Y-104076000D01*
X107973800Y-104076000D02*
X105165700Y-106884100D01*
X124396000Y-95396000D02*
X124396000Y-96546300D01*
X124396000Y-96546300D02*
X125043000Y-96546300D01*
X125043000Y-96546300D02*
X126473400Y-97976700D01*
X126473400Y-97976700D02*
X126473400Y-106083400D01*
X126473400Y-106083400D02*
X127391100Y-107001100D01*
X124396000Y-99086300D02*
X123734700Y-99086300D01*
X123734700Y-99086300D02*
X120777000Y-102044000D01*
X120777000Y-102044000D02*
X119259000Y-102044000D01*
X119259000Y-102044000D02*
X117683900Y-103619100D01*
X117683900Y-103619100D02*
X117683900Y-113399500D01*
X124396000Y-97936000D02*
X124396000Y-99086300D01*
X124396000Y-100476000D02*
X124396000Y-101626300D01*
X124396000Y-101626300D02*
X123669300Y-101626300D01*
X123669300Y-101626300D02*
X121537200Y-103758400D01*
X121537200Y-103758400D02*
X121537200Y-103899600D01*
X121537200Y-103899600D02*
X120852800Y-104584000D01*
X120852800Y-104584000D02*
X119256900Y-104584000D01*
X119256900Y-104584000D02*
X118520700Y-105320200D01*
X118520700Y-105320200D02*
X118520700Y-112325100D01*
X118520700Y-112325100D02*
X118534200Y-112338600D01*
X144646000Y-92980000D02*
X144646000Y-94130300D01*
X139636000Y-103016000D02*
X139636000Y-101865700D01*
X139636000Y-101865700D02*
X140283000Y-101865700D01*
X140283000Y-101865700D02*
X142970000Y-99178700D01*
X142970000Y-99178700D02*
X142970000Y-95219000D01*
X142970000Y-95219000D02*
X144058700Y-94130300D01*
X144058700Y-94130300D02*
X144646000Y-94130300D01*
X139636000Y-99325700D02*
X140256000Y-99325700D01*
X140256000Y-99325700D02*
X142338100Y-97243600D01*
X142338100Y-97243600D02*
X142338100Y-94202100D01*
X142338100Y-94202100D02*
X142938500Y-93601700D01*
X142938500Y-93601700D02*
X142938500Y-92677800D01*
X142938500Y-92677800D02*
X144026000Y-91590300D01*
X144026000Y-91590300D02*
X144646000Y-91590300D01*
X139636000Y-100476000D02*
X139636000Y-99325700D01*
X144646000Y-90440000D02*
X144646000Y-91590300D01*
X144646000Y-87900000D02*
X144646000Y-89050300D01*
X139636000Y-97936000D02*
X139636000Y-96785700D01*
X139636000Y-96785700D02*
X140283000Y-96785700D01*
X140283000Y-96785700D02*
X141268900Y-95799800D01*
X141268900Y-95799800D02*
X141268900Y-94422200D01*
X141268900Y-94422200D02*
X142338200Y-93352900D01*
X142338200Y-93352900D02*
X142338200Y-90738100D01*
X142338200Y-90738100D02*
X144026000Y-89050300D01*
X144026000Y-89050300D02*
X144646000Y-89050300D01*
X144646000Y-86510300D02*
X144026000Y-86510300D01*
X144026000Y-86510300D02*
X141737800Y-88798500D01*
X141737800Y-88798500D02*
X141737800Y-92744300D01*
X141737800Y-92744300D02*
X140236400Y-94245700D01*
X140236400Y-94245700D02*
X139636000Y-94245700D01*
X144646000Y-85360000D02*
X144646000Y-86510300D01*
X139636000Y-95396000D02*
X139636000Y-94245700D01*
X104921700Y-99655600D02*
X110164000Y-94413300D01*
X110164000Y-94413300D02*
X113491700Y-94413300D01*
X135982000Y-118297700D02*
X134781700Y-117097400D01*
X134781700Y-117097400D02*
X134781700Y-111505300D01*
X134781700Y-111505300D02*
X133405100Y-110128700D01*
X133405100Y-110128700D02*
X133405100Y-103602200D01*
X133405100Y-103602200D02*
X133671300Y-103336000D01*
X133671300Y-103336000D02*
X133671300Y-87451200D01*
X133671300Y-87451200D02*
X128658000Y-82437900D01*
X135982000Y-119498000D02*
X135982000Y-118297700D01*
X112412000Y-102163700D02*
X113032000Y-102163700D01*
X113032000Y-102163700D02*
X114349100Y-100846600D01*
X114349100Y-100846600D02*
X114349100Y-99300800D01*
X114349100Y-99300800D02*
X115230600Y-98419300D01*
X115230600Y-98419300D02*
X115230600Y-96679200D01*
X115230600Y-96679200D02*
X116043000Y-95866800D01*
X116043000Y-95866800D02*
X116043000Y-92595700D01*
X116043000Y-92595700D02*
X118311100Y-90327600D01*
X118311100Y-90327600D02*
X118311100Y-89856300D01*
X118311100Y-89856300D02*
X119760300Y-88407100D01*
X112412000Y-103314000D02*
X112412000Y-102163700D01*
X144646000Y-115840000D02*
X144646000Y-114689700D01*
X164600000Y-79390000D02*
X163399700Y-79390000D01*
X163399700Y-79390000D02*
X163114700Y-79105000D01*
X163114700Y-79105000D02*
X159019900Y-79105000D01*
X159019900Y-79105000D02*
X158330900Y-79794000D01*
X158330900Y-79794000D02*
X158330900Y-88393300D01*
X158330900Y-88393300D02*
X159202000Y-89264400D01*
X159202000Y-89264400D02*
X160738400Y-89264400D01*
X160738400Y-89264400D02*
X161389400Y-89915400D01*
X161389400Y-89915400D02*
X161389400Y-93472900D01*
X161389400Y-93472900D02*
X160612300Y-94250000D01*
X160612300Y-94250000D02*
X159111500Y-94250000D01*
X159111500Y-94250000D02*
X157175700Y-96185800D01*
X157175700Y-96185800D02*
X157175700Y-102780000D01*
X157175700Y-102780000D02*
X145266000Y-114689700D01*
X145266000Y-114689700D02*
X144646000Y-114689700D01*
X130902000Y-119498000D02*
X130902000Y-120698300D01*
X121412000Y-116332000D02*
X121412000Y-117532300D01*
X121412000Y-117532300D02*
X125194600Y-121314900D01*
X125194600Y-121314900D02*
X130285400Y-121314900D01*
X130285400Y-121314900D02*
X130902000Y-120698300D01*
X121412000Y-115731800D02*
X121412000Y-116332000D01*
X120032000Y-107004300D02*
X120652000Y-107004300D01*
X120652000Y-107004300D02*
X121537400Y-107889700D01*
X121537400Y-107889700D02*
X121537400Y-115006300D01*
X121537400Y-115006300D02*
X121412000Y-115131700D01*
X121412000Y-115731800D02*
X121412000Y-115131700D01*
X120032000Y-105854000D02*
X120032000Y-107004300D01*
X134620000Y-108458000D02*
X134620000Y-107257700D01*
X138122800Y-90316000D02*
X137665800Y-90316000D01*
X137665800Y-90316000D02*
X134569700Y-93412100D01*
X134569700Y-93412100D02*
X134569700Y-107207400D01*
X134569700Y-107207400D02*
X134620000Y-107257700D01*
X138522000Y-119498000D02*
X138522000Y-118297700D01*
X134620000Y-108458000D02*
X134620000Y-109658300D01*
X134620000Y-109658300D02*
X135520200Y-109658300D01*
X135520200Y-109658300D02*
X137252000Y-111390100D01*
X137252000Y-111390100D02*
X137252000Y-117027700D01*
X137252000Y-117027700D02*
X138522000Y-118297700D01*
X138122800Y-90316000D02*
X139636000Y-90316000D01*
X139636000Y-86386300D02*
X138989000Y-86386300D01*
X138989000Y-86386300D02*
X138122800Y-87252500D01*
X138122800Y-87252500D02*
X138122800Y-90316000D01*
X139636000Y-85236000D02*
X139636000Y-86386300D01*
X133442000Y-119498000D02*
X134642300Y-119498000D01*
X159886000Y-90440000D02*
X159886000Y-91590300D01*
X159886000Y-91590300D02*
X159239000Y-91590300D01*
X159239000Y-91590300D02*
X153430400Y-97398900D01*
X153430400Y-97398900D02*
X153430400Y-100440000D01*
X153430400Y-100440000D02*
X146920400Y-106950000D01*
X146920400Y-106950000D02*
X143864700Y-106950000D01*
X143864700Y-106950000D02*
X140394800Y-110419900D01*
X140394800Y-110419900D02*
X140394800Y-119370700D01*
X140394800Y-119370700D02*
X139020800Y-120744700D01*
X139020800Y-120744700D02*
X135515900Y-120744700D01*
X135515900Y-120744700D02*
X134642300Y-119871100D01*
X134642300Y-119871100D02*
X134642300Y-119498000D01*
X133442000Y-119498000D02*
X133442000Y-118297700D01*
X132080000Y-108458000D02*
X132080000Y-109658300D01*
X132080000Y-109658300D02*
X132102400Y-109680700D01*
X132102400Y-109680700D02*
X132102400Y-116958100D01*
X132102400Y-116958100D02*
X133442000Y-118297700D01*
X129540000Y-108458000D02*
X129540000Y-109658300D01*
X129540000Y-109658300D02*
X129620800Y-109739100D01*
X129620800Y-109739100D02*
X129620800Y-119994000D01*
X129620800Y-119994000D02*
X128916500Y-120698300D01*
X128916500Y-120698300D02*
X127847400Y-120698300D01*
X127847400Y-120698300D02*
X127022300Y-119873200D01*
X127022300Y-119873200D02*
X127022300Y-119498000D01*
X129540000Y-108458000D02*
X129540000Y-106264800D01*
X129540000Y-106264800D02*
X132821000Y-102983800D01*
X125822000Y-119498000D02*
X127022300Y-119498000D01*
X128362000Y-119498000D02*
X128362000Y-118297700D01*
X127000000Y-108458000D02*
X127000000Y-109658300D01*
X127000000Y-109658300D02*
X127022400Y-109680700D01*
X127022400Y-109680700D02*
X127022400Y-116958100D01*
X127022400Y-116958100D02*
X128362000Y-118297700D01*
D21*
X120002000Y-72542000D02*
X121708200Y-74248200D01*
X121708200Y-74248200D02*
X121708200Y-75915800D01*
X121708200Y-75915800D02*
X120002000Y-77622000D01*
X159886000Y-70120000D02*
X151498200Y-78507800D01*
X151498200Y-78507800D02*
X151498200Y-100433600D01*
X139636000Y-75076000D02*
X139636000Y-73886300D01*
X142230000Y-75076000D02*
X139636000Y-75076000D01*
X139636000Y-72536000D02*
X139636000Y-69996000D01*
X139636000Y-73211100D02*
X139636000Y-72536000D01*
X139636000Y-73211100D02*
X139636000Y-73886300D01*
X144646000Y-72660000D02*
X142230000Y-75076000D01*
X142230000Y-75076000D02*
X142230000Y-75324000D01*
X142230000Y-75324000D02*
X144646000Y-77740000D01*
X164600000Y-76850000D02*
X164600000Y-75449700D01*
X164600000Y-75449700D02*
X163375000Y-74224700D01*
X163375000Y-74224700D02*
X163375000Y-70125000D01*
X123875000Y-68973000D02*
X122731300Y-68973000D01*
X122731300Y-68973000D02*
X121702300Y-70002000D01*
X124396000Y-69996000D02*
X124396000Y-69494000D01*
X124396000Y-69494000D02*
X123875000Y-68973000D01*
X123875000Y-68973000D02*
X123875000Y-67050000D01*
X120002000Y-70002000D02*
X121702300Y-70002000D01*
X120032000Y-93154000D02*
X120032000Y-95694000D01*
X112382000Y-70002000D02*
X112382000Y-68651700D01*
X112382000Y-68651700D02*
X111825000Y-68094700D01*
X111825000Y-68094700D02*
X111825000Y-67025000D01*
X112382000Y-72542000D02*
X112382000Y-70002000D01*
D23*
G36*
X185311315Y-117583285D02*
G01*
X185408006Y-117662637D01*
X185518320Y-117721602D01*
X185638018Y-117757912D01*
X185762500Y-117770172D01*
X194015001Y-117770172D01*
X194015001Y-118666485D01*
X194005778Y-118760546D01*
X193988194Y-118818787D01*
X193959635Y-118872500D01*
X193921183Y-118919646D01*
X193874310Y-118958423D01*
X193820796Y-118987358D01*
X193762677Y-119005349D01*
X193670855Y-119015000D01*
X184766353Y-119015000D01*
X184737045Y-119017887D01*
X184730933Y-119017844D01*
X184721415Y-119018777D01*
X184527318Y-119039178D01*
X184466504Y-119051661D01*
X184405519Y-119063295D01*
X184396363Y-119066059D01*
X184209925Y-119123771D01*
X184152692Y-119147830D01*
X184095127Y-119171087D01*
X184086682Y-119175577D01*
X183915006Y-119268402D01*
X183863532Y-119303122D01*
X183811582Y-119337117D01*
X183804170Y-119343162D01*
X183653793Y-119467565D01*
X183610027Y-119511638D01*
X183565689Y-119555057D01*
X183559592Y-119562426D01*
X183436242Y-119713668D01*
X183401881Y-119765386D01*
X183366809Y-119816607D01*
X183362260Y-119825020D01*
X183270635Y-119997343D01*
X183246978Y-120054739D01*
X183222519Y-120111807D01*
X183219690Y-120120943D01*
X183163281Y-120307780D01*
X183151219Y-120368698D01*
X183138314Y-120429410D01*
X183137314Y-120438922D01*
X183118269Y-120633155D01*
X183118269Y-120633164D01*
X183115000Y-120666354D01*
X183115001Y-122166486D01*
X183105778Y-122260546D01*
X183088194Y-122318787D01*
X183059635Y-122372500D01*
X183021183Y-122419646D01*
X182974310Y-122458423D01*
X182920796Y-122487358D01*
X182862677Y-122505349D01*
X182770855Y-122515000D01*
X180207667Y-122515000D01*
X185233816Y-117488852D01*
X185311315Y-117583285D01*
X185311315Y-117583285D01*
G37*
X185311315Y-117583285D02*
X185408006Y-117662637D01*
X185518320Y-117721602D01*
X185638018Y-117757912D01*
X185762500Y-117770172D01*
X194015001Y-117770172D01*
X194015001Y-118666485D01*
X194005778Y-118760546D01*
X193988194Y-118818787D01*
X193959635Y-118872500D01*
X193921183Y-118919646D01*
X193874310Y-118958423D01*
X193820796Y-118987358D01*
X193762677Y-119005349D01*
X193670855Y-119015000D01*
X184766353Y-119015000D01*
X184737045Y-119017887D01*
X184730933Y-119017844D01*
X184721415Y-119018777D01*
X184527318Y-119039178D01*
X184466504Y-119051661D01*
X184405519Y-119063295D01*
X184396363Y-119066059D01*
X184209925Y-119123771D01*
X184152692Y-119147830D01*
X184095127Y-119171087D01*
X184086682Y-119175577D01*
X183915006Y-119268402D01*
X183863532Y-119303122D01*
X183811582Y-119337117D01*
X183804170Y-119343162D01*
X183653793Y-119467565D01*
X183610027Y-119511638D01*
X183565689Y-119555057D01*
X183559592Y-119562426D01*
X183436242Y-119713668D01*
X183401881Y-119765386D01*
X183366809Y-119816607D01*
X183362260Y-119825020D01*
X183270635Y-119997343D01*
X183246978Y-120054739D01*
X183222519Y-120111807D01*
X183219690Y-120120943D01*
X183163281Y-120307780D01*
X183151219Y-120368698D01*
X183138314Y-120429410D01*
X183137314Y-120438922D01*
X183118269Y-120633155D01*
X183118269Y-120633164D01*
X183115000Y-120666354D01*
X183115001Y-122166486D01*
X183105778Y-122260546D01*
X183088194Y-122318787D01*
X183059635Y-122372500D01*
X183021183Y-122419646D01*
X182974310Y-122458423D01*
X182920796Y-122487358D01*
X182862677Y-122505349D01*
X182770855Y-122515000D01*
X180207667Y-122515000D01*
X185233816Y-117488852D01*
X185311315Y-117583285D01*
G36*
X158378843Y-96293188D02*
G01*
X158551919Y-96504081D01*
X158762812Y-96677157D01*
X158973927Y-96790000D01*
X158762812Y-96902843D01*
X158551919Y-97075919D01*
X158378843Y-97286812D01*
X158250236Y-97527419D01*
X158171040Y-97788493D01*
X158144299Y-98060000D01*
X158171040Y-98331507D01*
X158250236Y-98592581D01*
X158378843Y-98833188D01*
X158551919Y-99044081D01*
X158762812Y-99217157D01*
X158973927Y-99330000D01*
X158762812Y-99442843D01*
X158551919Y-99615919D01*
X158378843Y-99826812D01*
X158250236Y-100067419D01*
X158171040Y-100328493D01*
X158144299Y-100600000D01*
X158171040Y-100871507D01*
X158250236Y-101132581D01*
X158378843Y-101373188D01*
X158551919Y-101584081D01*
X158762812Y-101757157D01*
X158973927Y-101870000D01*
X158762812Y-101982843D01*
X158551919Y-102155919D01*
X158378843Y-102366812D01*
X158250236Y-102607419D01*
X158171040Y-102868493D01*
X158144299Y-103140000D01*
X158171040Y-103411507D01*
X158250236Y-103672581D01*
X158378843Y-103913188D01*
X158551919Y-104124081D01*
X158762812Y-104297157D01*
X158973927Y-104410000D01*
X158762812Y-104522843D01*
X158551919Y-104695919D01*
X158378843Y-104906812D01*
X158250236Y-105147419D01*
X158171040Y-105408493D01*
X158144299Y-105680000D01*
X158171040Y-105951507D01*
X158250236Y-106212581D01*
X158378843Y-106453188D01*
X158551919Y-106664081D01*
X158762812Y-106837157D01*
X158973927Y-106950000D01*
X158762812Y-107062843D01*
X158551919Y-107235919D01*
X158378843Y-107446812D01*
X158250236Y-107687419D01*
X158171040Y-107948493D01*
X158144299Y-108220000D01*
X158171040Y-108491507D01*
X158250236Y-108752581D01*
X158378843Y-108993188D01*
X158551919Y-109204081D01*
X158762812Y-109377157D01*
X158973927Y-109490000D01*
X158762812Y-109602843D01*
X158551919Y-109775919D01*
X158378843Y-109986812D01*
X158250236Y-110227419D01*
X158171040Y-110488493D01*
X158144299Y-110760000D01*
X158171040Y-111031507D01*
X158250236Y-111292581D01*
X158378843Y-111533188D01*
X158551919Y-111744081D01*
X158762812Y-111917157D01*
X158973927Y-112030000D01*
X158762812Y-112142843D01*
X158551919Y-112315919D01*
X158378843Y-112526812D01*
X158250236Y-112767419D01*
X158171040Y-113028493D01*
X158144299Y-113300000D01*
X158171040Y-113571507D01*
X158250236Y-113832581D01*
X158378843Y-114073188D01*
X158551919Y-114284081D01*
X158762812Y-114457157D01*
X158973927Y-114570000D01*
X158762812Y-114682843D01*
X158551919Y-114855919D01*
X158378843Y-115066812D01*
X158250236Y-115307419D01*
X158171040Y-115568493D01*
X158144299Y-115840000D01*
X158171040Y-116111507D01*
X158250236Y-116372581D01*
X158378843Y-116613188D01*
X158551919Y-116824081D01*
X158762812Y-116997157D01*
X158978578Y-117112486D01*
X158888651Y-117149028D01*
X158660939Y-117298972D01*
X158466855Y-117490460D01*
X158313858Y-117716132D01*
X158207827Y-117967316D01*
X158193682Y-118038815D01*
X158316344Y-118253000D01*
X159759000Y-118253000D01*
X159759000Y-118233000D01*
X160013000Y-118233000D01*
X160013000Y-118253000D01*
X161455656Y-118253000D01*
X161578318Y-118038815D01*
X161564173Y-117967316D01*
X161458142Y-117716132D01*
X161305145Y-117490460D01*
X161111061Y-117298972D01*
X160883349Y-117149028D01*
X160793422Y-117112486D01*
X161009188Y-116997157D01*
X161220081Y-116824081D01*
X161393157Y-116613188D01*
X161521764Y-116372581D01*
X161600960Y-116111507D01*
X161627701Y-115840000D01*
X161600960Y-115568493D01*
X161521764Y-115307419D01*
X161393157Y-115066812D01*
X161220081Y-114855919D01*
X161009188Y-114682843D01*
X160798073Y-114570000D01*
X161009188Y-114457157D01*
X161220081Y-114284081D01*
X161393157Y-114073188D01*
X161521764Y-113832581D01*
X161600960Y-113571507D01*
X161627701Y-113300000D01*
X161600960Y-113028493D01*
X161537324Y-112818713D01*
X161629591Y-112742991D01*
X161655746Y-112711121D01*
X166470869Y-107896000D01*
X171935135Y-107896000D01*
X171891487Y-108039889D01*
X171862815Y-108331000D01*
X171891487Y-108622111D01*
X171976401Y-108902034D01*
X172114294Y-109160014D01*
X172299866Y-109386134D01*
X172338001Y-109417431D01*
X169660279Y-112095154D01*
X169628409Y-112121309D01*
X169537784Y-112231737D01*
X169524064Y-112248455D01*
X169446528Y-112393514D01*
X169398782Y-112550912D01*
X169382660Y-112714600D01*
X169386700Y-112755619D01*
X169386701Y-119901672D01*
X169382660Y-119942700D01*
X169398782Y-120106388D01*
X169446528Y-120263786D01*
X169524064Y-120408845D01*
X169529312Y-120415240D01*
X169628410Y-120535991D01*
X169660274Y-120562141D01*
X171613131Y-122515000D01*
X139280467Y-122515000D01*
X142904727Y-118890741D01*
X142936591Y-118864591D01*
X142979732Y-118812023D01*
X143010236Y-118912581D01*
X143138843Y-119153188D01*
X143311919Y-119364081D01*
X143522812Y-119537157D01*
X143763419Y-119665764D01*
X144024493Y-119744960D01*
X144227963Y-119765000D01*
X145064037Y-119765000D01*
X145267507Y-119744960D01*
X145528581Y-119665764D01*
X145769188Y-119537157D01*
X145980081Y-119364081D01*
X146153157Y-119153188D01*
X146281764Y-118912581D01*
X146339823Y-118721185D01*
X158193682Y-118721185D01*
X158207827Y-118792684D01*
X158313858Y-119043868D01*
X158466855Y-119269540D01*
X158660939Y-119461028D01*
X158888651Y-119610972D01*
X159141240Y-119713611D01*
X159409000Y-119765000D01*
X159759000Y-119765000D01*
X159759000Y-118507000D01*
X160013000Y-118507000D01*
X160013000Y-119765000D01*
X160363000Y-119765000D01*
X160630760Y-119713611D01*
X160883349Y-119610972D01*
X161111061Y-119461028D01*
X161305145Y-119269540D01*
X161458142Y-119043868D01*
X161564173Y-118792684D01*
X161578318Y-118721185D01*
X161455656Y-118507000D01*
X160013000Y-118507000D01*
X159759000Y-118507000D01*
X158316344Y-118507000D01*
X158193682Y-118721185D01*
X146339823Y-118721185D01*
X146360960Y-118651507D01*
X146387701Y-118380000D01*
X146360960Y-118108493D01*
X146281764Y-117847419D01*
X146153157Y-117606812D01*
X145980081Y-117395919D01*
X145769188Y-117222843D01*
X145558073Y-117110000D01*
X145769188Y-116997157D01*
X145980081Y-116824081D01*
X146153157Y-116613188D01*
X146281764Y-116372581D01*
X146360960Y-116111507D01*
X146387701Y-115840000D01*
X146360960Y-115568493D01*
X146281764Y-115307419D01*
X146153157Y-115066812D01*
X146115563Y-115021004D01*
X157737127Y-103399441D01*
X157768991Y-103373291D01*
X157873336Y-103246146D01*
X157950872Y-103101087D01*
X157998618Y-102943689D01*
X158010700Y-102821019D01*
X158010700Y-102821009D01*
X158014739Y-102780001D01*
X158010700Y-102738993D01*
X158010700Y-96531667D01*
X158333678Y-96208690D01*
X158378843Y-96293188D01*
X158378843Y-96293188D01*
G37*
X158378843Y-96293188D02*
X158551919Y-96504081D01*
X158762812Y-96677157D01*
X158973927Y-96790000D01*
X158762812Y-96902843D01*
X158551919Y-97075919D01*
X158378843Y-97286812D01*
X158250236Y-97527419D01*
X158171040Y-97788493D01*
X158144299Y-98060000D01*
X158171040Y-98331507D01*
X158250236Y-98592581D01*
X158378843Y-98833188D01*
X158551919Y-99044081D01*
X158762812Y-99217157D01*
X158973927Y-99330000D01*
X158762812Y-99442843D01*
X158551919Y-99615919D01*
X158378843Y-99826812D01*
X158250236Y-100067419D01*
X158171040Y-100328493D01*
X158144299Y-100600000D01*
X158171040Y-100871507D01*
X158250236Y-101132581D01*
X158378843Y-101373188D01*
X158551919Y-101584081D01*
X158762812Y-101757157D01*
X158973927Y-101870000D01*
X158762812Y-101982843D01*
X158551919Y-102155919D01*
X158378843Y-102366812D01*
X158250236Y-102607419D01*
X158171040Y-102868493D01*
X158144299Y-103140000D01*
X158171040Y-103411507D01*
X158250236Y-103672581D01*
X158378843Y-103913188D01*
X158551919Y-104124081D01*
X158762812Y-104297157D01*
X158973927Y-104410000D01*
X158762812Y-104522843D01*
X158551919Y-104695919D01*
X158378843Y-104906812D01*
X158250236Y-105147419D01*
X158171040Y-105408493D01*
X158144299Y-105680000D01*
X158171040Y-105951507D01*
X158250236Y-106212581D01*
X158378843Y-106453188D01*
X158551919Y-106664081D01*
X158762812Y-106837157D01*
X158973927Y-106950000D01*
X158762812Y-107062843D01*
X158551919Y-107235919D01*
X158378843Y-107446812D01*
X158250236Y-107687419D01*
X158171040Y-107948493D01*
X158144299Y-108220000D01*
X158171040Y-108491507D01*
X158250236Y-108752581D01*
X158378843Y-108993188D01*
X158551919Y-109204081D01*
X158762812Y-109377157D01*
X158973927Y-109490000D01*
X158762812Y-109602843D01*
X158551919Y-109775919D01*
X158378843Y-109986812D01*
X158250236Y-110227419D01*
X158171040Y-110488493D01*
X158144299Y-110760000D01*
X158171040Y-111031507D01*
X158250236Y-111292581D01*
X158378843Y-111533188D01*
X158551919Y-111744081D01*
X158762812Y-111917157D01*
X158973927Y-112030000D01*
X158762812Y-112142843D01*
X158551919Y-112315919D01*
X158378843Y-112526812D01*
X158250236Y-112767419D01*
X158171040Y-113028493D01*
X158144299Y-113300000D01*
X158171040Y-113571507D01*
X158250236Y-113832581D01*
X158378843Y-114073188D01*
X158551919Y-114284081D01*
X158762812Y-114457157D01*
X158973927Y-114570000D01*
X158762812Y-114682843D01*
X158551919Y-114855919D01*
X158378843Y-115066812D01*
X158250236Y-115307419D01*
X158171040Y-115568493D01*
X158144299Y-115840000D01*
X158171040Y-116111507D01*
X158250236Y-116372581D01*
X158378843Y-116613188D01*
X158551919Y-116824081D01*
X158762812Y-116997157D01*
X158978578Y-117112486D01*
X158888651Y-117149028D01*
X158660939Y-117298972D01*
X158466855Y-117490460D01*
X158313858Y-117716132D01*
X158207827Y-117967316D01*
X158193682Y-118038815D01*
X158316344Y-118253000D01*
X159759000Y-118253000D01*
X159759000Y-118233000D01*
X160013000Y-118233000D01*
X160013000Y-118253000D01*
X161455656Y-118253000D01*
X161578318Y-118038815D01*
X161564173Y-117967316D01*
X161458142Y-117716132D01*
X161305145Y-117490460D01*
X161111061Y-117298972D01*
X160883349Y-117149028D01*
X160793422Y-117112486D01*
X161009188Y-116997157D01*
X161220081Y-116824081D01*
X161393157Y-116613188D01*
X161521764Y-116372581D01*
X161600960Y-116111507D01*
X161627701Y-115840000D01*
X161600960Y-115568493D01*
X161521764Y-115307419D01*
X161393157Y-115066812D01*
X161220081Y-114855919D01*
X161009188Y-114682843D01*
X160798073Y-114570000D01*
X161009188Y-114457157D01*
X161220081Y-114284081D01*
X161393157Y-114073188D01*
X161521764Y-113832581D01*
X161600960Y-113571507D01*
X161627701Y-113300000D01*
X161600960Y-113028493D01*
X161537324Y-112818713D01*
X161629591Y-112742991D01*
X161655746Y-112711121D01*
X166470869Y-107896000D01*
X171935135Y-107896000D01*
X171891487Y-108039889D01*
X171862815Y-108331000D01*
X171891487Y-108622111D01*
X171976401Y-108902034D01*
X172114294Y-109160014D01*
X172299866Y-109386134D01*
X172338001Y-109417431D01*
X169660279Y-112095154D01*
X169628409Y-112121309D01*
X169537784Y-112231737D01*
X169524064Y-112248455D01*
X169446528Y-112393514D01*
X169398782Y-112550912D01*
X169382660Y-112714600D01*
X169386700Y-112755619D01*
X169386701Y-119901672D01*
X169382660Y-119942700D01*
X169398782Y-120106388D01*
X169446528Y-120263786D01*
X169524064Y-120408845D01*
X169529312Y-120415240D01*
X169628410Y-120535991D01*
X169660274Y-120562141D01*
X171613131Y-122515000D01*
X139280467Y-122515000D01*
X142904727Y-118890741D01*
X142936591Y-118864591D01*
X142979732Y-118812023D01*
X143010236Y-118912581D01*
X143138843Y-119153188D01*
X143311919Y-119364081D01*
X143522812Y-119537157D01*
X143763419Y-119665764D01*
X144024493Y-119744960D01*
X144227963Y-119765000D01*
X145064037Y-119765000D01*
X145267507Y-119744960D01*
X145528581Y-119665764D01*
X145769188Y-119537157D01*
X145980081Y-119364081D01*
X146153157Y-119153188D01*
X146281764Y-118912581D01*
X146339823Y-118721185D01*
X158193682Y-118721185D01*
X158207827Y-118792684D01*
X158313858Y-119043868D01*
X158466855Y-119269540D01*
X158660939Y-119461028D01*
X158888651Y-119610972D01*
X159141240Y-119713611D01*
X159409000Y-119765000D01*
X159759000Y-119765000D01*
X159759000Y-118507000D01*
X160013000Y-118507000D01*
X160013000Y-119765000D01*
X160363000Y-119765000D01*
X160630760Y-119713611D01*
X160883349Y-119610972D01*
X161111061Y-119461028D01*
X161305145Y-119269540D01*
X161458142Y-119043868D01*
X161564173Y-118792684D01*
X161578318Y-118721185D01*
X161455656Y-118507000D01*
X160013000Y-118507000D01*
X159759000Y-118507000D01*
X158316344Y-118507000D01*
X158193682Y-118721185D01*
X146339823Y-118721185D01*
X146360960Y-118651507D01*
X146387701Y-118380000D01*
X146360960Y-118108493D01*
X146281764Y-117847419D01*
X146153157Y-117606812D01*
X145980081Y-117395919D01*
X145769188Y-117222843D01*
X145558073Y-117110000D01*
X145769188Y-116997157D01*
X145980081Y-116824081D01*
X146153157Y-116613188D01*
X146281764Y-116372581D01*
X146360960Y-116111507D01*
X146387701Y-115840000D01*
X146360960Y-115568493D01*
X146281764Y-115307419D01*
X146153157Y-115066812D01*
X146115563Y-115021004D01*
X157737127Y-103399441D01*
X157768991Y-103373291D01*
X157873336Y-103246146D01*
X157950872Y-103101087D01*
X157998618Y-102943689D01*
X158010700Y-102821019D01*
X158010700Y-102821009D01*
X158014739Y-102780001D01*
X158010700Y-102738993D01*
X158010700Y-96531667D01*
X158333678Y-96208690D01*
X158378843Y-96293188D01*
G36*
X107615063Y-122365232D02*
G01*
X107641209Y-122397091D01*
X107673068Y-122423237D01*
X107673070Y-122423239D01*
X107719179Y-122461079D01*
X107768354Y-122501436D01*
X107793730Y-122515000D01*
X100449806Y-122515000D01*
X100449435Y-122428000D01*
X101219400Y-122428000D01*
X101219400Y-121158000D01*
X101473400Y-121158000D01*
X101473400Y-122428000D01*
X103886400Y-122428000D01*
X104156501Y-122376381D01*
X104411342Y-122273059D01*
X104641129Y-122122006D01*
X104837032Y-121929026D01*
X104991522Y-121701535D01*
X105098662Y-121448276D01*
X105113620Y-121374070D01*
X104991120Y-121158000D01*
X101473400Y-121158000D01*
X101219400Y-121158000D01*
X101199400Y-121158000D01*
X101199400Y-120904000D01*
X101219400Y-120904000D01*
X101219400Y-120884000D01*
X101473400Y-120884000D01*
X101473400Y-120904000D01*
X104991120Y-120904000D01*
X105113620Y-120687930D01*
X105098662Y-120613724D01*
X104991522Y-120360465D01*
X104837032Y-120132974D01*
X104641129Y-119939994D01*
X104411342Y-119788941D01*
X104344987Y-119762038D01*
X104539287Y-119658183D01*
X104741810Y-119491977D01*
X107615063Y-122365232D01*
X107615063Y-122365232D01*
G37*
X107615063Y-122365232D02*
X107641209Y-122397091D01*
X107673068Y-122423237D01*
X107673070Y-122423239D01*
X107719179Y-122461079D01*
X107768354Y-122501436D01*
X107793730Y-122515000D01*
X100449806Y-122515000D01*
X100449435Y-122428000D01*
X101219400Y-122428000D01*
X101219400Y-121158000D01*
X101473400Y-121158000D01*
X101473400Y-122428000D01*
X103886400Y-122428000D01*
X104156501Y-122376381D01*
X104411342Y-122273059D01*
X104641129Y-122122006D01*
X104837032Y-121929026D01*
X104991522Y-121701535D01*
X105098662Y-121448276D01*
X105113620Y-121374070D01*
X104991120Y-121158000D01*
X101473400Y-121158000D01*
X101219400Y-121158000D01*
X101199400Y-121158000D01*
X101199400Y-120904000D01*
X101219400Y-120904000D01*
X101219400Y-120884000D01*
X101473400Y-120884000D01*
X101473400Y-120904000D01*
X104991120Y-120904000D01*
X105113620Y-120687930D01*
X105098662Y-120613724D01*
X104991522Y-120360465D01*
X104837032Y-120132974D01*
X104641129Y-119939994D01*
X104411342Y-119788941D01*
X104344987Y-119762038D01*
X104539287Y-119658183D01*
X104741810Y-119491977D01*
X107615063Y-122365232D01*
G36*
X172084121Y-66581725D02*
G01*
X171991197Y-66643815D01*
X171535025Y-67215420D01*
X174625000Y-70305395D01*
X177714975Y-67215420D01*
X177258803Y-66643815D01*
X176458817Y-66203793D01*
X176399439Y-66185000D01*
X182766495Y-66185000D01*
X182860547Y-66194222D01*
X182918786Y-66211805D01*
X182972501Y-66240366D01*
X183019646Y-66278816D01*
X183058424Y-66325691D01*
X183087358Y-66379204D01*
X183105349Y-66437323D01*
X183115000Y-66529145D01*
X183115001Y-68033647D01*
X183117887Y-68062945D01*
X183117844Y-68069066D01*
X183118777Y-68078585D01*
X183139178Y-68272682D01*
X183151661Y-68333496D01*
X183163295Y-68394481D01*
X183166059Y-68403637D01*
X183223771Y-68590075D01*
X183247818Y-68647279D01*
X183271087Y-68704873D01*
X183275577Y-68713317D01*
X183368402Y-68884994D01*
X183403122Y-68936468D01*
X183437117Y-68988418D01*
X183443161Y-68995829D01*
X183567565Y-69146207D01*
X183611638Y-69189973D01*
X183655057Y-69234311D01*
X183662426Y-69240408D01*
X183813668Y-69363758D01*
X183865397Y-69398126D01*
X183916608Y-69433191D01*
X183925016Y-69437737D01*
X183925020Y-69437740D01*
X183925024Y-69437742D01*
X184097343Y-69529366D01*
X184154739Y-69553022D01*
X184211807Y-69577482D01*
X184220944Y-69580310D01*
X184407780Y-69636719D01*
X184468690Y-69648780D01*
X184529409Y-69661686D01*
X184538921Y-69662686D01*
X184733155Y-69681731D01*
X184733163Y-69681731D01*
X184766353Y-69685000D01*
X193666495Y-69685000D01*
X193760547Y-69694222D01*
X193818786Y-69711805D01*
X193872501Y-69740366D01*
X193919646Y-69778816D01*
X193958424Y-69825691D01*
X193987358Y-69879204D01*
X194005349Y-69937323D01*
X194015000Y-70029145D01*
X194015000Y-71002630D01*
X190175750Y-71005700D01*
X190017000Y-71164450D01*
X190017000Y-72466200D01*
X190037000Y-72466200D01*
X190037000Y-72720200D01*
X190017000Y-72720200D01*
X190017000Y-74021950D01*
X190175750Y-74180700D01*
X194015000Y-74183770D01*
X194015000Y-74965030D01*
X190175750Y-74968100D01*
X190017000Y-75126850D01*
X190017000Y-76428600D01*
X190037000Y-76428600D01*
X190037000Y-76682600D01*
X190017000Y-76682600D01*
X190017000Y-77984350D01*
X190175750Y-78143100D01*
X194015001Y-78146170D01*
X194015001Y-78929970D01*
X190175750Y-78933040D01*
X190017000Y-79091790D01*
X190017000Y-80393540D01*
X190037000Y-80393540D01*
X190037000Y-80647540D01*
X190017000Y-80647540D01*
X190017000Y-80667540D01*
X189763000Y-80667540D01*
X189763000Y-80647540D01*
X185286250Y-80647540D01*
X185127500Y-80806290D01*
X185126473Y-81029249D01*
X185067017Y-81041453D01*
X185006058Y-81053082D01*
X184996902Y-81055846D01*
X184903683Y-81084702D01*
X184846434Y-81108768D01*
X184788881Y-81132021D01*
X184780436Y-81136511D01*
X184694598Y-81182923D01*
X184643115Y-81217650D01*
X184591179Y-81251636D01*
X184583767Y-81257680D01*
X184508579Y-81319882D01*
X184464818Y-81363949D01*
X184420478Y-81407370D01*
X184414381Y-81414739D01*
X184352706Y-81490360D01*
X184318368Y-81542041D01*
X184283267Y-81593306D01*
X184278718Y-81601719D01*
X184232906Y-81687880D01*
X184209242Y-81745296D01*
X184184792Y-81802339D01*
X184181964Y-81811475D01*
X184153759Y-81904893D01*
X184141698Y-81965805D01*
X184128791Y-82026529D01*
X184127791Y-82036041D01*
X184118269Y-82133159D01*
X184115000Y-82166353D01*
X184115000Y-82833646D01*
X184117852Y-82862600D01*
X184117831Y-82865573D01*
X184118764Y-82875092D01*
X184123824Y-82923233D01*
X184124912Y-82934282D01*
X184125024Y-82934650D01*
X184128964Y-82972140D01*
X184141455Y-83032990D01*
X184153082Y-83093942D01*
X184155845Y-83103096D01*
X184155847Y-83103102D01*
X184184702Y-83196317D01*
X184208754Y-83253533D01*
X184232020Y-83311119D01*
X184236510Y-83319564D01*
X184282923Y-83405401D01*
X184317638Y-83456867D01*
X184351636Y-83508821D01*
X184357680Y-83516232D01*
X184419882Y-83591421D01*
X184463930Y-83635162D01*
X184507369Y-83679522D01*
X184514739Y-83685618D01*
X184514744Y-83685623D01*
X184514750Y-83685627D01*
X184590360Y-83747294D01*
X184642041Y-83781632D01*
X184693306Y-83816733D01*
X184701719Y-83821282D01*
X184787880Y-83867094D01*
X184845296Y-83890758D01*
X184902339Y-83915208D01*
X184911475Y-83918036D01*
X185004893Y-83946241D01*
X185065813Y-83958303D01*
X185126470Y-83971196D01*
X185127500Y-84194650D01*
X185286250Y-84353400D01*
X189763000Y-84353400D01*
X189763000Y-84333400D01*
X190017000Y-84333400D01*
X190017000Y-84353400D01*
X190037000Y-84353400D01*
X190037000Y-84607400D01*
X190017000Y-84607400D01*
X190017000Y-85909150D01*
X190175750Y-86067900D01*
X194015000Y-86070970D01*
X194015000Y-86852230D01*
X190175750Y-86855300D01*
X190017000Y-87014050D01*
X190017000Y-88315800D01*
X190037000Y-88315800D01*
X190037000Y-88569800D01*
X190017000Y-88569800D01*
X190017000Y-89871550D01*
X190175750Y-90030300D01*
X194015000Y-90033370D01*
X194015000Y-90814630D01*
X190175750Y-90817700D01*
X190017000Y-90976450D01*
X190017000Y-92278200D01*
X190037000Y-92278200D01*
X190037000Y-92532200D01*
X190017000Y-92532200D01*
X190017000Y-93833950D01*
X190175750Y-93992700D01*
X194015000Y-93995770D01*
X194015000Y-94777030D01*
X190175750Y-94780100D01*
X190017000Y-94938850D01*
X190017000Y-96240600D01*
X190037000Y-96240600D01*
X190037000Y-96494600D01*
X190017000Y-96494600D01*
X190017000Y-97796350D01*
X190175750Y-97955100D01*
X194015001Y-97958170D01*
X194015001Y-98739430D01*
X190175750Y-98742500D01*
X190017000Y-98901250D01*
X190017000Y-100203000D01*
X190037000Y-100203000D01*
X190037000Y-100457000D01*
X190017000Y-100457000D01*
X190017000Y-101758750D01*
X190175750Y-101917500D01*
X194015001Y-101920570D01*
X194015001Y-102701828D01*
X189690796Y-102701828D01*
X189360200Y-102371233D01*
X189360200Y-102360237D01*
X189318504Y-102150617D01*
X189236715Y-101953160D01*
X189213097Y-101917813D01*
X189604250Y-101917500D01*
X189763000Y-101758750D01*
X189763000Y-100457000D01*
X185286250Y-100457000D01*
X185127500Y-100615750D01*
X185124428Y-101282500D01*
X185136688Y-101406982D01*
X185172998Y-101526680D01*
X185231963Y-101636994D01*
X185311315Y-101733685D01*
X185408006Y-101813037D01*
X185518320Y-101872002D01*
X185638018Y-101908312D01*
X185762500Y-101920572D01*
X187336300Y-101919314D01*
X187313685Y-101953160D01*
X187231896Y-102150617D01*
X187190200Y-102360237D01*
X187190200Y-102573963D01*
X187215634Y-102701828D01*
X185762500Y-102701828D01*
X185638018Y-102714088D01*
X185518320Y-102750398D01*
X185408006Y-102809363D01*
X185311315Y-102888715D01*
X185231963Y-102985406D01*
X185172998Y-103095720D01*
X185136688Y-103215418D01*
X185124428Y-103339900D01*
X185124428Y-105244900D01*
X185130672Y-105308300D01*
X184974537Y-105308300D01*
X184764917Y-105349996D01*
X184567460Y-105431785D01*
X184389753Y-105550525D01*
X184238625Y-105701653D01*
X184119885Y-105879360D01*
X184038096Y-106076817D01*
X183996400Y-106286437D01*
X183996400Y-106500163D01*
X184038096Y-106709783D01*
X184119885Y-106907240D01*
X184238625Y-107084947D01*
X184389753Y-107236075D01*
X184527201Y-107327915D01*
X184527200Y-108213781D01*
X184523160Y-108254800D01*
X184539282Y-108418489D01*
X184587028Y-108575887D01*
X184664564Y-108720946D01*
X184765869Y-108844387D01*
X184694598Y-108882923D01*
X184643115Y-108917650D01*
X184591179Y-108951636D01*
X184583767Y-108957680D01*
X184508579Y-109019882D01*
X184464818Y-109063949D01*
X184420478Y-109107370D01*
X184414381Y-109114739D01*
X184352706Y-109190360D01*
X184318368Y-109242041D01*
X184283267Y-109293306D01*
X184278718Y-109301719D01*
X184232906Y-109387880D01*
X184209242Y-109445296D01*
X184184792Y-109502339D01*
X184181964Y-109511475D01*
X184153759Y-109604893D01*
X184141698Y-109665805D01*
X184128791Y-109726529D01*
X184127791Y-109736041D01*
X184118274Y-109833112D01*
X184115000Y-109866354D01*
X184115000Y-110533647D01*
X184117852Y-110562601D01*
X184117831Y-110565573D01*
X184118764Y-110575092D01*
X184123822Y-110623218D01*
X184124912Y-110634283D01*
X184125024Y-110634652D01*
X184128964Y-110672140D01*
X184141455Y-110732990D01*
X184153082Y-110793942D01*
X184155845Y-110803096D01*
X184155847Y-110803102D01*
X184184702Y-110896317D01*
X184208754Y-110953533D01*
X184232020Y-111011119D01*
X184236510Y-111019564D01*
X184282923Y-111105401D01*
X184317638Y-111156867D01*
X184351636Y-111208821D01*
X184357680Y-111216232D01*
X184419882Y-111291421D01*
X184463930Y-111335162D01*
X184507369Y-111379522D01*
X184510607Y-111382200D01*
X184366668Y-111382200D01*
X181665000Y-108680533D01*
X181665000Y-108669537D01*
X181623304Y-108459917D01*
X181541515Y-108262460D01*
X181422775Y-108084753D01*
X181271647Y-107933625D01*
X181093940Y-107814885D01*
X180896483Y-107733096D01*
X180686863Y-107691400D01*
X180473137Y-107691400D01*
X180263517Y-107733096D01*
X180066060Y-107814885D01*
X179888353Y-107933625D01*
X179737225Y-108084753D01*
X179618485Y-108262460D01*
X179536696Y-108459917D01*
X179495000Y-108669537D01*
X179495000Y-108883263D01*
X179536696Y-109092883D01*
X179618485Y-109290340D01*
X179737225Y-109468047D01*
X179888353Y-109619175D01*
X180066060Y-109737915D01*
X180263517Y-109819704D01*
X180473137Y-109861400D01*
X180484133Y-109861400D01*
X183401359Y-112778627D01*
X183427509Y-112810491D01*
X183510120Y-112878288D01*
X183554654Y-112914836D01*
X183699713Y-112992372D01*
X183857111Y-113040118D01*
X184020799Y-113056240D01*
X184061818Y-113052200D01*
X185124428Y-113052200D01*
X185124428Y-113169700D01*
X185136688Y-113294182D01*
X185172998Y-113413880D01*
X185231963Y-113524194D01*
X185311315Y-113620885D01*
X185408006Y-113700237D01*
X185518320Y-113759202D01*
X185638018Y-113795512D01*
X185762500Y-113807772D01*
X194015000Y-113807772D01*
X194015000Y-114589028D01*
X185762500Y-114589028D01*
X185638018Y-114601288D01*
X185518320Y-114637598D01*
X185408006Y-114696563D01*
X185311315Y-114775915D01*
X185231963Y-114872606D01*
X185172998Y-114982920D01*
X185136688Y-115102618D01*
X185124428Y-115227100D01*
X185124428Y-115379155D01*
X185097458Y-115387336D01*
X185041113Y-115404428D01*
X184896054Y-115481964D01*
X184804832Y-115556828D01*
X184768909Y-115586309D01*
X184742763Y-115618168D01*
X178657633Y-121703300D01*
X177456629Y-121703300D01*
X177714975Y-121379580D01*
X174625000Y-118289605D01*
X174610858Y-118303748D01*
X174431253Y-118124143D01*
X174445395Y-118110000D01*
X174804605Y-118110000D01*
X177894580Y-121199975D01*
X178466185Y-120743803D01*
X178906207Y-119943817D01*
X179181704Y-119073359D01*
X179282091Y-118165879D01*
X179203508Y-117256252D01*
X178948975Y-116379434D01*
X178528275Y-115569121D01*
X178466185Y-115476197D01*
X177894580Y-115020025D01*
X174804605Y-118110000D01*
X174445395Y-118110000D01*
X171355420Y-115020025D01*
X171056700Y-115258420D01*
X171056700Y-114840420D01*
X171535025Y-114840420D01*
X174625000Y-117930395D01*
X177714975Y-114840420D01*
X177258803Y-114268815D01*
X176458817Y-113828793D01*
X175588359Y-113553296D01*
X174680879Y-113452909D01*
X173771252Y-113531492D01*
X172894434Y-113786025D01*
X172084121Y-114206725D01*
X171991197Y-114268815D01*
X171535025Y-114840420D01*
X171056700Y-114840420D01*
X171056700Y-113060467D01*
X173916427Y-110200741D01*
X173948291Y-110174591D01*
X174052636Y-110047446D01*
X174130172Y-109902387D01*
X174177918Y-109744989D01*
X174190000Y-109622319D01*
X174190000Y-109622309D01*
X174194039Y-109581301D01*
X174192415Y-109564812D01*
X174410134Y-109386134D01*
X174434607Y-109356313D01*
X174455498Y-109425180D01*
X174514463Y-109535494D01*
X174593815Y-109632185D01*
X174690506Y-109711537D01*
X174800820Y-109770502D01*
X174920518Y-109806812D01*
X175045000Y-109819072D01*
X176745000Y-109819072D01*
X176869482Y-109806812D01*
X176989180Y-109770502D01*
X177099494Y-109711537D01*
X177196185Y-109632185D01*
X177275537Y-109535494D01*
X177334502Y-109425180D01*
X177370812Y-109305482D01*
X177383072Y-109181000D01*
X177383072Y-107481000D01*
X177370812Y-107356518D01*
X177334502Y-107236820D01*
X177275537Y-107126506D01*
X177196185Y-107029815D01*
X177099494Y-106950463D01*
X176989180Y-106891498D01*
X176920313Y-106870607D01*
X176950134Y-106846134D01*
X177135706Y-106620014D01*
X177273599Y-106362034D01*
X177358513Y-106082111D01*
X177387185Y-105791000D01*
X177358513Y-105499889D01*
X177273599Y-105219966D01*
X177135706Y-104961986D01*
X176950134Y-104735866D01*
X176724014Y-104550294D01*
X176669209Y-104521000D01*
X176724014Y-104491706D01*
X176950134Y-104306134D01*
X177135706Y-104080014D01*
X177273599Y-103822034D01*
X177358513Y-103542111D01*
X177387185Y-103251000D01*
X177358513Y-102959889D01*
X177273599Y-102679966D01*
X177135706Y-102421986D01*
X176950134Y-102195866D01*
X176724014Y-102010294D01*
X176669209Y-101981000D01*
X176724014Y-101951706D01*
X176950134Y-101766134D01*
X177135706Y-101540014D01*
X177273599Y-101282034D01*
X177358513Y-101002111D01*
X177387185Y-100711000D01*
X177358513Y-100419889D01*
X177273599Y-100139966D01*
X177135706Y-99881986D01*
X176950134Y-99655866D01*
X176724014Y-99470294D01*
X176669209Y-99441000D01*
X176724014Y-99411706D01*
X176765694Y-99377500D01*
X185124428Y-99377500D01*
X185127500Y-100044250D01*
X185286250Y-100203000D01*
X189763000Y-100203000D01*
X189763000Y-98901250D01*
X189604250Y-98742500D01*
X185762500Y-98739428D01*
X185638018Y-98751688D01*
X185518320Y-98787998D01*
X185408006Y-98846963D01*
X185311315Y-98926315D01*
X185231963Y-99023006D01*
X185172998Y-99133320D01*
X185136688Y-99253018D01*
X185124428Y-99377500D01*
X176765694Y-99377500D01*
X176950134Y-99226134D01*
X177135706Y-99000014D01*
X177273599Y-98742034D01*
X177358513Y-98462111D01*
X177387185Y-98171000D01*
X177358513Y-97879889D01*
X177273599Y-97599966D01*
X177135706Y-97341986D01*
X177117745Y-97320100D01*
X185124428Y-97320100D01*
X185136688Y-97444582D01*
X185172998Y-97564280D01*
X185231963Y-97674594D01*
X185311315Y-97771285D01*
X185408006Y-97850637D01*
X185518320Y-97909602D01*
X185638018Y-97945912D01*
X185762500Y-97958172D01*
X189604250Y-97955100D01*
X189763000Y-97796350D01*
X189763000Y-96494600D01*
X185286250Y-96494600D01*
X185127500Y-96653350D01*
X185124428Y-97320100D01*
X177117745Y-97320100D01*
X176950134Y-97115866D01*
X176724014Y-96930294D01*
X176669209Y-96901000D01*
X176724014Y-96871706D01*
X176950134Y-96686134D01*
X177135706Y-96460014D01*
X177273599Y-96202034D01*
X177358513Y-95922111D01*
X177387185Y-95631000D01*
X177365921Y-95415100D01*
X185124428Y-95415100D01*
X185127500Y-96081850D01*
X185286250Y-96240600D01*
X189763000Y-96240600D01*
X189763000Y-94938850D01*
X189604250Y-94780100D01*
X185762500Y-94777028D01*
X185638018Y-94789288D01*
X185518320Y-94825598D01*
X185408006Y-94884563D01*
X185311315Y-94963915D01*
X185231963Y-95060606D01*
X185172998Y-95170920D01*
X185136688Y-95290618D01*
X185124428Y-95415100D01*
X177365921Y-95415100D01*
X177358513Y-95339889D01*
X177273599Y-95059966D01*
X177135706Y-94801986D01*
X176950134Y-94575866D01*
X176724014Y-94390294D01*
X176669209Y-94361000D01*
X176724014Y-94331706D01*
X176950134Y-94146134D01*
X177135706Y-93920014D01*
X177273599Y-93662034D01*
X177358513Y-93382111D01*
X177360917Y-93357700D01*
X185124428Y-93357700D01*
X185136688Y-93482182D01*
X185172998Y-93601880D01*
X185231963Y-93712194D01*
X185311315Y-93808885D01*
X185408006Y-93888237D01*
X185518320Y-93947202D01*
X185638018Y-93983512D01*
X185762500Y-93995772D01*
X189604250Y-93992700D01*
X189763000Y-93833950D01*
X189763000Y-92532200D01*
X185286250Y-92532200D01*
X185127500Y-92690950D01*
X185124428Y-93357700D01*
X177360917Y-93357700D01*
X177387185Y-93091000D01*
X177358513Y-92799889D01*
X177273599Y-92519966D01*
X177135706Y-92261986D01*
X176950134Y-92035866D01*
X176724014Y-91850294D01*
X176669209Y-91821000D01*
X176724014Y-91791706D01*
X176950134Y-91606134D01*
X177076054Y-91452700D01*
X185124428Y-91452700D01*
X185127500Y-92119450D01*
X185286250Y-92278200D01*
X189763000Y-92278200D01*
X189763000Y-90976450D01*
X189604250Y-90817700D01*
X185762500Y-90814628D01*
X185638018Y-90826888D01*
X185518320Y-90863198D01*
X185408006Y-90922163D01*
X185311315Y-91001515D01*
X185231963Y-91098206D01*
X185172998Y-91208520D01*
X185136688Y-91328218D01*
X185124428Y-91452700D01*
X177076054Y-91452700D01*
X177135706Y-91380014D01*
X177273599Y-91122034D01*
X177358513Y-90842111D01*
X177387185Y-90551000D01*
X177358513Y-90259889D01*
X177273599Y-89979966D01*
X177135706Y-89721986D01*
X176950134Y-89495866D01*
X176827595Y-89395300D01*
X185124428Y-89395300D01*
X185136688Y-89519782D01*
X185172998Y-89639480D01*
X185231963Y-89749794D01*
X185311315Y-89846485D01*
X185408006Y-89925837D01*
X185518320Y-89984802D01*
X185638018Y-90021112D01*
X185762500Y-90033372D01*
X189604250Y-90030300D01*
X189763000Y-89871550D01*
X189763000Y-88569800D01*
X185286250Y-88569800D01*
X185127500Y-88728550D01*
X185124428Y-89395300D01*
X176827595Y-89395300D01*
X176728826Y-89314243D01*
X176730000Y-89302319D01*
X176734040Y-89261300D01*
X176732416Y-89244811D01*
X176950134Y-89066134D01*
X177135706Y-88840014D01*
X177273599Y-88582034D01*
X177358513Y-88302111D01*
X177387185Y-88011000D01*
X177358513Y-87719889D01*
X177288868Y-87490300D01*
X185124428Y-87490300D01*
X185127500Y-88157050D01*
X185286250Y-88315800D01*
X189763000Y-88315800D01*
X189763000Y-87014050D01*
X189604250Y-86855300D01*
X185762500Y-86852228D01*
X185638018Y-86864488D01*
X185518320Y-86900798D01*
X185408006Y-86959763D01*
X185311315Y-87039115D01*
X185231963Y-87135806D01*
X185172998Y-87246120D01*
X185136688Y-87365818D01*
X185124428Y-87490300D01*
X177288868Y-87490300D01*
X177273599Y-87439966D01*
X177135706Y-87181986D01*
X176950134Y-86955866D01*
X176724014Y-86770294D01*
X176669209Y-86741000D01*
X176724014Y-86711706D01*
X176950134Y-86526134D01*
X177135706Y-86300014D01*
X177273599Y-86042034D01*
X177358513Y-85762111D01*
X177387185Y-85471000D01*
X177383433Y-85432900D01*
X185124428Y-85432900D01*
X185136688Y-85557382D01*
X185172998Y-85677080D01*
X185231963Y-85787394D01*
X185311315Y-85884085D01*
X185408006Y-85963437D01*
X185518320Y-86022402D01*
X185638018Y-86058712D01*
X185762500Y-86070972D01*
X189604250Y-86067900D01*
X189763000Y-85909150D01*
X189763000Y-84607400D01*
X185286250Y-84607400D01*
X185127500Y-84766150D01*
X185124428Y-85432900D01*
X177383433Y-85432900D01*
X177358513Y-85179889D01*
X177273599Y-84899966D01*
X177135706Y-84641986D01*
X176950134Y-84415866D01*
X176732416Y-84237189D01*
X176734040Y-84220700D01*
X176728826Y-84167757D01*
X176950134Y-83986134D01*
X177135706Y-83760014D01*
X177273599Y-83502034D01*
X177358513Y-83222111D01*
X177387185Y-82931000D01*
X177358513Y-82639889D01*
X177273599Y-82359966D01*
X177135706Y-82101986D01*
X176950134Y-81875866D01*
X176724014Y-81690294D01*
X176659477Y-81655799D01*
X176776355Y-81586178D01*
X176992588Y-81391269D01*
X177166641Y-81157920D01*
X177291825Y-80895099D01*
X177336476Y-80747890D01*
X177215155Y-80518000D01*
X176022000Y-80518000D01*
X176022000Y-80538000D01*
X175768000Y-80538000D01*
X175768000Y-80518000D01*
X175748000Y-80518000D01*
X175748000Y-80264000D01*
X175768000Y-80264000D01*
X175768000Y-79070186D01*
X176022000Y-79070186D01*
X176022000Y-80264000D01*
X177215155Y-80264000D01*
X177336476Y-80034110D01*
X177291825Y-79886901D01*
X177166641Y-79624080D01*
X177124842Y-79568040D01*
X185124428Y-79568040D01*
X185127500Y-80234790D01*
X185286250Y-80393540D01*
X189763000Y-80393540D01*
X189763000Y-79091790D01*
X189604250Y-78933040D01*
X185762500Y-78929968D01*
X185638018Y-78942228D01*
X185518320Y-78978538D01*
X185408006Y-79037503D01*
X185311315Y-79116855D01*
X185231963Y-79213546D01*
X185172998Y-79323860D01*
X185136688Y-79443558D01*
X185124428Y-79568040D01*
X177124842Y-79568040D01*
X176992588Y-79390731D01*
X176776355Y-79195822D01*
X176526252Y-79046843D01*
X176251891Y-78949519D01*
X176022000Y-79070186D01*
X175768000Y-79070186D01*
X175538109Y-78949519D01*
X175263748Y-79046843D01*
X175120337Y-79132269D01*
X174512746Y-78524678D01*
X174486591Y-78492809D01*
X174359446Y-78388464D01*
X174214387Y-78310928D01*
X174056989Y-78263182D01*
X173934319Y-78251100D01*
X173934318Y-78251100D01*
X173893300Y-78247060D01*
X173852282Y-78251100D01*
X172896207Y-78251100D01*
X172855199Y-78247061D01*
X172814191Y-78251100D01*
X172814181Y-78251100D01*
X172691511Y-78263182D01*
X172534113Y-78310928D01*
X172389054Y-78388464D01*
X172261909Y-78492809D01*
X172235758Y-78524674D01*
X171224774Y-79535659D01*
X171192910Y-79561809D01*
X171137424Y-79629419D01*
X171088564Y-79688955D01*
X171011028Y-79834014D01*
X170963282Y-79991412D01*
X170947160Y-80155100D01*
X170951201Y-80196128D01*
X170951200Y-81179332D01*
X165841672Y-86288860D01*
X165798932Y-86208899D01*
X165619608Y-85990392D01*
X165401101Y-85811068D01*
X165268142Y-85740000D01*
X165401101Y-85668932D01*
X165619608Y-85489608D01*
X165798932Y-85271101D01*
X165932182Y-85021808D01*
X166014236Y-84751309D01*
X166041943Y-84470000D01*
X166014236Y-84188691D01*
X165932182Y-83918192D01*
X165798932Y-83668899D01*
X165619608Y-83450392D01*
X165401101Y-83271068D01*
X165268142Y-83200000D01*
X165401101Y-83128932D01*
X165619608Y-82949608D01*
X165798932Y-82731101D01*
X165932182Y-82481808D01*
X166014236Y-82211309D01*
X166041943Y-81930000D01*
X166014236Y-81648691D01*
X165932182Y-81378192D01*
X165798932Y-81128899D01*
X165619608Y-80910392D01*
X165401101Y-80731068D01*
X165268142Y-80660000D01*
X165401101Y-80588932D01*
X165619608Y-80409608D01*
X165798932Y-80191101D01*
X165932182Y-79941808D01*
X166014236Y-79671309D01*
X166041943Y-79390000D01*
X166014236Y-79108691D01*
X165932182Y-78838192D01*
X165798932Y-78588899D01*
X165619608Y-78370392D01*
X165506518Y-78277581D01*
X165524482Y-78275812D01*
X165644180Y-78239502D01*
X165754494Y-78180537D01*
X165851185Y-78101185D01*
X165930537Y-78004494D01*
X165989502Y-77894180D01*
X166025812Y-77774482D01*
X166038072Y-77650000D01*
X166038072Y-77508100D01*
X185124428Y-77508100D01*
X185136688Y-77632582D01*
X185172998Y-77752280D01*
X185231963Y-77862594D01*
X185311315Y-77959285D01*
X185408006Y-78038637D01*
X185518320Y-78097602D01*
X185638018Y-78133912D01*
X185762500Y-78146172D01*
X189604250Y-78143100D01*
X189763000Y-77984350D01*
X189763000Y-76682600D01*
X185286250Y-76682600D01*
X185127500Y-76841350D01*
X185124428Y-77508100D01*
X166038072Y-77508100D01*
X166038072Y-76050000D01*
X166025812Y-75925518D01*
X165989502Y-75805820D01*
X165930537Y-75695506D01*
X165854702Y-75603100D01*
X185124428Y-75603100D01*
X185127500Y-76269850D01*
X185286250Y-76428600D01*
X189763000Y-76428600D01*
X189763000Y-75126850D01*
X189604250Y-74968100D01*
X185762500Y-74965028D01*
X185638018Y-74977288D01*
X185518320Y-75013598D01*
X185408006Y-75072563D01*
X185311315Y-75151915D01*
X185231963Y-75248606D01*
X185172998Y-75358920D01*
X185136688Y-75478618D01*
X185124428Y-75603100D01*
X165854702Y-75603100D01*
X165851185Y-75598815D01*
X165754494Y-75519463D01*
X165644180Y-75460498D01*
X165639095Y-75458956D01*
X165640007Y-75449700D01*
X165632634Y-75374838D01*
X165620024Y-75246805D01*
X165574615Y-75097115D01*
X165560841Y-75051706D01*
X165464734Y-74871902D01*
X165367803Y-74753792D01*
X165335396Y-74714304D01*
X165295908Y-74681897D01*
X164410000Y-73795990D01*
X164410000Y-73754580D01*
X171535025Y-73754580D01*
X171991197Y-74326185D01*
X172791183Y-74766207D01*
X173661641Y-75041704D01*
X174569121Y-75142091D01*
X175478748Y-75063508D01*
X176355566Y-74808975D01*
X177165879Y-74388275D01*
X177258803Y-74326185D01*
X177714975Y-73754580D01*
X174625000Y-70664605D01*
X171535025Y-73754580D01*
X164410000Y-73754580D01*
X164410000Y-71119396D01*
X164411694Y-71117702D01*
X165061903Y-71117702D01*
X165133486Y-71361671D01*
X165388996Y-71482571D01*
X165663184Y-71551300D01*
X165945512Y-71565217D01*
X166225130Y-71523787D01*
X166491292Y-71428603D01*
X166616514Y-71361671D01*
X166688097Y-71117702D01*
X165875000Y-70304605D01*
X165061903Y-71117702D01*
X164411694Y-71117702D01*
X164489637Y-71039759D01*
X164623692Y-70839131D01*
X164638329Y-70866514D01*
X164882298Y-70938097D01*
X165695395Y-70125000D01*
X166054605Y-70125000D01*
X166867702Y-70938097D01*
X167111671Y-70866514D01*
X167232571Y-70611004D01*
X167278162Y-70429121D01*
X169967909Y-70429121D01*
X170046492Y-71338748D01*
X170301025Y-72215566D01*
X170721725Y-73025879D01*
X170783815Y-73118803D01*
X171355420Y-73574975D01*
X174445395Y-70485000D01*
X174804605Y-70485000D01*
X177894580Y-73574975D01*
X177931262Y-73545700D01*
X185124428Y-73545700D01*
X185136688Y-73670182D01*
X185172998Y-73789880D01*
X185231963Y-73900194D01*
X185311315Y-73996885D01*
X185408006Y-74076237D01*
X185518320Y-74135202D01*
X185638018Y-74171512D01*
X185762500Y-74183772D01*
X189604250Y-74180700D01*
X189763000Y-74021950D01*
X189763000Y-72720200D01*
X185286250Y-72720200D01*
X185127500Y-72878950D01*
X185124428Y-73545700D01*
X177931262Y-73545700D01*
X178466185Y-73118803D01*
X178906207Y-72318817D01*
X179120828Y-71640700D01*
X185124428Y-71640700D01*
X185127500Y-72307450D01*
X185286250Y-72466200D01*
X189763000Y-72466200D01*
X189763000Y-71164450D01*
X189604250Y-71005700D01*
X185762500Y-71002628D01*
X185638018Y-71014888D01*
X185518320Y-71051198D01*
X185408006Y-71110163D01*
X185311315Y-71189515D01*
X185231963Y-71286206D01*
X185172998Y-71396520D01*
X185136688Y-71516218D01*
X185124428Y-71640700D01*
X179120828Y-71640700D01*
X179181704Y-71448359D01*
X179282091Y-70540879D01*
X179203508Y-69631252D01*
X178948975Y-68754434D01*
X178528275Y-67944121D01*
X178466185Y-67851197D01*
X177894580Y-67395025D01*
X174804605Y-70485000D01*
X174445395Y-70485000D01*
X171355420Y-67395025D01*
X170783815Y-67851197D01*
X170343793Y-68651183D01*
X170068296Y-69521641D01*
X169967909Y-70429121D01*
X167278162Y-70429121D01*
X167301300Y-70336816D01*
X167315217Y-70054488D01*
X167273787Y-69774870D01*
X167178603Y-69508708D01*
X167111671Y-69383486D01*
X166867702Y-69311903D01*
X166054605Y-70125000D01*
X165695395Y-70125000D01*
X164882298Y-69311903D01*
X164638329Y-69383486D01*
X164624676Y-69412341D01*
X164489637Y-69210241D01*
X164411694Y-69132298D01*
X165061903Y-69132298D01*
X165875000Y-69945395D01*
X166688097Y-69132298D01*
X166616514Y-68888329D01*
X166361004Y-68767429D01*
X166086816Y-68698700D01*
X165804488Y-68684783D01*
X165524870Y-68726213D01*
X165258708Y-68821397D01*
X165133486Y-68888329D01*
X165061903Y-69132298D01*
X164411694Y-69132298D01*
X164289759Y-69010363D01*
X164054727Y-68853320D01*
X163793574Y-68745147D01*
X163516335Y-68690000D01*
X163233665Y-68690000D01*
X162956426Y-68745147D01*
X162695273Y-68853320D01*
X162460241Y-69010363D01*
X162260363Y-69210241D01*
X162103320Y-69445273D01*
X161995147Y-69706426D01*
X161940000Y-69983665D01*
X161940000Y-70266335D01*
X161995147Y-70543574D01*
X162103320Y-70804727D01*
X162260363Y-71039759D01*
X162340001Y-71119397D01*
X162340000Y-74173872D01*
X162334994Y-74224700D01*
X162340000Y-74275528D01*
X162340000Y-74275537D01*
X162354976Y-74427594D01*
X162414159Y-74622692D01*
X162510266Y-74802497D01*
X162639604Y-74960096D01*
X162679097Y-74992507D01*
X163320232Y-75633643D01*
X163269463Y-75695506D01*
X163210498Y-75805820D01*
X163174188Y-75925518D01*
X163161928Y-76050000D01*
X163161928Y-77650000D01*
X163174188Y-77774482D01*
X163210498Y-77894180D01*
X163269463Y-78004494D01*
X163348815Y-78101185D01*
X163445506Y-78180537D01*
X163555820Y-78239502D01*
X163675518Y-78275812D01*
X163693482Y-78277581D01*
X163580392Y-78370392D01*
X163559440Y-78395922D01*
X163435787Y-78329828D01*
X163278389Y-78282082D01*
X163155719Y-78270000D01*
X163155718Y-78270000D01*
X163114700Y-78265960D01*
X163073682Y-78270000D01*
X161522547Y-78270000D01*
X161600960Y-78011507D01*
X161627701Y-77740000D01*
X161600960Y-77468493D01*
X161521764Y-77207419D01*
X161393157Y-76966812D01*
X161220081Y-76755919D01*
X161009188Y-76582843D01*
X160798073Y-76470000D01*
X161009188Y-76357157D01*
X161220081Y-76184081D01*
X161393157Y-75973188D01*
X161521764Y-75732581D01*
X161600960Y-75471507D01*
X161627701Y-75200000D01*
X161600960Y-74928493D01*
X161521764Y-74667419D01*
X161393157Y-74426812D01*
X161220081Y-74215919D01*
X161009188Y-74042843D01*
X160798073Y-73930000D01*
X161009188Y-73817157D01*
X161220081Y-73644081D01*
X161393157Y-73433188D01*
X161521764Y-73192581D01*
X161600960Y-72931507D01*
X161627701Y-72660000D01*
X161600960Y-72388493D01*
X161521764Y-72127419D01*
X161393157Y-71886812D01*
X161220081Y-71675919D01*
X161009188Y-71502843D01*
X160798073Y-71390000D01*
X161009188Y-71277157D01*
X161220081Y-71104081D01*
X161393157Y-70893188D01*
X161521764Y-70652581D01*
X161600960Y-70391507D01*
X161627701Y-70120000D01*
X161600960Y-69848493D01*
X161521764Y-69587419D01*
X161393157Y-69346812D01*
X161220081Y-69135919D01*
X161009188Y-68962843D01*
X160768581Y-68834236D01*
X160507507Y-68755040D01*
X160304037Y-68735000D01*
X159467963Y-68735000D01*
X159264493Y-68755040D01*
X159003419Y-68834236D01*
X158762812Y-68962843D01*
X158551919Y-69135919D01*
X158378843Y-69346812D01*
X158250236Y-69587419D01*
X158171040Y-69848493D01*
X158144299Y-70120000D01*
X158169224Y-70373065D01*
X150802297Y-77739993D01*
X150762804Y-77772404D01*
X150633466Y-77930003D01*
X150537359Y-78109808D01*
X150478176Y-78304906D01*
X150463200Y-78456963D01*
X150463200Y-78456972D01*
X150458194Y-78507800D01*
X150463200Y-78558628D01*
X150463201Y-99580624D01*
X150461238Y-99582587D01*
X150315139Y-99801241D01*
X150214504Y-100044195D01*
X150163200Y-100302114D01*
X150163200Y-100565086D01*
X150214504Y-100823005D01*
X150315139Y-101065959D01*
X150461238Y-101284613D01*
X150647187Y-101470562D01*
X150865841Y-101616661D01*
X151012233Y-101677299D01*
X147611500Y-105078033D01*
X147611500Y-70292007D01*
X147615539Y-70250999D01*
X147611500Y-70209991D01*
X147611500Y-70209981D01*
X147599418Y-70087311D01*
X147551672Y-69929913D01*
X147474136Y-69784854D01*
X147369791Y-69657709D01*
X147337927Y-69631559D01*
X144724946Y-67018579D01*
X144698791Y-66986709D01*
X144571646Y-66882364D01*
X144426587Y-66804828D01*
X144269189Y-66757082D01*
X144146519Y-66745000D01*
X144146518Y-66745000D01*
X144105500Y-66740960D01*
X144064482Y-66745000D01*
X129835718Y-66745000D01*
X129794699Y-66740960D01*
X129753681Y-66745000D01*
X129631011Y-66757082D01*
X129473613Y-66804828D01*
X129328554Y-66882364D01*
X129201409Y-66986709D01*
X129175259Y-67018573D01*
X126131132Y-70062701D01*
X126137701Y-69996000D01*
X126110960Y-69724493D01*
X126031764Y-69463419D01*
X125903157Y-69222812D01*
X125730081Y-69011919D01*
X125519188Y-68838843D01*
X125278581Y-68710236D01*
X125017507Y-68631040D01*
X124994482Y-68628772D01*
X124910000Y-68544290D01*
X124910000Y-68044396D01*
X124989637Y-67964759D01*
X125146680Y-67729727D01*
X125254853Y-67468574D01*
X125310000Y-67191335D01*
X125310000Y-66908665D01*
X125254853Y-66631426D01*
X125146680Y-66370273D01*
X125022885Y-66185000D01*
X172848256Y-66185000D01*
X172084121Y-66581725D01*
X172084121Y-66581725D01*
G37*
X172084121Y-66581725D02*
X171991197Y-66643815D01*
X171535025Y-67215420D01*
X174625000Y-70305395D01*
X177714975Y-67215420D01*
X177258803Y-66643815D01*
X176458817Y-66203793D01*
X176399439Y-66185000D01*
X182766495Y-66185000D01*
X182860547Y-66194222D01*
X182918786Y-66211805D01*
X182972501Y-66240366D01*
X183019646Y-66278816D01*
X183058424Y-66325691D01*
X183087358Y-66379204D01*
X183105349Y-66437323D01*
X183115000Y-66529145D01*
X183115001Y-68033647D01*
X183117887Y-68062945D01*
X183117844Y-68069066D01*
X183118777Y-68078585D01*
X183139178Y-68272682D01*
X183151661Y-68333496D01*
X183163295Y-68394481D01*
X183166059Y-68403637D01*
X183223771Y-68590075D01*
X183247818Y-68647279D01*
X183271087Y-68704873D01*
X183275577Y-68713317D01*
X183368402Y-68884994D01*
X183403122Y-68936468D01*
X183437117Y-68988418D01*
X183443161Y-68995829D01*
X183567565Y-69146207D01*
X183611638Y-69189973D01*
X183655057Y-69234311D01*
X183662426Y-69240408D01*
X183813668Y-69363758D01*
X183865397Y-69398126D01*
X183916608Y-69433191D01*
X183925016Y-69437737D01*
X183925020Y-69437740D01*
X183925024Y-69437742D01*
X184097343Y-69529366D01*
X184154739Y-69553022D01*
X184211807Y-69577482D01*
X184220944Y-69580310D01*
X184407780Y-69636719D01*
X184468690Y-69648780D01*
X184529409Y-69661686D01*
X184538921Y-69662686D01*
X184733155Y-69681731D01*
X184733163Y-69681731D01*
X184766353Y-69685000D01*
X193666495Y-69685000D01*
X193760547Y-69694222D01*
X193818786Y-69711805D01*
X193872501Y-69740366D01*
X193919646Y-69778816D01*
X193958424Y-69825691D01*
X193987358Y-69879204D01*
X194005349Y-69937323D01*
X194015000Y-70029145D01*
X194015000Y-71002630D01*
X190175750Y-71005700D01*
X190017000Y-71164450D01*
X190017000Y-72466200D01*
X190037000Y-72466200D01*
X190037000Y-72720200D01*
X190017000Y-72720200D01*
X190017000Y-74021950D01*
X190175750Y-74180700D01*
X194015000Y-74183770D01*
X194015000Y-74965030D01*
X190175750Y-74968100D01*
X190017000Y-75126850D01*
X190017000Y-76428600D01*
X190037000Y-76428600D01*
X190037000Y-76682600D01*
X190017000Y-76682600D01*
X190017000Y-77984350D01*
X190175750Y-78143100D01*
X194015001Y-78146170D01*
X194015001Y-78929970D01*
X190175750Y-78933040D01*
X190017000Y-79091790D01*
X190017000Y-80393540D01*
X190037000Y-80393540D01*
X190037000Y-80647540D01*
X190017000Y-80647540D01*
X190017000Y-80667540D01*
X189763000Y-80667540D01*
X189763000Y-80647540D01*
X185286250Y-80647540D01*
X185127500Y-80806290D01*
X185126473Y-81029249D01*
X185067017Y-81041453D01*
X185006058Y-81053082D01*
X184996902Y-81055846D01*
X184903683Y-81084702D01*
X184846434Y-81108768D01*
X184788881Y-81132021D01*
X184780436Y-81136511D01*
X184694598Y-81182923D01*
X184643115Y-81217650D01*
X184591179Y-81251636D01*
X184583767Y-81257680D01*
X184508579Y-81319882D01*
X184464818Y-81363949D01*
X184420478Y-81407370D01*
X184414381Y-81414739D01*
X184352706Y-81490360D01*
X184318368Y-81542041D01*
X184283267Y-81593306D01*
X184278718Y-81601719D01*
X184232906Y-81687880D01*
X184209242Y-81745296D01*
X184184792Y-81802339D01*
X184181964Y-81811475D01*
X184153759Y-81904893D01*
X184141698Y-81965805D01*
X184128791Y-82026529D01*
X184127791Y-82036041D01*
X184118269Y-82133159D01*
X184115000Y-82166353D01*
X184115000Y-82833646D01*
X184117852Y-82862600D01*
X184117831Y-82865573D01*
X184118764Y-82875092D01*
X184123824Y-82923233D01*
X184124912Y-82934282D01*
X184125024Y-82934650D01*
X184128964Y-82972140D01*
X184141455Y-83032990D01*
X184153082Y-83093942D01*
X184155845Y-83103096D01*
X184155847Y-83103102D01*
X184184702Y-83196317D01*
X184208754Y-83253533D01*
X184232020Y-83311119D01*
X184236510Y-83319564D01*
X184282923Y-83405401D01*
X184317638Y-83456867D01*
X184351636Y-83508821D01*
X184357680Y-83516232D01*
X184419882Y-83591421D01*
X184463930Y-83635162D01*
X184507369Y-83679522D01*
X184514739Y-83685618D01*
X184514744Y-83685623D01*
X184514750Y-83685627D01*
X184590360Y-83747294D01*
X184642041Y-83781632D01*
X184693306Y-83816733D01*
X184701719Y-83821282D01*
X184787880Y-83867094D01*
X184845296Y-83890758D01*
X184902339Y-83915208D01*
X184911475Y-83918036D01*
X185004893Y-83946241D01*
X185065813Y-83958303D01*
X185126470Y-83971196D01*
X185127500Y-84194650D01*
X185286250Y-84353400D01*
X189763000Y-84353400D01*
X189763000Y-84333400D01*
X190017000Y-84333400D01*
X190017000Y-84353400D01*
X190037000Y-84353400D01*
X190037000Y-84607400D01*
X190017000Y-84607400D01*
X190017000Y-85909150D01*
X190175750Y-86067900D01*
X194015000Y-86070970D01*
X194015000Y-86852230D01*
X190175750Y-86855300D01*
X190017000Y-87014050D01*
X190017000Y-88315800D01*
X190037000Y-88315800D01*
X190037000Y-88569800D01*
X190017000Y-88569800D01*
X190017000Y-89871550D01*
X190175750Y-90030300D01*
X194015000Y-90033370D01*
X194015000Y-90814630D01*
X190175750Y-90817700D01*
X190017000Y-90976450D01*
X190017000Y-92278200D01*
X190037000Y-92278200D01*
X190037000Y-92532200D01*
X190017000Y-92532200D01*
X190017000Y-93833950D01*
X190175750Y-93992700D01*
X194015000Y-93995770D01*
X194015000Y-94777030D01*
X190175750Y-94780100D01*
X190017000Y-94938850D01*
X190017000Y-96240600D01*
X190037000Y-96240600D01*
X190037000Y-96494600D01*
X190017000Y-96494600D01*
X190017000Y-97796350D01*
X190175750Y-97955100D01*
X194015001Y-97958170D01*
X194015001Y-98739430D01*
X190175750Y-98742500D01*
X190017000Y-98901250D01*
X190017000Y-100203000D01*
X190037000Y-100203000D01*
X190037000Y-100457000D01*
X190017000Y-100457000D01*
X190017000Y-101758750D01*
X190175750Y-101917500D01*
X194015001Y-101920570D01*
X194015001Y-102701828D01*
X189690796Y-102701828D01*
X189360200Y-102371233D01*
X189360200Y-102360237D01*
X189318504Y-102150617D01*
X189236715Y-101953160D01*
X189213097Y-101917813D01*
X189604250Y-101917500D01*
X189763000Y-101758750D01*
X189763000Y-100457000D01*
X185286250Y-100457000D01*
X185127500Y-100615750D01*
X185124428Y-101282500D01*
X185136688Y-101406982D01*
X185172998Y-101526680D01*
X185231963Y-101636994D01*
X185311315Y-101733685D01*
X185408006Y-101813037D01*
X185518320Y-101872002D01*
X185638018Y-101908312D01*
X185762500Y-101920572D01*
X187336300Y-101919314D01*
X187313685Y-101953160D01*
X187231896Y-102150617D01*
X187190200Y-102360237D01*
X187190200Y-102573963D01*
X187215634Y-102701828D01*
X185762500Y-102701828D01*
X185638018Y-102714088D01*
X185518320Y-102750398D01*
X185408006Y-102809363D01*
X185311315Y-102888715D01*
X185231963Y-102985406D01*
X185172998Y-103095720D01*
X185136688Y-103215418D01*
X185124428Y-103339900D01*
X185124428Y-105244900D01*
X185130672Y-105308300D01*
X184974537Y-105308300D01*
X184764917Y-105349996D01*
X184567460Y-105431785D01*
X184389753Y-105550525D01*
X184238625Y-105701653D01*
X184119885Y-105879360D01*
X184038096Y-106076817D01*
X183996400Y-106286437D01*
X183996400Y-106500163D01*
X184038096Y-106709783D01*
X184119885Y-106907240D01*
X184238625Y-107084947D01*
X184389753Y-107236075D01*
X184527201Y-107327915D01*
X184527200Y-108213781D01*
X184523160Y-108254800D01*
X184539282Y-108418489D01*
X184587028Y-108575887D01*
X184664564Y-108720946D01*
X184765869Y-108844387D01*
X184694598Y-108882923D01*
X184643115Y-108917650D01*
X184591179Y-108951636D01*
X184583767Y-108957680D01*
X184508579Y-109019882D01*
X184464818Y-109063949D01*
X184420478Y-109107370D01*
X184414381Y-109114739D01*
X184352706Y-109190360D01*
X184318368Y-109242041D01*
X184283267Y-109293306D01*
X184278718Y-109301719D01*
X184232906Y-109387880D01*
X184209242Y-109445296D01*
X184184792Y-109502339D01*
X184181964Y-109511475D01*
X184153759Y-109604893D01*
X184141698Y-109665805D01*
X184128791Y-109726529D01*
X184127791Y-109736041D01*
X184118274Y-109833112D01*
X184115000Y-109866354D01*
X184115000Y-110533647D01*
X184117852Y-110562601D01*
X184117831Y-110565573D01*
X184118764Y-110575092D01*
X184123822Y-110623218D01*
X184124912Y-110634283D01*
X184125024Y-110634652D01*
X184128964Y-110672140D01*
X184141455Y-110732990D01*
X184153082Y-110793942D01*
X184155845Y-110803096D01*
X184155847Y-110803102D01*
X184184702Y-110896317D01*
X184208754Y-110953533D01*
X184232020Y-111011119D01*
X184236510Y-111019564D01*
X184282923Y-111105401D01*
X184317638Y-111156867D01*
X184351636Y-111208821D01*
X184357680Y-111216232D01*
X184419882Y-111291421D01*
X184463930Y-111335162D01*
X184507369Y-111379522D01*
X184510607Y-111382200D01*
X184366668Y-111382200D01*
X181665000Y-108680533D01*
X181665000Y-108669537D01*
X181623304Y-108459917D01*
X181541515Y-108262460D01*
X181422775Y-108084753D01*
X181271647Y-107933625D01*
X181093940Y-107814885D01*
X180896483Y-107733096D01*
X180686863Y-107691400D01*
X180473137Y-107691400D01*
X180263517Y-107733096D01*
X180066060Y-107814885D01*
X179888353Y-107933625D01*
X179737225Y-108084753D01*
X179618485Y-108262460D01*
X179536696Y-108459917D01*
X179495000Y-108669537D01*
X179495000Y-108883263D01*
X179536696Y-109092883D01*
X179618485Y-109290340D01*
X179737225Y-109468047D01*
X179888353Y-109619175D01*
X180066060Y-109737915D01*
X180263517Y-109819704D01*
X180473137Y-109861400D01*
X180484133Y-109861400D01*
X183401359Y-112778627D01*
X183427509Y-112810491D01*
X183510120Y-112878288D01*
X183554654Y-112914836D01*
X183699713Y-112992372D01*
X183857111Y-113040118D01*
X184020799Y-113056240D01*
X184061818Y-113052200D01*
X185124428Y-113052200D01*
X185124428Y-113169700D01*
X185136688Y-113294182D01*
X185172998Y-113413880D01*
X185231963Y-113524194D01*
X185311315Y-113620885D01*
X185408006Y-113700237D01*
X185518320Y-113759202D01*
X185638018Y-113795512D01*
X185762500Y-113807772D01*
X194015000Y-113807772D01*
X194015000Y-114589028D01*
X185762500Y-114589028D01*
X185638018Y-114601288D01*
X185518320Y-114637598D01*
X185408006Y-114696563D01*
X185311315Y-114775915D01*
X185231963Y-114872606D01*
X185172998Y-114982920D01*
X185136688Y-115102618D01*
X185124428Y-115227100D01*
X185124428Y-115379155D01*
X185097458Y-115387336D01*
X185041113Y-115404428D01*
X184896054Y-115481964D01*
X184804832Y-115556828D01*
X184768909Y-115586309D01*
X184742763Y-115618168D01*
X178657633Y-121703300D01*
X177456629Y-121703300D01*
X177714975Y-121379580D01*
X174625000Y-118289605D01*
X174610858Y-118303748D01*
X174431253Y-118124143D01*
X174445395Y-118110000D01*
X174804605Y-118110000D01*
X177894580Y-121199975D01*
X178466185Y-120743803D01*
X178906207Y-119943817D01*
X179181704Y-119073359D01*
X179282091Y-118165879D01*
X179203508Y-117256252D01*
X178948975Y-116379434D01*
X178528275Y-115569121D01*
X178466185Y-115476197D01*
X177894580Y-115020025D01*
X174804605Y-118110000D01*
X174445395Y-118110000D01*
X171355420Y-115020025D01*
X171056700Y-115258420D01*
X171056700Y-114840420D01*
X171535025Y-114840420D01*
X174625000Y-117930395D01*
X177714975Y-114840420D01*
X177258803Y-114268815D01*
X176458817Y-113828793D01*
X175588359Y-113553296D01*
X174680879Y-113452909D01*
X173771252Y-113531492D01*
X172894434Y-113786025D01*
X172084121Y-114206725D01*
X171991197Y-114268815D01*
X171535025Y-114840420D01*
X171056700Y-114840420D01*
X171056700Y-113060467D01*
X173916427Y-110200741D01*
X173948291Y-110174591D01*
X174052636Y-110047446D01*
X174130172Y-109902387D01*
X174177918Y-109744989D01*
X174190000Y-109622319D01*
X174190000Y-109622309D01*
X174194039Y-109581301D01*
X174192415Y-109564812D01*
X174410134Y-109386134D01*
X174434607Y-109356313D01*
X174455498Y-109425180D01*
X174514463Y-109535494D01*
X174593815Y-109632185D01*
X174690506Y-109711537D01*
X174800820Y-109770502D01*
X174920518Y-109806812D01*
X175045000Y-109819072D01*
X176745000Y-109819072D01*
X176869482Y-109806812D01*
X176989180Y-109770502D01*
X177099494Y-109711537D01*
X177196185Y-109632185D01*
X177275537Y-109535494D01*
X177334502Y-109425180D01*
X177370812Y-109305482D01*
X177383072Y-109181000D01*
X177383072Y-107481000D01*
X177370812Y-107356518D01*
X177334502Y-107236820D01*
X177275537Y-107126506D01*
X177196185Y-107029815D01*
X177099494Y-106950463D01*
X176989180Y-106891498D01*
X176920313Y-106870607D01*
X176950134Y-106846134D01*
X177135706Y-106620014D01*
X177273599Y-106362034D01*
X177358513Y-106082111D01*
X177387185Y-105791000D01*
X177358513Y-105499889D01*
X177273599Y-105219966D01*
X177135706Y-104961986D01*
X176950134Y-104735866D01*
X176724014Y-104550294D01*
X176669209Y-104521000D01*
X176724014Y-104491706D01*
X176950134Y-104306134D01*
X177135706Y-104080014D01*
X177273599Y-103822034D01*
X177358513Y-103542111D01*
X177387185Y-103251000D01*
X177358513Y-102959889D01*
X177273599Y-102679966D01*
X177135706Y-102421986D01*
X176950134Y-102195866D01*
X176724014Y-102010294D01*
X176669209Y-101981000D01*
X176724014Y-101951706D01*
X176950134Y-101766134D01*
X177135706Y-101540014D01*
X177273599Y-101282034D01*
X177358513Y-101002111D01*
X177387185Y-100711000D01*
X177358513Y-100419889D01*
X177273599Y-100139966D01*
X177135706Y-99881986D01*
X176950134Y-99655866D01*
X176724014Y-99470294D01*
X176669209Y-99441000D01*
X176724014Y-99411706D01*
X176765694Y-99377500D01*
X185124428Y-99377500D01*
X185127500Y-100044250D01*
X185286250Y-100203000D01*
X189763000Y-100203000D01*
X189763000Y-98901250D01*
X189604250Y-98742500D01*
X185762500Y-98739428D01*
X185638018Y-98751688D01*
X185518320Y-98787998D01*
X185408006Y-98846963D01*
X185311315Y-98926315D01*
X185231963Y-99023006D01*
X185172998Y-99133320D01*
X185136688Y-99253018D01*
X185124428Y-99377500D01*
X176765694Y-99377500D01*
X176950134Y-99226134D01*
X177135706Y-99000014D01*
X177273599Y-98742034D01*
X177358513Y-98462111D01*
X177387185Y-98171000D01*
X177358513Y-97879889D01*
X177273599Y-97599966D01*
X177135706Y-97341986D01*
X177117745Y-97320100D01*
X185124428Y-97320100D01*
X185136688Y-97444582D01*
X185172998Y-97564280D01*
X185231963Y-97674594D01*
X185311315Y-97771285D01*
X185408006Y-97850637D01*
X185518320Y-97909602D01*
X185638018Y-97945912D01*
X185762500Y-97958172D01*
X189604250Y-97955100D01*
X189763000Y-97796350D01*
X189763000Y-96494600D01*
X185286250Y-96494600D01*
X185127500Y-96653350D01*
X185124428Y-97320100D01*
X177117745Y-97320100D01*
X176950134Y-97115866D01*
X176724014Y-96930294D01*
X176669209Y-96901000D01*
X176724014Y-96871706D01*
X176950134Y-96686134D01*
X177135706Y-96460014D01*
X177273599Y-96202034D01*
X177358513Y-95922111D01*
X177387185Y-95631000D01*
X177365921Y-95415100D01*
X185124428Y-95415100D01*
X185127500Y-96081850D01*
X185286250Y-96240600D01*
X189763000Y-96240600D01*
X189763000Y-94938850D01*
X189604250Y-94780100D01*
X185762500Y-94777028D01*
X185638018Y-94789288D01*
X185518320Y-94825598D01*
X185408006Y-94884563D01*
X185311315Y-94963915D01*
X185231963Y-95060606D01*
X185172998Y-95170920D01*
X185136688Y-95290618D01*
X185124428Y-95415100D01*
X177365921Y-95415100D01*
X177358513Y-95339889D01*
X177273599Y-95059966D01*
X177135706Y-94801986D01*
X176950134Y-94575866D01*
X176724014Y-94390294D01*
X176669209Y-94361000D01*
X176724014Y-94331706D01*
X176950134Y-94146134D01*
X177135706Y-93920014D01*
X177273599Y-93662034D01*
X177358513Y-93382111D01*
X177360917Y-93357700D01*
X185124428Y-93357700D01*
X185136688Y-93482182D01*
X185172998Y-93601880D01*
X185231963Y-93712194D01*
X185311315Y-93808885D01*
X185408006Y-93888237D01*
X185518320Y-93947202D01*
X185638018Y-93983512D01*
X185762500Y-93995772D01*
X189604250Y-93992700D01*
X189763000Y-93833950D01*
X189763000Y-92532200D01*
X185286250Y-92532200D01*
X185127500Y-92690950D01*
X185124428Y-93357700D01*
X177360917Y-93357700D01*
X177387185Y-93091000D01*
X177358513Y-92799889D01*
X177273599Y-92519966D01*
X177135706Y-92261986D01*
X176950134Y-92035866D01*
X176724014Y-91850294D01*
X176669209Y-91821000D01*
X176724014Y-91791706D01*
X176950134Y-91606134D01*
X177076054Y-91452700D01*
X185124428Y-91452700D01*
X185127500Y-92119450D01*
X185286250Y-92278200D01*
X189763000Y-92278200D01*
X189763000Y-90976450D01*
X189604250Y-90817700D01*
X185762500Y-90814628D01*
X185638018Y-90826888D01*
X185518320Y-90863198D01*
X185408006Y-90922163D01*
X185311315Y-91001515D01*
X185231963Y-91098206D01*
X185172998Y-91208520D01*
X185136688Y-91328218D01*
X185124428Y-91452700D01*
X177076054Y-91452700D01*
X177135706Y-91380014D01*
X177273599Y-91122034D01*
X177358513Y-90842111D01*
X177387185Y-90551000D01*
X177358513Y-90259889D01*
X177273599Y-89979966D01*
X177135706Y-89721986D01*
X176950134Y-89495866D01*
X176827595Y-89395300D01*
X185124428Y-89395300D01*
X185136688Y-89519782D01*
X185172998Y-89639480D01*
X185231963Y-89749794D01*
X185311315Y-89846485D01*
X185408006Y-89925837D01*
X185518320Y-89984802D01*
X185638018Y-90021112D01*
X185762500Y-90033372D01*
X189604250Y-90030300D01*
X189763000Y-89871550D01*
X189763000Y-88569800D01*
X185286250Y-88569800D01*
X185127500Y-88728550D01*
X185124428Y-89395300D01*
X176827595Y-89395300D01*
X176728826Y-89314243D01*
X176730000Y-89302319D01*
X176734040Y-89261300D01*
X176732416Y-89244811D01*
X176950134Y-89066134D01*
X177135706Y-88840014D01*
X177273599Y-88582034D01*
X177358513Y-88302111D01*
X177387185Y-88011000D01*
X177358513Y-87719889D01*
X177288868Y-87490300D01*
X185124428Y-87490300D01*
X185127500Y-88157050D01*
X185286250Y-88315800D01*
X189763000Y-88315800D01*
X189763000Y-87014050D01*
X189604250Y-86855300D01*
X185762500Y-86852228D01*
X185638018Y-86864488D01*
X185518320Y-86900798D01*
X185408006Y-86959763D01*
X185311315Y-87039115D01*
X185231963Y-87135806D01*
X185172998Y-87246120D01*
X185136688Y-87365818D01*
X185124428Y-87490300D01*
X177288868Y-87490300D01*
X177273599Y-87439966D01*
X177135706Y-87181986D01*
X176950134Y-86955866D01*
X176724014Y-86770294D01*
X176669209Y-86741000D01*
X176724014Y-86711706D01*
X176950134Y-86526134D01*
X177135706Y-86300014D01*
X177273599Y-86042034D01*
X177358513Y-85762111D01*
X177387185Y-85471000D01*
X177383433Y-85432900D01*
X185124428Y-85432900D01*
X185136688Y-85557382D01*
X185172998Y-85677080D01*
X185231963Y-85787394D01*
X185311315Y-85884085D01*
X185408006Y-85963437D01*
X185518320Y-86022402D01*
X185638018Y-86058712D01*
X185762500Y-86070972D01*
X189604250Y-86067900D01*
X189763000Y-85909150D01*
X189763000Y-84607400D01*
X185286250Y-84607400D01*
X185127500Y-84766150D01*
X185124428Y-85432900D01*
X177383433Y-85432900D01*
X177358513Y-85179889D01*
X177273599Y-84899966D01*
X177135706Y-84641986D01*
X176950134Y-84415866D01*
X176732416Y-84237189D01*
X176734040Y-84220700D01*
X176728826Y-84167757D01*
X176950134Y-83986134D01*
X177135706Y-83760014D01*
X177273599Y-83502034D01*
X177358513Y-83222111D01*
X177387185Y-82931000D01*
X177358513Y-82639889D01*
X177273599Y-82359966D01*
X177135706Y-82101986D01*
X176950134Y-81875866D01*
X176724014Y-81690294D01*
X176659477Y-81655799D01*
X176776355Y-81586178D01*
X176992588Y-81391269D01*
X177166641Y-81157920D01*
X177291825Y-80895099D01*
X177336476Y-80747890D01*
X177215155Y-80518000D01*
X176022000Y-80518000D01*
X176022000Y-80538000D01*
X175768000Y-80538000D01*
X175768000Y-80518000D01*
X175748000Y-80518000D01*
X175748000Y-80264000D01*
X175768000Y-80264000D01*
X175768000Y-79070186D01*
X176022000Y-79070186D01*
X176022000Y-80264000D01*
X177215155Y-80264000D01*
X177336476Y-80034110D01*
X177291825Y-79886901D01*
X177166641Y-79624080D01*
X177124842Y-79568040D01*
X185124428Y-79568040D01*
X185127500Y-80234790D01*
X185286250Y-80393540D01*
X189763000Y-80393540D01*
X189763000Y-79091790D01*
X189604250Y-78933040D01*
X185762500Y-78929968D01*
X185638018Y-78942228D01*
X185518320Y-78978538D01*
X185408006Y-79037503D01*
X185311315Y-79116855D01*
X185231963Y-79213546D01*
X185172998Y-79323860D01*
X185136688Y-79443558D01*
X185124428Y-79568040D01*
X177124842Y-79568040D01*
X176992588Y-79390731D01*
X176776355Y-79195822D01*
X176526252Y-79046843D01*
X176251891Y-78949519D01*
X176022000Y-79070186D01*
X175768000Y-79070186D01*
X175538109Y-78949519D01*
X175263748Y-79046843D01*
X175120337Y-79132269D01*
X174512746Y-78524678D01*
X174486591Y-78492809D01*
X174359446Y-78388464D01*
X174214387Y-78310928D01*
X174056989Y-78263182D01*
X173934319Y-78251100D01*
X173934318Y-78251100D01*
X173893300Y-78247060D01*
X173852282Y-78251100D01*
X172896207Y-78251100D01*
X172855199Y-78247061D01*
X172814191Y-78251100D01*
X172814181Y-78251100D01*
X172691511Y-78263182D01*
X172534113Y-78310928D01*
X172389054Y-78388464D01*
X172261909Y-78492809D01*
X172235758Y-78524674D01*
X171224774Y-79535659D01*
X171192910Y-79561809D01*
X171137424Y-79629419D01*
X171088564Y-79688955D01*
X171011028Y-79834014D01*
X170963282Y-79991412D01*
X170947160Y-80155100D01*
X170951201Y-80196128D01*
X170951200Y-81179332D01*
X165841672Y-86288860D01*
X165798932Y-86208899D01*
X165619608Y-85990392D01*
X165401101Y-85811068D01*
X165268142Y-85740000D01*
X165401101Y-85668932D01*
X165619608Y-85489608D01*
X165798932Y-85271101D01*
X165932182Y-85021808D01*
X166014236Y-84751309D01*
X166041943Y-84470000D01*
X166014236Y-84188691D01*
X165932182Y-83918192D01*
X165798932Y-83668899D01*
X165619608Y-83450392D01*
X165401101Y-83271068D01*
X165268142Y-83200000D01*
X165401101Y-83128932D01*
X165619608Y-82949608D01*
X165798932Y-82731101D01*
X165932182Y-82481808D01*
X166014236Y-82211309D01*
X166041943Y-81930000D01*
X166014236Y-81648691D01*
X165932182Y-81378192D01*
X165798932Y-81128899D01*
X165619608Y-80910392D01*
X165401101Y-80731068D01*
X165268142Y-80660000D01*
X165401101Y-80588932D01*
X165619608Y-80409608D01*
X165798932Y-80191101D01*
X165932182Y-79941808D01*
X166014236Y-79671309D01*
X166041943Y-79390000D01*
X166014236Y-79108691D01*
X165932182Y-78838192D01*
X165798932Y-78588899D01*
X165619608Y-78370392D01*
X165506518Y-78277581D01*
X165524482Y-78275812D01*
X165644180Y-78239502D01*
X165754494Y-78180537D01*
X165851185Y-78101185D01*
X165930537Y-78004494D01*
X165989502Y-77894180D01*
X166025812Y-77774482D01*
X166038072Y-77650000D01*
X166038072Y-77508100D01*
X185124428Y-77508100D01*
X185136688Y-77632582D01*
X185172998Y-77752280D01*
X185231963Y-77862594D01*
X185311315Y-77959285D01*
X185408006Y-78038637D01*
X185518320Y-78097602D01*
X185638018Y-78133912D01*
X185762500Y-78146172D01*
X189604250Y-78143100D01*
X189763000Y-77984350D01*
X189763000Y-76682600D01*
X185286250Y-76682600D01*
X185127500Y-76841350D01*
X185124428Y-77508100D01*
X166038072Y-77508100D01*
X166038072Y-76050000D01*
X166025812Y-75925518D01*
X165989502Y-75805820D01*
X165930537Y-75695506D01*
X165854702Y-75603100D01*
X185124428Y-75603100D01*
X185127500Y-76269850D01*
X185286250Y-76428600D01*
X189763000Y-76428600D01*
X189763000Y-75126850D01*
X189604250Y-74968100D01*
X185762500Y-74965028D01*
X185638018Y-74977288D01*
X185518320Y-75013598D01*
X185408006Y-75072563D01*
X185311315Y-75151915D01*
X185231963Y-75248606D01*
X185172998Y-75358920D01*
X185136688Y-75478618D01*
X185124428Y-75603100D01*
X165854702Y-75603100D01*
X165851185Y-75598815D01*
X165754494Y-75519463D01*
X165644180Y-75460498D01*
X165639095Y-75458956D01*
X165640007Y-75449700D01*
X165632634Y-75374838D01*
X165620024Y-75246805D01*
X165574615Y-75097115D01*
X165560841Y-75051706D01*
X165464734Y-74871902D01*
X165367803Y-74753792D01*
X165335396Y-74714304D01*
X165295908Y-74681897D01*
X164410000Y-73795990D01*
X164410000Y-73754580D01*
X171535025Y-73754580D01*
X171991197Y-74326185D01*
X172791183Y-74766207D01*
X173661641Y-75041704D01*
X174569121Y-75142091D01*
X175478748Y-75063508D01*
X176355566Y-74808975D01*
X177165879Y-74388275D01*
X177258803Y-74326185D01*
X177714975Y-73754580D01*
X174625000Y-70664605D01*
X171535025Y-73754580D01*
X164410000Y-73754580D01*
X164410000Y-71119396D01*
X164411694Y-71117702D01*
X165061903Y-71117702D01*
X165133486Y-71361671D01*
X165388996Y-71482571D01*
X165663184Y-71551300D01*
X165945512Y-71565217D01*
X166225130Y-71523787D01*
X166491292Y-71428603D01*
X166616514Y-71361671D01*
X166688097Y-71117702D01*
X165875000Y-70304605D01*
X165061903Y-71117702D01*
X164411694Y-71117702D01*
X164489637Y-71039759D01*
X164623692Y-70839131D01*
X164638329Y-70866514D01*
X164882298Y-70938097D01*
X165695395Y-70125000D01*
X166054605Y-70125000D01*
X166867702Y-70938097D01*
X167111671Y-70866514D01*
X167232571Y-70611004D01*
X167278162Y-70429121D01*
X169967909Y-70429121D01*
X170046492Y-71338748D01*
X170301025Y-72215566D01*
X170721725Y-73025879D01*
X170783815Y-73118803D01*
X171355420Y-73574975D01*
X174445395Y-70485000D01*
X174804605Y-70485000D01*
X177894580Y-73574975D01*
X177931262Y-73545700D01*
X185124428Y-73545700D01*
X185136688Y-73670182D01*
X185172998Y-73789880D01*
X185231963Y-73900194D01*
X185311315Y-73996885D01*
X185408006Y-74076237D01*
X185518320Y-74135202D01*
X185638018Y-74171512D01*
X185762500Y-74183772D01*
X189604250Y-74180700D01*
X189763000Y-74021950D01*
X189763000Y-72720200D01*
X185286250Y-72720200D01*
X185127500Y-72878950D01*
X185124428Y-73545700D01*
X177931262Y-73545700D01*
X178466185Y-73118803D01*
X178906207Y-72318817D01*
X179120828Y-71640700D01*
X185124428Y-71640700D01*
X185127500Y-72307450D01*
X185286250Y-72466200D01*
X189763000Y-72466200D01*
X189763000Y-71164450D01*
X189604250Y-71005700D01*
X185762500Y-71002628D01*
X185638018Y-71014888D01*
X185518320Y-71051198D01*
X185408006Y-71110163D01*
X185311315Y-71189515D01*
X185231963Y-71286206D01*
X185172998Y-71396520D01*
X185136688Y-71516218D01*
X185124428Y-71640700D01*
X179120828Y-71640700D01*
X179181704Y-71448359D01*
X179282091Y-70540879D01*
X179203508Y-69631252D01*
X178948975Y-68754434D01*
X178528275Y-67944121D01*
X178466185Y-67851197D01*
X177894580Y-67395025D01*
X174804605Y-70485000D01*
X174445395Y-70485000D01*
X171355420Y-67395025D01*
X170783815Y-67851197D01*
X170343793Y-68651183D01*
X170068296Y-69521641D01*
X169967909Y-70429121D01*
X167278162Y-70429121D01*
X167301300Y-70336816D01*
X167315217Y-70054488D01*
X167273787Y-69774870D01*
X167178603Y-69508708D01*
X167111671Y-69383486D01*
X166867702Y-69311903D01*
X166054605Y-70125000D01*
X165695395Y-70125000D01*
X164882298Y-69311903D01*
X164638329Y-69383486D01*
X164624676Y-69412341D01*
X164489637Y-69210241D01*
X164411694Y-69132298D01*
X165061903Y-69132298D01*
X165875000Y-69945395D01*
X166688097Y-69132298D01*
X166616514Y-68888329D01*
X166361004Y-68767429D01*
X166086816Y-68698700D01*
X165804488Y-68684783D01*
X165524870Y-68726213D01*
X165258708Y-68821397D01*
X165133486Y-68888329D01*
X165061903Y-69132298D01*
X164411694Y-69132298D01*
X164289759Y-69010363D01*
X164054727Y-68853320D01*
X163793574Y-68745147D01*
X163516335Y-68690000D01*
X163233665Y-68690000D01*
X162956426Y-68745147D01*
X162695273Y-68853320D01*
X162460241Y-69010363D01*
X162260363Y-69210241D01*
X162103320Y-69445273D01*
X161995147Y-69706426D01*
X161940000Y-69983665D01*
X161940000Y-70266335D01*
X161995147Y-70543574D01*
X162103320Y-70804727D01*
X162260363Y-71039759D01*
X162340001Y-71119397D01*
X162340000Y-74173872D01*
X162334994Y-74224700D01*
X162340000Y-74275528D01*
X162340000Y-74275537D01*
X162354976Y-74427594D01*
X162414159Y-74622692D01*
X162510266Y-74802497D01*
X162639604Y-74960096D01*
X162679097Y-74992507D01*
X163320232Y-75633643D01*
X163269463Y-75695506D01*
X163210498Y-75805820D01*
X163174188Y-75925518D01*
X163161928Y-76050000D01*
X163161928Y-77650000D01*
X163174188Y-77774482D01*
X163210498Y-77894180D01*
X163269463Y-78004494D01*
X163348815Y-78101185D01*
X163445506Y-78180537D01*
X163555820Y-78239502D01*
X163675518Y-78275812D01*
X163693482Y-78277581D01*
X163580392Y-78370392D01*
X163559440Y-78395922D01*
X163435787Y-78329828D01*
X163278389Y-78282082D01*
X163155719Y-78270000D01*
X163155718Y-78270000D01*
X163114700Y-78265960D01*
X163073682Y-78270000D01*
X161522547Y-78270000D01*
X161600960Y-78011507D01*
X161627701Y-77740000D01*
X161600960Y-77468493D01*
X161521764Y-77207419D01*
X161393157Y-76966812D01*
X161220081Y-76755919D01*
X161009188Y-76582843D01*
X160798073Y-76470000D01*
X161009188Y-76357157D01*
X161220081Y-76184081D01*
X161393157Y-75973188D01*
X161521764Y-75732581D01*
X161600960Y-75471507D01*
X161627701Y-75200000D01*
X161600960Y-74928493D01*
X161521764Y-74667419D01*
X161393157Y-74426812D01*
X161220081Y-74215919D01*
X161009188Y-74042843D01*
X160798073Y-73930000D01*
X161009188Y-73817157D01*
X161220081Y-73644081D01*
X161393157Y-73433188D01*
X161521764Y-73192581D01*
X161600960Y-72931507D01*
X161627701Y-72660000D01*
X161600960Y-72388493D01*
X161521764Y-72127419D01*
X161393157Y-71886812D01*
X161220081Y-71675919D01*
X161009188Y-71502843D01*
X160798073Y-71390000D01*
X161009188Y-71277157D01*
X161220081Y-71104081D01*
X161393157Y-70893188D01*
X161521764Y-70652581D01*
X161600960Y-70391507D01*
X161627701Y-70120000D01*
X161600960Y-69848493D01*
X161521764Y-69587419D01*
X161393157Y-69346812D01*
X161220081Y-69135919D01*
X161009188Y-68962843D01*
X160768581Y-68834236D01*
X160507507Y-68755040D01*
X160304037Y-68735000D01*
X159467963Y-68735000D01*
X159264493Y-68755040D01*
X159003419Y-68834236D01*
X158762812Y-68962843D01*
X158551919Y-69135919D01*
X158378843Y-69346812D01*
X158250236Y-69587419D01*
X158171040Y-69848493D01*
X158144299Y-70120000D01*
X158169224Y-70373065D01*
X150802297Y-77739993D01*
X150762804Y-77772404D01*
X150633466Y-77930003D01*
X150537359Y-78109808D01*
X150478176Y-78304906D01*
X150463200Y-78456963D01*
X150463200Y-78456972D01*
X150458194Y-78507800D01*
X150463200Y-78558628D01*
X150463201Y-99580624D01*
X150461238Y-99582587D01*
X150315139Y-99801241D01*
X150214504Y-100044195D01*
X150163200Y-100302114D01*
X150163200Y-100565086D01*
X150214504Y-100823005D01*
X150315139Y-101065959D01*
X150461238Y-101284613D01*
X150647187Y-101470562D01*
X150865841Y-101616661D01*
X151012233Y-101677299D01*
X147611500Y-105078033D01*
X147611500Y-70292007D01*
X147615539Y-70250999D01*
X147611500Y-70209991D01*
X147611500Y-70209981D01*
X147599418Y-70087311D01*
X147551672Y-69929913D01*
X147474136Y-69784854D01*
X147369791Y-69657709D01*
X147337927Y-69631559D01*
X144724946Y-67018579D01*
X144698791Y-66986709D01*
X144571646Y-66882364D01*
X144426587Y-66804828D01*
X144269189Y-66757082D01*
X144146519Y-66745000D01*
X144146518Y-66745000D01*
X144105500Y-66740960D01*
X144064482Y-66745000D01*
X129835718Y-66745000D01*
X129794699Y-66740960D01*
X129753681Y-66745000D01*
X129631011Y-66757082D01*
X129473613Y-66804828D01*
X129328554Y-66882364D01*
X129201409Y-66986709D01*
X129175259Y-67018573D01*
X126131132Y-70062701D01*
X126137701Y-69996000D01*
X126110960Y-69724493D01*
X126031764Y-69463419D01*
X125903157Y-69222812D01*
X125730081Y-69011919D01*
X125519188Y-68838843D01*
X125278581Y-68710236D01*
X125017507Y-68631040D01*
X124994482Y-68628772D01*
X124910000Y-68544290D01*
X124910000Y-68044396D01*
X124989637Y-67964759D01*
X125146680Y-67729727D01*
X125254853Y-67468574D01*
X125310000Y-67191335D01*
X125310000Y-66908665D01*
X125254853Y-66631426D01*
X125146680Y-66370273D01*
X125022885Y-66185000D01*
X172848256Y-66185000D01*
X172084121Y-66581725D01*
G36*
X119410493Y-109758960D02*
G01*
X119613963Y-109779000D01*
X120450037Y-109779000D01*
X120653507Y-109758960D01*
X120702400Y-109744128D01*
X120702401Y-114687937D01*
X120636828Y-114810613D01*
X120589082Y-114968011D01*
X120581271Y-115047319D01*
X120572960Y-115131700D01*
X120575922Y-115161773D01*
X120392392Y-115312392D01*
X120213068Y-115530899D01*
X120079818Y-115780192D01*
X119997764Y-116050691D01*
X119970057Y-116332000D01*
X119997764Y-116613309D01*
X120079818Y-116883808D01*
X120213068Y-117133101D01*
X120392392Y-117351608D01*
X120575922Y-117502227D01*
X120572960Y-117532300D01*
X120589082Y-117695988D01*
X120636828Y-117853386D01*
X120714364Y-117998445D01*
X120714365Y-117998446D01*
X120786993Y-118086944D01*
X120610899Y-118181068D01*
X120392392Y-118360392D01*
X120213068Y-118578899D01*
X120079818Y-118828192D01*
X119997764Y-119098691D01*
X119970057Y-119380000D01*
X119997764Y-119661309D01*
X120079818Y-119931808D01*
X120213068Y-120181101D01*
X120392392Y-120399608D01*
X120610899Y-120578932D01*
X120860192Y-120712182D01*
X121130691Y-120794236D01*
X121341508Y-120815000D01*
X121482492Y-120815000D01*
X121693309Y-120794236D01*
X121963808Y-120712182D01*
X122213101Y-120578932D01*
X122431608Y-120399608D01*
X122610932Y-120181101D01*
X122704632Y-120005800D01*
X123835332Y-121136500D01*
X117874768Y-121136500D01*
X117630600Y-120892332D01*
X117630600Y-114484500D01*
X117790763Y-114484500D01*
X118000383Y-114442804D01*
X118197840Y-114361015D01*
X118375547Y-114242275D01*
X118526675Y-114091147D01*
X118645415Y-113913440D01*
X118727204Y-113715983D01*
X118768900Y-113506363D01*
X118768900Y-113398172D01*
X118850683Y-113381904D01*
X119048140Y-113300115D01*
X119225847Y-113181375D01*
X119376975Y-113030247D01*
X119495715Y-112852540D01*
X119577504Y-112655083D01*
X119619200Y-112445463D01*
X119619200Y-112231737D01*
X119577504Y-112022117D01*
X119495715Y-111824660D01*
X119376975Y-111646953D01*
X119355700Y-111625678D01*
X119355700Y-109742339D01*
X119410493Y-109758960D01*
X119410493Y-109758960D01*
G37*
X119410493Y-109758960D02*
X119613963Y-109779000D01*
X120450037Y-109779000D01*
X120653507Y-109758960D01*
X120702400Y-109744128D01*
X120702401Y-114687937D01*
X120636828Y-114810613D01*
X120589082Y-114968011D01*
X120581271Y-115047319D01*
X120572960Y-115131700D01*
X120575922Y-115161773D01*
X120392392Y-115312392D01*
X120213068Y-115530899D01*
X120079818Y-115780192D01*
X119997764Y-116050691D01*
X119970057Y-116332000D01*
X119997764Y-116613309D01*
X120079818Y-116883808D01*
X120213068Y-117133101D01*
X120392392Y-117351608D01*
X120575922Y-117502227D01*
X120572960Y-117532300D01*
X120589082Y-117695988D01*
X120636828Y-117853386D01*
X120714364Y-117998445D01*
X120714365Y-117998446D01*
X120786993Y-118086944D01*
X120610899Y-118181068D01*
X120392392Y-118360392D01*
X120213068Y-118578899D01*
X120079818Y-118828192D01*
X119997764Y-119098691D01*
X119970057Y-119380000D01*
X119997764Y-119661309D01*
X120079818Y-119931808D01*
X120213068Y-120181101D01*
X120392392Y-120399608D01*
X120610899Y-120578932D01*
X120860192Y-120712182D01*
X121130691Y-120794236D01*
X121341508Y-120815000D01*
X121482492Y-120815000D01*
X121693309Y-120794236D01*
X121963808Y-120712182D01*
X122213101Y-120578932D01*
X122431608Y-120399608D01*
X122610932Y-120181101D01*
X122704632Y-120005800D01*
X123835332Y-121136500D01*
X117874768Y-121136500D01*
X117630600Y-120892332D01*
X117630600Y-114484500D01*
X117790763Y-114484500D01*
X118000383Y-114442804D01*
X118197840Y-114361015D01*
X118375547Y-114242275D01*
X118526675Y-114091147D01*
X118645415Y-113913440D01*
X118727204Y-113715983D01*
X118768900Y-113506363D01*
X118768900Y-113398172D01*
X118850683Y-113381904D01*
X119048140Y-113300115D01*
X119225847Y-113181375D01*
X119376975Y-113030247D01*
X119495715Y-112852540D01*
X119577504Y-112655083D01*
X119619200Y-112445463D01*
X119619200Y-112231737D01*
X119577504Y-112022117D01*
X119495715Y-111824660D01*
X119376975Y-111646953D01*
X119355700Y-111625678D01*
X119355700Y-109742339D01*
X119410493Y-109758960D01*
G36*
X114760000Y-115261653D02*
G01*
X114721370Y-115223023D01*
X114605097Y-115339296D01*
X114533514Y-115095329D01*
X114278004Y-114974429D01*
X114003816Y-114905700D01*
X113721488Y-114891783D01*
X113441870Y-114933213D01*
X113175708Y-115028397D01*
X113050486Y-115095329D01*
X112978903Y-115339298D01*
X113792000Y-116152395D01*
X113806143Y-116138253D01*
X113985748Y-116317858D01*
X113971605Y-116332000D01*
X113985748Y-116346143D01*
X113806143Y-116525748D01*
X113792000Y-116511605D01*
X112978903Y-117324702D01*
X113050486Y-117568671D01*
X113305996Y-117689571D01*
X113580184Y-117758300D01*
X113862512Y-117772217D01*
X114142130Y-117730787D01*
X114408292Y-117635603D01*
X114533514Y-117568671D01*
X114605097Y-117324704D01*
X114721370Y-117440977D01*
X114760000Y-117402347D01*
X114760000Y-118309653D01*
X114721370Y-118271023D01*
X114605097Y-118387296D01*
X114533514Y-118143329D01*
X114278004Y-118022429D01*
X114003816Y-117953700D01*
X113721488Y-117939783D01*
X113441870Y-117981213D01*
X113175708Y-118076397D01*
X113050486Y-118143329D01*
X112978903Y-118387298D01*
X113792000Y-119200395D01*
X113806143Y-119186253D01*
X113985748Y-119365858D01*
X113971605Y-119380000D01*
X113985748Y-119394143D01*
X113806143Y-119573748D01*
X113792000Y-119559605D01*
X113777858Y-119573748D01*
X113598253Y-119394143D01*
X113612395Y-119380000D01*
X112799298Y-118566903D01*
X112555329Y-118638486D01*
X112434429Y-118893996D01*
X112367675Y-119160306D01*
X109609881Y-116402512D01*
X112351783Y-116402512D01*
X112393213Y-116682130D01*
X112488397Y-116948292D01*
X112555329Y-117073514D01*
X112799298Y-117145097D01*
X113612395Y-116332000D01*
X112799298Y-115518903D01*
X112555329Y-115590486D01*
X112434429Y-115845996D01*
X112365700Y-116120184D01*
X112351783Y-116402512D01*
X109609881Y-116402512D01*
X106056946Y-112849579D01*
X106030791Y-112817709D01*
X105903646Y-112713364D01*
X105758587Y-112635828D01*
X105601189Y-112588082D01*
X105478519Y-112576000D01*
X105478518Y-112576000D01*
X105437500Y-112571960D01*
X105396482Y-112576000D01*
X104881353Y-112576000D01*
X104752008Y-112418392D01*
X104539287Y-112243817D01*
X104346929Y-112141000D01*
X104539287Y-112038183D01*
X104752008Y-111863608D01*
X104881353Y-111706000D01*
X105940878Y-111706000D01*
X105958853Y-111723975D01*
X106136560Y-111842715D01*
X106334017Y-111924504D01*
X106543637Y-111966200D01*
X106757363Y-111966200D01*
X106966983Y-111924504D01*
X107164440Y-111842715D01*
X107342147Y-111723975D01*
X107493275Y-111572847D01*
X107612015Y-111395140D01*
X107693804Y-111197683D01*
X107735500Y-110988063D01*
X107735500Y-110774337D01*
X107693804Y-110564717D01*
X107612015Y-110367260D01*
X107493275Y-110189553D01*
X107342147Y-110038425D01*
X107164440Y-109919685D01*
X106966983Y-109837896D01*
X106757363Y-109796200D01*
X106543637Y-109796200D01*
X106334017Y-109837896D01*
X106136560Y-109919685D01*
X105962482Y-110036000D01*
X104881353Y-110036000D01*
X104752008Y-109878392D01*
X104539287Y-109703817D01*
X104346929Y-109601000D01*
X104539287Y-109498183D01*
X104752008Y-109323608D01*
X104881303Y-109166061D01*
X104921700Y-109170040D01*
X104962718Y-109166000D01*
X104962719Y-109166000D01*
X105085389Y-109153918D01*
X105242787Y-109106172D01*
X105387846Y-109028636D01*
X105514991Y-108924291D01*
X105541146Y-108892421D01*
X105698382Y-108735185D01*
X110719682Y-108735185D01*
X110733827Y-108806684D01*
X110839858Y-109057868D01*
X110992855Y-109283540D01*
X111186939Y-109475028D01*
X111414651Y-109624972D01*
X111667240Y-109727611D01*
X111935000Y-109779000D01*
X112285000Y-109779000D01*
X112285000Y-108521000D01*
X112539000Y-108521000D01*
X112539000Y-109779000D01*
X112889000Y-109779000D01*
X113156760Y-109727611D01*
X113409349Y-109624972D01*
X113637061Y-109475028D01*
X113831145Y-109283540D01*
X113984142Y-109057868D01*
X114090173Y-108806684D01*
X114104318Y-108735185D01*
X113981656Y-108521000D01*
X112539000Y-108521000D01*
X112285000Y-108521000D01*
X110842344Y-108521000D01*
X110719682Y-108735185D01*
X105698382Y-108735185D01*
X106429868Y-108003700D01*
X110729399Y-108003700D01*
X110719682Y-108052815D01*
X110842344Y-108267000D01*
X112285000Y-108267000D01*
X112285000Y-108247000D01*
X112539000Y-108247000D01*
X112539000Y-108267000D01*
X113981656Y-108267000D01*
X114104318Y-108052815D01*
X114090173Y-107981316D01*
X113984142Y-107730132D01*
X113891655Y-107593712D01*
X114760001Y-106725367D01*
X114760000Y-115261653D01*
X114760000Y-115261653D01*
G37*
X114760000Y-115261653D02*
X114721370Y-115223023D01*
X114605097Y-115339296D01*
X114533514Y-115095329D01*
X114278004Y-114974429D01*
X114003816Y-114905700D01*
X113721488Y-114891783D01*
X113441870Y-114933213D01*
X113175708Y-115028397D01*
X113050486Y-115095329D01*
X112978903Y-115339298D01*
X113792000Y-116152395D01*
X113806143Y-116138253D01*
X113985748Y-116317858D01*
X113971605Y-116332000D01*
X113985748Y-116346143D01*
X113806143Y-116525748D01*
X113792000Y-116511605D01*
X112978903Y-117324702D01*
X113050486Y-117568671D01*
X113305996Y-117689571D01*
X113580184Y-117758300D01*
X113862512Y-117772217D01*
X114142130Y-117730787D01*
X114408292Y-117635603D01*
X114533514Y-117568671D01*
X114605097Y-117324704D01*
X114721370Y-117440977D01*
X114760000Y-117402347D01*
X114760000Y-118309653D01*
X114721370Y-118271023D01*
X114605097Y-118387296D01*
X114533514Y-118143329D01*
X114278004Y-118022429D01*
X114003816Y-117953700D01*
X113721488Y-117939783D01*
X113441870Y-117981213D01*
X113175708Y-118076397D01*
X113050486Y-118143329D01*
X112978903Y-118387298D01*
X113792000Y-119200395D01*
X113806143Y-119186253D01*
X113985748Y-119365858D01*
X113971605Y-119380000D01*
X113985748Y-119394143D01*
X113806143Y-119573748D01*
X113792000Y-119559605D01*
X113777858Y-119573748D01*
X113598253Y-119394143D01*
X113612395Y-119380000D01*
X112799298Y-118566903D01*
X112555329Y-118638486D01*
X112434429Y-118893996D01*
X112367675Y-119160306D01*
X109609881Y-116402512D01*
X112351783Y-116402512D01*
X112393213Y-116682130D01*
X112488397Y-116948292D01*
X112555329Y-117073514D01*
X112799298Y-117145097D01*
X113612395Y-116332000D01*
X112799298Y-115518903D01*
X112555329Y-115590486D01*
X112434429Y-115845996D01*
X112365700Y-116120184D01*
X112351783Y-116402512D01*
X109609881Y-116402512D01*
X106056946Y-112849579D01*
X106030791Y-112817709D01*
X105903646Y-112713364D01*
X105758587Y-112635828D01*
X105601189Y-112588082D01*
X105478519Y-112576000D01*
X105478518Y-112576000D01*
X105437500Y-112571960D01*
X105396482Y-112576000D01*
X104881353Y-112576000D01*
X104752008Y-112418392D01*
X104539287Y-112243817D01*
X104346929Y-112141000D01*
X104539287Y-112038183D01*
X104752008Y-111863608D01*
X104881353Y-111706000D01*
X105940878Y-111706000D01*
X105958853Y-111723975D01*
X106136560Y-111842715D01*
X106334017Y-111924504D01*
X106543637Y-111966200D01*
X106757363Y-111966200D01*
X106966983Y-111924504D01*
X107164440Y-111842715D01*
X107342147Y-111723975D01*
X107493275Y-111572847D01*
X107612015Y-111395140D01*
X107693804Y-111197683D01*
X107735500Y-110988063D01*
X107735500Y-110774337D01*
X107693804Y-110564717D01*
X107612015Y-110367260D01*
X107493275Y-110189553D01*
X107342147Y-110038425D01*
X107164440Y-109919685D01*
X106966983Y-109837896D01*
X106757363Y-109796200D01*
X106543637Y-109796200D01*
X106334017Y-109837896D01*
X106136560Y-109919685D01*
X105962482Y-110036000D01*
X104881353Y-110036000D01*
X104752008Y-109878392D01*
X104539287Y-109703817D01*
X104346929Y-109601000D01*
X104539287Y-109498183D01*
X104752008Y-109323608D01*
X104881303Y-109166061D01*
X104921700Y-109170040D01*
X104962718Y-109166000D01*
X104962719Y-109166000D01*
X105085389Y-109153918D01*
X105242787Y-109106172D01*
X105387846Y-109028636D01*
X105514991Y-108924291D01*
X105541146Y-108892421D01*
X105698382Y-108735185D01*
X110719682Y-108735185D01*
X110733827Y-108806684D01*
X110839858Y-109057868D01*
X110992855Y-109283540D01*
X111186939Y-109475028D01*
X111414651Y-109624972D01*
X111667240Y-109727611D01*
X111935000Y-109779000D01*
X112285000Y-109779000D01*
X112285000Y-108521000D01*
X112539000Y-108521000D01*
X112539000Y-109779000D01*
X112889000Y-109779000D01*
X113156760Y-109727611D01*
X113409349Y-109624972D01*
X113637061Y-109475028D01*
X113831145Y-109283540D01*
X113984142Y-109057868D01*
X114090173Y-108806684D01*
X114104318Y-108735185D01*
X113981656Y-108521000D01*
X112539000Y-108521000D01*
X112285000Y-108521000D01*
X110842344Y-108521000D01*
X110719682Y-108735185D01*
X105698382Y-108735185D01*
X106429868Y-108003700D01*
X110729399Y-108003700D01*
X110719682Y-108052815D01*
X110842344Y-108267000D01*
X112285000Y-108267000D01*
X112285000Y-108247000D01*
X112539000Y-108247000D01*
X112539000Y-108267000D01*
X113981656Y-108267000D01*
X114104318Y-108052815D01*
X114090173Y-107981316D01*
X113984142Y-107730132D01*
X113891655Y-107593712D01*
X114760001Y-106725367D01*
X114760000Y-115261653D01*
G36*
X124523000Y-102889000D02*
G01*
X124543000Y-102889000D01*
X124543000Y-103143000D01*
X124523000Y-103143000D01*
X124523000Y-104401000D01*
X124873000Y-104401000D01*
X125140760Y-104349611D01*
X125393349Y-104246972D01*
X125621061Y-104097028D01*
X125638401Y-104079920D01*
X125638401Y-106042371D01*
X125634360Y-106083400D01*
X125650482Y-106247088D01*
X125698228Y-106404486D01*
X125769676Y-106538155D01*
X125775765Y-106549546D01*
X125880110Y-106676691D01*
X125911974Y-106702841D01*
X126306100Y-107096968D01*
X126306100Y-107107963D01*
X126322966Y-107192753D01*
X126198899Y-107259068D01*
X125980392Y-107438392D01*
X125801068Y-107656899D01*
X125667818Y-107906192D01*
X125585764Y-108176691D01*
X125558057Y-108458000D01*
X125585764Y-108739309D01*
X125667818Y-109009808D01*
X125801068Y-109259101D01*
X125980392Y-109477608D01*
X126163922Y-109628227D01*
X126160960Y-109658300D01*
X126177082Y-109821988D01*
X126187400Y-109856002D01*
X126187400Y-110491058D01*
X126171039Y-110486096D01*
X125949000Y-110608085D01*
X125949000Y-111751000D01*
X125969000Y-111751000D01*
X125969000Y-112005000D01*
X125949000Y-112005000D01*
X125949000Y-113147915D01*
X126171039Y-113269904D01*
X126187400Y-113264941D01*
X126187401Y-116917072D01*
X126183360Y-116958100D01*
X126199482Y-117121788D01*
X126247228Y-117279186D01*
X126324764Y-117424245D01*
X126324765Y-117424246D01*
X126429110Y-117551391D01*
X126460974Y-117577541D01*
X127353065Y-118469633D01*
X127342392Y-118478392D01*
X127249581Y-118591482D01*
X127247812Y-118573518D01*
X127211502Y-118453820D01*
X127152537Y-118343506D01*
X127073185Y-118246815D01*
X126976494Y-118167463D01*
X126866180Y-118108498D01*
X126746482Y-118072188D01*
X126622000Y-118059928D01*
X125022000Y-118059928D01*
X124897518Y-118072188D01*
X124777820Y-118108498D01*
X124667506Y-118167463D01*
X124570815Y-118246815D01*
X124491463Y-118343506D01*
X124432498Y-118453820D01*
X124396188Y-118573518D01*
X124383928Y-118698000D01*
X124383928Y-119323360D01*
X122420935Y-117360367D01*
X122431608Y-117351608D01*
X122610932Y-117133101D01*
X122744182Y-116883808D01*
X122826236Y-116613309D01*
X122853943Y-116332000D01*
X122826236Y-116050691D01*
X122744182Y-115780192D01*
X122610932Y-115530899D01*
X122431608Y-115312392D01*
X122339941Y-115237163D01*
X122360318Y-115169989D01*
X122372400Y-115047319D01*
X122372400Y-115047309D01*
X122376439Y-115006301D01*
X122372400Y-114965293D01*
X122372400Y-112227040D01*
X124430091Y-112227040D01*
X124524930Y-112491881D01*
X124669615Y-112733131D01*
X124858586Y-112941519D01*
X125084580Y-113109037D01*
X125338913Y-113229246D01*
X125472961Y-113269904D01*
X125695000Y-113147915D01*
X125695000Y-112005000D01*
X124551376Y-112005000D01*
X124430091Y-112227040D01*
X122372400Y-112227040D01*
X122372400Y-111528960D01*
X124430091Y-111528960D01*
X124551376Y-111751000D01*
X125695000Y-111751000D01*
X125695000Y-110608085D01*
X125472961Y-110486096D01*
X125338913Y-110526754D01*
X125084580Y-110646963D01*
X124858586Y-110814481D01*
X124669615Y-111022869D01*
X124524930Y-111264119D01*
X124430091Y-111528960D01*
X122372400Y-111528960D01*
X122372400Y-107930718D01*
X122376440Y-107889700D01*
X122360318Y-107726012D01*
X122354557Y-107707018D01*
X122312572Y-107568613D01*
X122235036Y-107423554D01*
X122191979Y-107371089D01*
X122156839Y-107328270D01*
X122156837Y-107328268D01*
X122130691Y-107296409D01*
X122098833Y-107270264D01*
X121501563Y-106672996D01*
X121539157Y-106627188D01*
X121667764Y-106386581D01*
X121746960Y-106125507D01*
X121773701Y-105854000D01*
X121746960Y-105582493D01*
X121667764Y-105321419D01*
X121539157Y-105080812D01*
X121538120Y-105079548D01*
X122098631Y-104519037D01*
X122130491Y-104492891D01*
X122159011Y-104458140D01*
X122234836Y-104365746D01*
X122312372Y-104220687D01*
X122337014Y-104139454D01*
X122815767Y-103660701D01*
X122823858Y-103679868D01*
X122976855Y-103905540D01*
X123170939Y-104097028D01*
X123398651Y-104246972D01*
X123651240Y-104349611D01*
X123919000Y-104401000D01*
X124269000Y-104401000D01*
X124269000Y-103143000D01*
X124249000Y-103143000D01*
X124249000Y-102889000D01*
X124269000Y-102889000D01*
X124269000Y-102869000D01*
X124523000Y-102869000D01*
X124523000Y-102889000D01*
X124523000Y-102889000D01*
G37*
X124523000Y-102889000D02*
X124543000Y-102889000D01*
X124543000Y-103143000D01*
X124523000Y-103143000D01*
X124523000Y-104401000D01*
X124873000Y-104401000D01*
X125140760Y-104349611D01*
X125393349Y-104246972D01*
X125621061Y-104097028D01*
X125638401Y-104079920D01*
X125638401Y-106042371D01*
X125634360Y-106083400D01*
X125650482Y-106247088D01*
X125698228Y-106404486D01*
X125769676Y-106538155D01*
X125775765Y-106549546D01*
X125880110Y-106676691D01*
X125911974Y-106702841D01*
X126306100Y-107096968D01*
X126306100Y-107107963D01*
X126322966Y-107192753D01*
X126198899Y-107259068D01*
X125980392Y-107438392D01*
X125801068Y-107656899D01*
X125667818Y-107906192D01*
X125585764Y-108176691D01*
X125558057Y-108458000D01*
X125585764Y-108739309D01*
X125667818Y-109009808D01*
X125801068Y-109259101D01*
X125980392Y-109477608D01*
X126163922Y-109628227D01*
X126160960Y-109658300D01*
X126177082Y-109821988D01*
X126187400Y-109856002D01*
X126187400Y-110491058D01*
X126171039Y-110486096D01*
X125949000Y-110608085D01*
X125949000Y-111751000D01*
X125969000Y-111751000D01*
X125969000Y-112005000D01*
X125949000Y-112005000D01*
X125949000Y-113147915D01*
X126171039Y-113269904D01*
X126187400Y-113264941D01*
X126187401Y-116917072D01*
X126183360Y-116958100D01*
X126199482Y-117121788D01*
X126247228Y-117279186D01*
X126324764Y-117424245D01*
X126324765Y-117424246D01*
X126429110Y-117551391D01*
X126460974Y-117577541D01*
X127353065Y-118469633D01*
X127342392Y-118478392D01*
X127249581Y-118591482D01*
X127247812Y-118573518D01*
X127211502Y-118453820D01*
X127152537Y-118343506D01*
X127073185Y-118246815D01*
X126976494Y-118167463D01*
X126866180Y-118108498D01*
X126746482Y-118072188D01*
X126622000Y-118059928D01*
X125022000Y-118059928D01*
X124897518Y-118072188D01*
X124777820Y-118108498D01*
X124667506Y-118167463D01*
X124570815Y-118246815D01*
X124491463Y-118343506D01*
X124432498Y-118453820D01*
X124396188Y-118573518D01*
X124383928Y-118698000D01*
X124383928Y-119323360D01*
X122420935Y-117360367D01*
X122431608Y-117351608D01*
X122610932Y-117133101D01*
X122744182Y-116883808D01*
X122826236Y-116613309D01*
X122853943Y-116332000D01*
X122826236Y-116050691D01*
X122744182Y-115780192D01*
X122610932Y-115530899D01*
X122431608Y-115312392D01*
X122339941Y-115237163D01*
X122360318Y-115169989D01*
X122372400Y-115047319D01*
X122372400Y-115047309D01*
X122376439Y-115006301D01*
X122372400Y-114965293D01*
X122372400Y-112227040D01*
X124430091Y-112227040D01*
X124524930Y-112491881D01*
X124669615Y-112733131D01*
X124858586Y-112941519D01*
X125084580Y-113109037D01*
X125338913Y-113229246D01*
X125472961Y-113269904D01*
X125695000Y-113147915D01*
X125695000Y-112005000D01*
X124551376Y-112005000D01*
X124430091Y-112227040D01*
X122372400Y-112227040D01*
X122372400Y-111528960D01*
X124430091Y-111528960D01*
X124551376Y-111751000D01*
X125695000Y-111751000D01*
X125695000Y-110608085D01*
X125472961Y-110486096D01*
X125338913Y-110526754D01*
X125084580Y-110646963D01*
X124858586Y-110814481D01*
X124669615Y-111022869D01*
X124524930Y-111264119D01*
X124430091Y-111528960D01*
X122372400Y-111528960D01*
X122372400Y-107930718D01*
X122376440Y-107889700D01*
X122360318Y-107726012D01*
X122354557Y-107707018D01*
X122312572Y-107568613D01*
X122235036Y-107423554D01*
X122191979Y-107371089D01*
X122156839Y-107328270D01*
X122156837Y-107328268D01*
X122130691Y-107296409D01*
X122098833Y-107270264D01*
X121501563Y-106672996D01*
X121539157Y-106627188D01*
X121667764Y-106386581D01*
X121746960Y-106125507D01*
X121773701Y-105854000D01*
X121746960Y-105582493D01*
X121667764Y-105321419D01*
X121539157Y-105080812D01*
X121538120Y-105079548D01*
X122098631Y-104519037D01*
X122130491Y-104492891D01*
X122159011Y-104458140D01*
X122234836Y-104365746D01*
X122312372Y-104220687D01*
X122337014Y-104139454D01*
X122815767Y-103660701D01*
X122823858Y-103679868D01*
X122976855Y-103905540D01*
X123170939Y-104097028D01*
X123398651Y-104246972D01*
X123651240Y-104349611D01*
X123919000Y-104401000D01*
X124269000Y-104401000D01*
X124269000Y-103143000D01*
X124249000Y-103143000D01*
X124249000Y-102889000D01*
X124269000Y-102889000D01*
X124269000Y-102869000D01*
X124523000Y-102869000D01*
X124523000Y-102889000D01*
G36*
X133569000Y-111751000D02*
G01*
X133589000Y-111751000D01*
X133589000Y-112005000D01*
X133569000Y-112005000D01*
X133569000Y-113147915D01*
X133791039Y-113269904D01*
X133925087Y-113229246D01*
X133946701Y-113219030D01*
X133946700Y-117056381D01*
X133942660Y-117097400D01*
X133946700Y-117138418D01*
X133958782Y-117261088D01*
X134006528Y-117418486D01*
X134084064Y-117563545D01*
X134188409Y-117690691D01*
X134220278Y-117716845D01*
X134973065Y-118469633D01*
X134962392Y-118478392D01*
X134801348Y-118674625D01*
X134683319Y-118663000D01*
X134642300Y-118658960D01*
X134612227Y-118661922D01*
X134461608Y-118478392D01*
X134278077Y-118327772D01*
X134281039Y-118297699D01*
X134277000Y-118256691D01*
X134277000Y-118256681D01*
X134264918Y-118134011D01*
X134217172Y-117976613D01*
X134139636Y-117831554D01*
X134035291Y-117704409D01*
X134003426Y-117678258D01*
X132937400Y-116612233D01*
X132937400Y-113219078D01*
X132958913Y-113229246D01*
X133092961Y-113269904D01*
X133315000Y-113147915D01*
X133315000Y-112005000D01*
X133295000Y-112005000D01*
X133295000Y-111751000D01*
X133315000Y-111751000D01*
X133315000Y-111731000D01*
X133569000Y-111731000D01*
X133569000Y-111751000D01*
X133569000Y-111751000D01*
G37*
X133569000Y-111751000D02*
X133589000Y-111751000D01*
X133589000Y-112005000D01*
X133569000Y-112005000D01*
X133569000Y-113147915D01*
X133791039Y-113269904D01*
X133925087Y-113229246D01*
X133946701Y-113219030D01*
X133946700Y-117056381D01*
X133942660Y-117097400D01*
X133946700Y-117138418D01*
X133958782Y-117261088D01*
X134006528Y-117418486D01*
X134084064Y-117563545D01*
X134188409Y-117690691D01*
X134220278Y-117716845D01*
X134973065Y-118469633D01*
X134962392Y-118478392D01*
X134801348Y-118674625D01*
X134683319Y-118663000D01*
X134642300Y-118658960D01*
X134612227Y-118661922D01*
X134461608Y-118478392D01*
X134278077Y-118327772D01*
X134281039Y-118297699D01*
X134277000Y-118256691D01*
X134277000Y-118256681D01*
X134264918Y-118134011D01*
X134217172Y-117976613D01*
X134139636Y-117831554D01*
X134035291Y-117704409D01*
X134003426Y-117678258D01*
X132937400Y-116612233D01*
X132937400Y-113219078D01*
X132958913Y-113229246D01*
X133092961Y-113269904D01*
X133315000Y-113147915D01*
X133315000Y-112005000D01*
X133295000Y-112005000D01*
X133295000Y-111751000D01*
X133315000Y-111751000D01*
X133315000Y-111731000D01*
X133569000Y-111731000D01*
X133569000Y-111751000D01*
G36*
X128341068Y-109259101D02*
G01*
X128520392Y-109477608D01*
X128703922Y-109628227D01*
X128700960Y-109658300D01*
X128717082Y-109821988D01*
X128764828Y-109979386D01*
X128785800Y-110018622D01*
X128785800Y-110508772D01*
X128711039Y-110486096D01*
X128489000Y-110608085D01*
X128489000Y-111751000D01*
X128509000Y-111751000D01*
X128509000Y-112005000D01*
X128489000Y-112005000D01*
X128489000Y-113147915D01*
X128711039Y-113269904D01*
X128785800Y-113247228D01*
X128785801Y-117540633D01*
X127857400Y-116612233D01*
X127857400Y-113219078D01*
X127878913Y-113229246D01*
X128012961Y-113269904D01*
X128235000Y-113147915D01*
X128235000Y-112005000D01*
X128215000Y-112005000D01*
X128215000Y-111751000D01*
X128235000Y-111751000D01*
X128235000Y-110608085D01*
X128012961Y-110486096D01*
X127878913Y-110526754D01*
X127857400Y-110536922D01*
X127857400Y-109721707D01*
X127861439Y-109680699D01*
X127857400Y-109639691D01*
X127857400Y-109639681D01*
X127854762Y-109612894D01*
X128019608Y-109477608D01*
X128198932Y-109259101D01*
X128270000Y-109126142D01*
X128341068Y-109259101D01*
X128341068Y-109259101D01*
G37*
X128341068Y-109259101D02*
X128520392Y-109477608D01*
X128703922Y-109628227D01*
X128700960Y-109658300D01*
X128717082Y-109821988D01*
X128764828Y-109979386D01*
X128785800Y-110018622D01*
X128785800Y-110508772D01*
X128711039Y-110486096D01*
X128489000Y-110608085D01*
X128489000Y-111751000D01*
X128509000Y-111751000D01*
X128509000Y-112005000D01*
X128489000Y-112005000D01*
X128489000Y-113147915D01*
X128711039Y-113269904D01*
X128785800Y-113247228D01*
X128785801Y-117540633D01*
X127857400Y-116612233D01*
X127857400Y-113219078D01*
X127878913Y-113229246D01*
X128012961Y-113269904D01*
X128235000Y-113147915D01*
X128235000Y-112005000D01*
X128215000Y-112005000D01*
X128215000Y-111751000D01*
X128235000Y-111751000D01*
X128235000Y-110608085D01*
X128012961Y-110486096D01*
X127878913Y-110526754D01*
X127857400Y-110536922D01*
X127857400Y-109721707D01*
X127861439Y-109680699D01*
X127857400Y-109639691D01*
X127857400Y-109639681D01*
X127854762Y-109612894D01*
X128019608Y-109477608D01*
X128198932Y-109259101D01*
X128270000Y-109126142D01*
X128341068Y-109259101D01*
G36*
X158378843Y-93753188D02*
G01*
X158400750Y-93779881D01*
X156614279Y-95566354D01*
X156582409Y-95592509D01*
X156478065Y-95719654D01*
X156478064Y-95719655D01*
X156400528Y-95864714D01*
X156352782Y-96022112D01*
X156336660Y-96185800D01*
X156340700Y-96226819D01*
X156340701Y-102434131D01*
X146186201Y-112588632D01*
X146153157Y-112526812D01*
X145980081Y-112315919D01*
X145769188Y-112142843D01*
X145558073Y-112030000D01*
X145769188Y-111917157D01*
X145980081Y-111744081D01*
X146153157Y-111533188D01*
X146281764Y-111292581D01*
X146360960Y-111031507D01*
X146387701Y-110760000D01*
X146360960Y-110488493D01*
X146281764Y-110227419D01*
X146153157Y-109986812D01*
X145980081Y-109775919D01*
X145769188Y-109602843D01*
X145558073Y-109490000D01*
X145769188Y-109377157D01*
X145980081Y-109204081D01*
X146153157Y-108993188D01*
X146281764Y-108752581D01*
X146360960Y-108491507D01*
X146387701Y-108220000D01*
X146360960Y-107948493D01*
X146311365Y-107785000D01*
X146879382Y-107785000D01*
X146920400Y-107789040D01*
X146961418Y-107785000D01*
X146961419Y-107785000D01*
X147084089Y-107772918D01*
X147241487Y-107725172D01*
X147386546Y-107647636D01*
X147513691Y-107543291D01*
X147539846Y-107511421D01*
X153991827Y-101059441D01*
X154023691Y-101033291D01*
X154128036Y-100906146D01*
X154205572Y-100761087D01*
X154253318Y-100603689D01*
X154265400Y-100481019D01*
X154265400Y-100481009D01*
X154269439Y-100440001D01*
X154265400Y-100398993D01*
X154265400Y-97744767D01*
X158336395Y-93673773D01*
X158378843Y-93753188D01*
X158378843Y-93753188D01*
G37*
X158378843Y-93753188D02*
X158400750Y-93779881D01*
X156614279Y-95566354D01*
X156582409Y-95592509D01*
X156478065Y-95719654D01*
X156478064Y-95719655D01*
X156400528Y-95864714D01*
X156352782Y-96022112D01*
X156336660Y-96185800D01*
X156340700Y-96226819D01*
X156340701Y-102434131D01*
X146186201Y-112588632D01*
X146153157Y-112526812D01*
X145980081Y-112315919D01*
X145769188Y-112142843D01*
X145558073Y-112030000D01*
X145769188Y-111917157D01*
X145980081Y-111744081D01*
X146153157Y-111533188D01*
X146281764Y-111292581D01*
X146360960Y-111031507D01*
X146387701Y-110760000D01*
X146360960Y-110488493D01*
X146281764Y-110227419D01*
X146153157Y-109986812D01*
X145980081Y-109775919D01*
X145769188Y-109602843D01*
X145558073Y-109490000D01*
X145769188Y-109377157D01*
X145980081Y-109204081D01*
X146153157Y-108993188D01*
X146281764Y-108752581D01*
X146360960Y-108491507D01*
X146387701Y-108220000D01*
X146360960Y-107948493D01*
X146311365Y-107785000D01*
X146879382Y-107785000D01*
X146920400Y-107789040D01*
X146961418Y-107785000D01*
X146961419Y-107785000D01*
X147084089Y-107772918D01*
X147241487Y-107725172D01*
X147386546Y-107647636D01*
X147513691Y-107543291D01*
X147539846Y-107511421D01*
X153991827Y-101059441D01*
X154023691Y-101033291D01*
X154128036Y-100906146D01*
X154205572Y-100761087D01*
X154253318Y-100603689D01*
X154265400Y-100481019D01*
X154265400Y-100481009D01*
X154269439Y-100440001D01*
X154265400Y-100398993D01*
X154265400Y-97744767D01*
X158336395Y-93673773D01*
X158378843Y-93753188D01*
G36*
X171891487Y-102959889D02*
G01*
X171862815Y-103251000D01*
X171891487Y-103542111D01*
X171935135Y-103686000D01*
X167014818Y-103686000D01*
X166973800Y-103681960D01*
X166932782Y-103686000D01*
X166932781Y-103686000D01*
X166810111Y-103698082D01*
X166652713Y-103745828D01*
X166507654Y-103823364D01*
X166380509Y-103927709D01*
X166354363Y-103959568D01*
X161539233Y-108774700D01*
X161509941Y-108774700D01*
X161521764Y-108752581D01*
X161600960Y-108491507D01*
X161627701Y-108220000D01*
X161600960Y-107948493D01*
X161537324Y-107738713D01*
X161629591Y-107662991D01*
X161655746Y-107631121D01*
X166470869Y-102816000D01*
X171935135Y-102816000D01*
X171891487Y-102959889D01*
X171891487Y-102959889D01*
G37*
X171891487Y-102959889D02*
X171862815Y-103251000D01*
X171891487Y-103542111D01*
X171935135Y-103686000D01*
X167014818Y-103686000D01*
X166973800Y-103681960D01*
X166932782Y-103686000D01*
X166932781Y-103686000D01*
X166810111Y-103698082D01*
X166652713Y-103745828D01*
X166507654Y-103823364D01*
X166380509Y-103927709D01*
X166354363Y-103959568D01*
X161539233Y-108774700D01*
X161509941Y-108774700D01*
X161521764Y-108752581D01*
X161600960Y-108491507D01*
X161627701Y-108220000D01*
X161600960Y-107948493D01*
X161537324Y-107738713D01*
X161629591Y-107662991D01*
X161655746Y-107631121D01*
X166470869Y-102816000D01*
X171935135Y-102816000D01*
X171891487Y-102959889D01*
G36*
X163185764Y-89268691D02*
G01*
X163158057Y-89550000D01*
X163185764Y-89831309D01*
X163267818Y-90101808D01*
X163401068Y-90351101D01*
X163580392Y-90569608D01*
X163798899Y-90748932D01*
X164048192Y-90882182D01*
X164318691Y-90964236D01*
X164529508Y-90985000D01*
X164670492Y-90985000D01*
X164881309Y-90964236D01*
X165151808Y-90882182D01*
X165401101Y-90748932D01*
X165619608Y-90569608D01*
X165628367Y-90558935D01*
X169972263Y-94902832D01*
X169998409Y-94934691D01*
X170030268Y-94960837D01*
X170030270Y-94960839D01*
X170125554Y-95039036D01*
X170270613Y-95116572D01*
X170428011Y-95164318D01*
X170591700Y-95180440D01*
X170632718Y-95176400D01*
X171943161Y-95176400D01*
X171913524Y-95274110D01*
X172034845Y-95504000D01*
X173228000Y-95504000D01*
X173228000Y-95484000D01*
X173482000Y-95484000D01*
X173482000Y-95504000D01*
X173502000Y-95504000D01*
X173502000Y-95758000D01*
X173482000Y-95758000D01*
X173482000Y-98044000D01*
X173502000Y-98044000D01*
X173502000Y-98298000D01*
X173482000Y-98298000D01*
X173482000Y-98318000D01*
X173228000Y-98318000D01*
X173228000Y-98298000D01*
X172034845Y-98298000D01*
X171913524Y-98527890D01*
X171958175Y-98675099D01*
X172083359Y-98937920D01*
X172257412Y-99171269D01*
X172473645Y-99366178D01*
X172590523Y-99435799D01*
X172525986Y-99470294D01*
X172299866Y-99655866D01*
X172114294Y-99881986D01*
X171976401Y-100139966D01*
X171891487Y-100419889D01*
X171862815Y-100711000D01*
X171891487Y-101002111D01*
X171935135Y-101146000D01*
X166166018Y-101146000D01*
X166125000Y-101141960D01*
X166083982Y-101146000D01*
X166083981Y-101146000D01*
X165961311Y-101158082D01*
X165803913Y-101205828D01*
X165658854Y-101283364D01*
X165531709Y-101387709D01*
X165505563Y-101419568D01*
X161581335Y-105343798D01*
X161521764Y-105147419D01*
X161393157Y-104906812D01*
X161220081Y-104695919D01*
X161009188Y-104522843D01*
X160798073Y-104410000D01*
X161009188Y-104297157D01*
X161220081Y-104124081D01*
X161393157Y-103913188D01*
X161521764Y-103672581D01*
X161600960Y-103411507D01*
X161627701Y-103140000D01*
X161600960Y-102868493D01*
X161521764Y-102607419D01*
X161393157Y-102366812D01*
X161220081Y-102155919D01*
X161009188Y-101982843D01*
X160798073Y-101870000D01*
X161009188Y-101757157D01*
X161220081Y-101584081D01*
X161393157Y-101373188D01*
X161521764Y-101132581D01*
X161600960Y-100871507D01*
X161627701Y-100600000D01*
X161600960Y-100328493D01*
X161521764Y-100067419D01*
X161393157Y-99826812D01*
X161220081Y-99615919D01*
X161009188Y-99442843D01*
X160798073Y-99330000D01*
X161009188Y-99217157D01*
X161220081Y-99044081D01*
X161393157Y-98833188D01*
X161521764Y-98592581D01*
X161600960Y-98331507D01*
X161627701Y-98060000D01*
X161600960Y-97788493D01*
X161521764Y-97527419D01*
X161393157Y-97286812D01*
X161220081Y-97075919D01*
X161009188Y-96902843D01*
X160798073Y-96790000D01*
X161009188Y-96677157D01*
X161220081Y-96504081D01*
X161393157Y-96293188D01*
X161521764Y-96052581D01*
X161541387Y-95987890D01*
X171913524Y-95987890D01*
X171958175Y-96135099D01*
X172083359Y-96397920D01*
X172257412Y-96631269D01*
X172473645Y-96826178D01*
X172599255Y-96901000D01*
X172473645Y-96975822D01*
X172257412Y-97170731D01*
X172083359Y-97404080D01*
X171958175Y-97666901D01*
X171913524Y-97814110D01*
X172034845Y-98044000D01*
X173228000Y-98044000D01*
X173228000Y-95758000D01*
X172034845Y-95758000D01*
X171913524Y-95987890D01*
X161541387Y-95987890D01*
X161600960Y-95791507D01*
X161627701Y-95520000D01*
X161600960Y-95248493D01*
X161521764Y-94987419D01*
X161393157Y-94746812D01*
X161349523Y-94693644D01*
X161950826Y-94092342D01*
X161982691Y-94066191D01*
X162087036Y-93939046D01*
X162164572Y-93793987D01*
X162212318Y-93636589D01*
X162224400Y-93513919D01*
X162224400Y-93513909D01*
X162228439Y-93472901D01*
X162224400Y-93431893D01*
X162224400Y-89956418D01*
X162228440Y-89915399D01*
X162212318Y-89751711D01*
X162164572Y-89594313D01*
X162087036Y-89449254D01*
X162069666Y-89428089D01*
X161982691Y-89322109D01*
X161950827Y-89295959D01*
X161707125Y-89052258D01*
X161741218Y-89048900D01*
X163252436Y-89048900D01*
X163185764Y-89268691D01*
X163185764Y-89268691D01*
G37*
X163185764Y-89268691D02*
X163158057Y-89550000D01*
X163185764Y-89831309D01*
X163267818Y-90101808D01*
X163401068Y-90351101D01*
X163580392Y-90569608D01*
X163798899Y-90748932D01*
X164048192Y-90882182D01*
X164318691Y-90964236D01*
X164529508Y-90985000D01*
X164670492Y-90985000D01*
X164881309Y-90964236D01*
X165151808Y-90882182D01*
X165401101Y-90748932D01*
X165619608Y-90569608D01*
X165628367Y-90558935D01*
X169972263Y-94902832D01*
X169998409Y-94934691D01*
X170030268Y-94960837D01*
X170030270Y-94960839D01*
X170125554Y-95039036D01*
X170270613Y-95116572D01*
X170428011Y-95164318D01*
X170591700Y-95180440D01*
X170632718Y-95176400D01*
X171943161Y-95176400D01*
X171913524Y-95274110D01*
X172034845Y-95504000D01*
X173228000Y-95504000D01*
X173228000Y-95484000D01*
X173482000Y-95484000D01*
X173482000Y-95504000D01*
X173502000Y-95504000D01*
X173502000Y-95758000D01*
X173482000Y-95758000D01*
X173482000Y-98044000D01*
X173502000Y-98044000D01*
X173502000Y-98298000D01*
X173482000Y-98298000D01*
X173482000Y-98318000D01*
X173228000Y-98318000D01*
X173228000Y-98298000D01*
X172034845Y-98298000D01*
X171913524Y-98527890D01*
X171958175Y-98675099D01*
X172083359Y-98937920D01*
X172257412Y-99171269D01*
X172473645Y-99366178D01*
X172590523Y-99435799D01*
X172525986Y-99470294D01*
X172299866Y-99655866D01*
X172114294Y-99881986D01*
X171976401Y-100139966D01*
X171891487Y-100419889D01*
X171862815Y-100711000D01*
X171891487Y-101002111D01*
X171935135Y-101146000D01*
X166166018Y-101146000D01*
X166125000Y-101141960D01*
X166083982Y-101146000D01*
X166083981Y-101146000D01*
X165961311Y-101158082D01*
X165803913Y-101205828D01*
X165658854Y-101283364D01*
X165531709Y-101387709D01*
X165505563Y-101419568D01*
X161581335Y-105343798D01*
X161521764Y-105147419D01*
X161393157Y-104906812D01*
X161220081Y-104695919D01*
X161009188Y-104522843D01*
X160798073Y-104410000D01*
X161009188Y-104297157D01*
X161220081Y-104124081D01*
X161393157Y-103913188D01*
X161521764Y-103672581D01*
X161600960Y-103411507D01*
X161627701Y-103140000D01*
X161600960Y-102868493D01*
X161521764Y-102607419D01*
X161393157Y-102366812D01*
X161220081Y-102155919D01*
X161009188Y-101982843D01*
X160798073Y-101870000D01*
X161009188Y-101757157D01*
X161220081Y-101584081D01*
X161393157Y-101373188D01*
X161521764Y-101132581D01*
X161600960Y-100871507D01*
X161627701Y-100600000D01*
X161600960Y-100328493D01*
X161521764Y-100067419D01*
X161393157Y-99826812D01*
X161220081Y-99615919D01*
X161009188Y-99442843D01*
X160798073Y-99330000D01*
X161009188Y-99217157D01*
X161220081Y-99044081D01*
X161393157Y-98833188D01*
X161521764Y-98592581D01*
X161600960Y-98331507D01*
X161627701Y-98060000D01*
X161600960Y-97788493D01*
X161521764Y-97527419D01*
X161393157Y-97286812D01*
X161220081Y-97075919D01*
X161009188Y-96902843D01*
X160798073Y-96790000D01*
X161009188Y-96677157D01*
X161220081Y-96504081D01*
X161393157Y-96293188D01*
X161521764Y-96052581D01*
X161541387Y-95987890D01*
X171913524Y-95987890D01*
X171958175Y-96135099D01*
X172083359Y-96397920D01*
X172257412Y-96631269D01*
X172473645Y-96826178D01*
X172599255Y-96901000D01*
X172473645Y-96975822D01*
X172257412Y-97170731D01*
X172083359Y-97404080D01*
X171958175Y-97666901D01*
X171913524Y-97814110D01*
X172034845Y-98044000D01*
X173228000Y-98044000D01*
X173228000Y-95758000D01*
X172034845Y-95758000D01*
X171913524Y-95987890D01*
X161541387Y-95987890D01*
X161600960Y-95791507D01*
X161627701Y-95520000D01*
X161600960Y-95248493D01*
X161521764Y-94987419D01*
X161393157Y-94746812D01*
X161349523Y-94693644D01*
X161950826Y-94092342D01*
X161982691Y-94066191D01*
X162087036Y-93939046D01*
X162164572Y-93793987D01*
X162212318Y-93636589D01*
X162224400Y-93513919D01*
X162224400Y-93513909D01*
X162228439Y-93472901D01*
X162224400Y-93431893D01*
X162224400Y-89956418D01*
X162228440Y-89915399D01*
X162212318Y-89751711D01*
X162164572Y-89594313D01*
X162087036Y-89449254D01*
X162069666Y-89428089D01*
X161982691Y-89322109D01*
X161950827Y-89295959D01*
X161707125Y-89052258D01*
X161741218Y-89048900D01*
X163252436Y-89048900D01*
X163185764Y-89268691D01*
G36*
X158378843Y-73433188D02*
G01*
X158551919Y-73644081D01*
X158762812Y-73817157D01*
X158973927Y-73930000D01*
X158762812Y-74042843D01*
X158551919Y-74215919D01*
X158378843Y-74426812D01*
X158250236Y-74667419D01*
X158171040Y-74928493D01*
X158144299Y-75200000D01*
X158171040Y-75471507D01*
X158250236Y-75732581D01*
X158378843Y-75973188D01*
X158551919Y-76184081D01*
X158762812Y-76357157D01*
X158973927Y-76470000D01*
X158762812Y-76582843D01*
X158551919Y-76755919D01*
X158378843Y-76966812D01*
X158250236Y-77207419D01*
X158171040Y-77468493D01*
X158144299Y-77740000D01*
X158171040Y-78011507D01*
X158250236Y-78272581D01*
X158378843Y-78513188D01*
X158402119Y-78541550D01*
X158400458Y-78543574D01*
X157769478Y-79174554D01*
X157737609Y-79200709D01*
X157659473Y-79295919D01*
X157633264Y-79327855D01*
X157555728Y-79472914D01*
X157507982Y-79630312D01*
X157491860Y-79794000D01*
X157495900Y-79835019D01*
X157495901Y-88352271D01*
X157491860Y-88393300D01*
X157507982Y-88556988D01*
X157555728Y-88714386D01*
X157630803Y-88854840D01*
X157633265Y-88859446D01*
X157737610Y-88986591D01*
X157769474Y-89012741D01*
X158398992Y-89642260D01*
X158378843Y-89666812D01*
X158250236Y-89907419D01*
X158171040Y-90168493D01*
X158144299Y-90440000D01*
X158171040Y-90711507D01*
X158250236Y-90972581D01*
X158378843Y-91213188D01*
X158404266Y-91244165D01*
X152868979Y-96779454D01*
X152837109Y-96805609D01*
X152736830Y-96927800D01*
X152732764Y-96932755D01*
X152655228Y-97077814D01*
X152607482Y-97235212D01*
X152591360Y-97398900D01*
X152595400Y-97439919D01*
X152595401Y-99672741D01*
X152535162Y-99582587D01*
X152533200Y-99580625D01*
X152533200Y-78936510D01*
X158259604Y-73210107D01*
X158378843Y-73433188D01*
X158378843Y-73433188D01*
G37*
X158378843Y-73433188D02*
X158551919Y-73644081D01*
X158762812Y-73817157D01*
X158973927Y-73930000D01*
X158762812Y-74042843D01*
X158551919Y-74215919D01*
X158378843Y-74426812D01*
X158250236Y-74667419D01*
X158171040Y-74928493D01*
X158144299Y-75200000D01*
X158171040Y-75471507D01*
X158250236Y-75732581D01*
X158378843Y-75973188D01*
X158551919Y-76184081D01*
X158762812Y-76357157D01*
X158973927Y-76470000D01*
X158762812Y-76582843D01*
X158551919Y-76755919D01*
X158378843Y-76966812D01*
X158250236Y-77207419D01*
X158171040Y-77468493D01*
X158144299Y-77740000D01*
X158171040Y-78011507D01*
X158250236Y-78272581D01*
X158378843Y-78513188D01*
X158402119Y-78541550D01*
X158400458Y-78543574D01*
X157769478Y-79174554D01*
X157737609Y-79200709D01*
X157659473Y-79295919D01*
X157633264Y-79327855D01*
X157555728Y-79472914D01*
X157507982Y-79630312D01*
X157491860Y-79794000D01*
X157495900Y-79835019D01*
X157495901Y-88352271D01*
X157491860Y-88393300D01*
X157507982Y-88556988D01*
X157555728Y-88714386D01*
X157630803Y-88854840D01*
X157633265Y-88859446D01*
X157737610Y-88986591D01*
X157769474Y-89012741D01*
X158398992Y-89642260D01*
X158378843Y-89666812D01*
X158250236Y-89907419D01*
X158171040Y-90168493D01*
X158144299Y-90440000D01*
X158171040Y-90711507D01*
X158250236Y-90972581D01*
X158378843Y-91213188D01*
X158404266Y-91244165D01*
X152868979Y-96779454D01*
X152837109Y-96805609D01*
X152736830Y-96927800D01*
X152732764Y-96932755D01*
X152655228Y-97077814D01*
X152607482Y-97235212D01*
X152591360Y-97398900D01*
X152595400Y-97439919D01*
X152595401Y-99672741D01*
X152535162Y-99582587D01*
X152533200Y-99580625D01*
X152533200Y-78936510D01*
X158259604Y-73210107D01*
X158378843Y-73433188D01*
G36*
X173482000Y-80264000D02*
G01*
X173502000Y-80264000D01*
X173502000Y-80518000D01*
X173482000Y-80518000D01*
X173482000Y-82804000D01*
X173502000Y-82804000D01*
X173502000Y-83058000D01*
X173482000Y-83058000D01*
X173482000Y-85344000D01*
X173502000Y-85344000D01*
X173502000Y-85598000D01*
X173482000Y-85598000D01*
X173482000Y-87884000D01*
X173502000Y-87884000D01*
X173502000Y-88138000D01*
X173482000Y-88138000D01*
X173482000Y-90424000D01*
X173502000Y-90424000D01*
X173502000Y-90678000D01*
X173482000Y-90678000D01*
X173482000Y-92964000D01*
X173502000Y-92964000D01*
X173502000Y-93218000D01*
X173482000Y-93218000D01*
X173482000Y-93238000D01*
X173228000Y-93238000D01*
X173228000Y-93218000D01*
X172034845Y-93218000D01*
X171913524Y-93447890D01*
X171931271Y-93506400D01*
X170937569Y-93506400D01*
X168339058Y-90907890D01*
X171913524Y-90907890D01*
X171958175Y-91055099D01*
X172083359Y-91317920D01*
X172257412Y-91551269D01*
X172473645Y-91746178D01*
X172599255Y-91821000D01*
X172473645Y-91895822D01*
X172257412Y-92090731D01*
X172083359Y-92324080D01*
X171958175Y-92586901D01*
X171913524Y-92734110D01*
X172034845Y-92964000D01*
X173228000Y-92964000D01*
X173228000Y-90678000D01*
X172034845Y-90678000D01*
X171913524Y-90907890D01*
X168339058Y-90907890D01*
X166419746Y-88988579D01*
X166393591Y-88956709D01*
X166266446Y-88852364D01*
X166121387Y-88774828D01*
X165963989Y-88727082D01*
X165841319Y-88715000D01*
X165841318Y-88715000D01*
X165800300Y-88710960D01*
X165779232Y-88713035D01*
X166124377Y-88367890D01*
X171913524Y-88367890D01*
X171958175Y-88515099D01*
X172083359Y-88777920D01*
X172257412Y-89011269D01*
X172473645Y-89206178D01*
X172599255Y-89281000D01*
X172473645Y-89355822D01*
X172257412Y-89550731D01*
X172083359Y-89784080D01*
X171958175Y-90046901D01*
X171913524Y-90194110D01*
X172034845Y-90424000D01*
X173228000Y-90424000D01*
X173228000Y-88138000D01*
X172034845Y-88138000D01*
X171913524Y-88367890D01*
X166124377Y-88367890D01*
X168664377Y-85827890D01*
X171913524Y-85827890D01*
X171958175Y-85975099D01*
X172083359Y-86237920D01*
X172257412Y-86471269D01*
X172473645Y-86666178D01*
X172599255Y-86741000D01*
X172473645Y-86815822D01*
X172257412Y-87010731D01*
X172083359Y-87244080D01*
X171958175Y-87506901D01*
X171913524Y-87654110D01*
X172034845Y-87884000D01*
X173228000Y-87884000D01*
X173228000Y-85598000D01*
X172034845Y-85598000D01*
X171913524Y-85827890D01*
X168664377Y-85827890D01*
X171204377Y-83287890D01*
X171913524Y-83287890D01*
X171958175Y-83435099D01*
X172083359Y-83697920D01*
X172257412Y-83931269D01*
X172473645Y-84126178D01*
X172599255Y-84201000D01*
X172473645Y-84275822D01*
X172257412Y-84470731D01*
X172083359Y-84704080D01*
X171958175Y-84966901D01*
X171913524Y-85114110D01*
X172034845Y-85344000D01*
X173228000Y-85344000D01*
X173228000Y-83058000D01*
X172034845Y-83058000D01*
X171913524Y-83287890D01*
X171204377Y-83287890D01*
X171915125Y-82577143D01*
X172034845Y-82804000D01*
X173228000Y-82804000D01*
X173228000Y-80518000D01*
X173208000Y-80518000D01*
X173208000Y-80264000D01*
X173228000Y-80264000D01*
X173228000Y-80244000D01*
X173482000Y-80244000D01*
X173482000Y-80264000D01*
X173482000Y-80264000D01*
G37*
X173482000Y-80264000D02*
X173502000Y-80264000D01*
X173502000Y-80518000D01*
X173482000Y-80518000D01*
X173482000Y-82804000D01*
X173502000Y-82804000D01*
X173502000Y-83058000D01*
X173482000Y-83058000D01*
X173482000Y-85344000D01*
X173502000Y-85344000D01*
X173502000Y-85598000D01*
X173482000Y-85598000D01*
X173482000Y-87884000D01*
X173502000Y-87884000D01*
X173502000Y-88138000D01*
X173482000Y-88138000D01*
X173482000Y-90424000D01*
X173502000Y-90424000D01*
X173502000Y-90678000D01*
X173482000Y-90678000D01*
X173482000Y-92964000D01*
X173502000Y-92964000D01*
X173502000Y-93218000D01*
X173482000Y-93218000D01*
X173482000Y-93238000D01*
X173228000Y-93238000D01*
X173228000Y-93218000D01*
X172034845Y-93218000D01*
X171913524Y-93447890D01*
X171931271Y-93506400D01*
X170937569Y-93506400D01*
X168339058Y-90907890D01*
X171913524Y-90907890D01*
X171958175Y-91055099D01*
X172083359Y-91317920D01*
X172257412Y-91551269D01*
X172473645Y-91746178D01*
X172599255Y-91821000D01*
X172473645Y-91895822D01*
X172257412Y-92090731D01*
X172083359Y-92324080D01*
X171958175Y-92586901D01*
X171913524Y-92734110D01*
X172034845Y-92964000D01*
X173228000Y-92964000D01*
X173228000Y-90678000D01*
X172034845Y-90678000D01*
X171913524Y-90907890D01*
X168339058Y-90907890D01*
X166419746Y-88988579D01*
X166393591Y-88956709D01*
X166266446Y-88852364D01*
X166121387Y-88774828D01*
X165963989Y-88727082D01*
X165841319Y-88715000D01*
X165841318Y-88715000D01*
X165800300Y-88710960D01*
X165779232Y-88713035D01*
X166124377Y-88367890D01*
X171913524Y-88367890D01*
X171958175Y-88515099D01*
X172083359Y-88777920D01*
X172257412Y-89011269D01*
X172473645Y-89206178D01*
X172599255Y-89281000D01*
X172473645Y-89355822D01*
X172257412Y-89550731D01*
X172083359Y-89784080D01*
X171958175Y-90046901D01*
X171913524Y-90194110D01*
X172034845Y-90424000D01*
X173228000Y-90424000D01*
X173228000Y-88138000D01*
X172034845Y-88138000D01*
X171913524Y-88367890D01*
X166124377Y-88367890D01*
X168664377Y-85827890D01*
X171913524Y-85827890D01*
X171958175Y-85975099D01*
X172083359Y-86237920D01*
X172257412Y-86471269D01*
X172473645Y-86666178D01*
X172599255Y-86741000D01*
X172473645Y-86815822D01*
X172257412Y-87010731D01*
X172083359Y-87244080D01*
X171958175Y-87506901D01*
X171913524Y-87654110D01*
X172034845Y-87884000D01*
X173228000Y-87884000D01*
X173228000Y-85598000D01*
X172034845Y-85598000D01*
X171913524Y-85827890D01*
X168664377Y-85827890D01*
X171204377Y-83287890D01*
X171913524Y-83287890D01*
X171958175Y-83435099D01*
X172083359Y-83697920D01*
X172257412Y-83931269D01*
X172473645Y-84126178D01*
X172599255Y-84201000D01*
X172473645Y-84275822D01*
X172257412Y-84470731D01*
X172083359Y-84704080D01*
X171958175Y-84966901D01*
X171913524Y-85114110D01*
X172034845Y-85344000D01*
X173228000Y-85344000D01*
X173228000Y-83058000D01*
X172034845Y-83058000D01*
X171913524Y-83287890D01*
X171204377Y-83287890D01*
X171915125Y-82577143D01*
X172034845Y-82804000D01*
X173228000Y-82804000D01*
X173228000Y-80518000D01*
X173208000Y-80518000D01*
X173208000Y-80264000D01*
X173228000Y-80264000D01*
X173228000Y-80244000D01*
X173482000Y-80244000D01*
X173482000Y-80264000D01*
G36*
X109493748Y-90110858D02*
G01*
X109479605Y-90125000D01*
X109493748Y-90139143D01*
X109314143Y-90318748D01*
X109300000Y-90304605D01*
X109285858Y-90318748D01*
X109106253Y-90139143D01*
X109120395Y-90125000D01*
X109106253Y-90110858D01*
X109285858Y-89931253D01*
X109300000Y-89945395D01*
X109314143Y-89931253D01*
X109493748Y-90110858D01*
X109493748Y-90110858D01*
G37*
X109493748Y-90110858D02*
X109479605Y-90125000D01*
X109493748Y-90139143D01*
X109314143Y-90318748D01*
X109300000Y-90304605D01*
X109285858Y-90318748D01*
X109106253Y-90139143D01*
X109120395Y-90125000D01*
X109106253Y-90110858D01*
X109285858Y-89931253D01*
X109300000Y-89945395D01*
X109314143Y-89931253D01*
X109493748Y-90110858D01*
G36*
X112509000Y-85115000D02*
G01*
X112529000Y-85115000D01*
X112529000Y-85369000D01*
X112509000Y-85369000D01*
X112509000Y-86627000D01*
X112699433Y-86627000D01*
X112395633Y-86930800D01*
X112384637Y-86930800D01*
X112175017Y-86972496D01*
X111977560Y-87054285D01*
X111799853Y-87173025D01*
X111648725Y-87324153D01*
X111529985Y-87501860D01*
X111448196Y-87699317D01*
X111406500Y-87908937D01*
X111406500Y-88089600D01*
X111329118Y-88089600D01*
X111288099Y-88085560D01*
X111227384Y-88091540D01*
X111124411Y-88101682D01*
X110967013Y-88149428D01*
X110821954Y-88226964D01*
X110694809Y-88331309D01*
X110668658Y-88363174D01*
X110355696Y-88676136D01*
X110453515Y-88529740D01*
X110535304Y-88332283D01*
X110577000Y-88122663D01*
X110577000Y-87908937D01*
X110535304Y-87699317D01*
X110453515Y-87501860D01*
X110334775Y-87324153D01*
X110183647Y-87173025D01*
X110005940Y-87054285D01*
X109808483Y-86972496D01*
X109807390Y-86972279D01*
X110713069Y-86066600D01*
X110724063Y-86066600D01*
X110895684Y-86032462D01*
X110962855Y-86131540D01*
X111156939Y-86323028D01*
X111384651Y-86472972D01*
X111637240Y-86575611D01*
X111905000Y-86627000D01*
X112255000Y-86627000D01*
X112255000Y-85369000D01*
X112235000Y-85369000D01*
X112235000Y-85115000D01*
X112255000Y-85115000D01*
X112255000Y-85095000D01*
X112509000Y-85095000D01*
X112509000Y-85115000D01*
X112509000Y-85115000D01*
G37*
X112509000Y-85115000D02*
X112529000Y-85115000D01*
X112529000Y-85369000D01*
X112509000Y-85369000D01*
X112509000Y-86627000D01*
X112699433Y-86627000D01*
X112395633Y-86930800D01*
X112384637Y-86930800D01*
X112175017Y-86972496D01*
X111977560Y-87054285D01*
X111799853Y-87173025D01*
X111648725Y-87324153D01*
X111529985Y-87501860D01*
X111448196Y-87699317D01*
X111406500Y-87908937D01*
X111406500Y-88089600D01*
X111329118Y-88089600D01*
X111288099Y-88085560D01*
X111227384Y-88091540D01*
X111124411Y-88101682D01*
X110967013Y-88149428D01*
X110821954Y-88226964D01*
X110694809Y-88331309D01*
X110668658Y-88363174D01*
X110355696Y-88676136D01*
X110453515Y-88529740D01*
X110535304Y-88332283D01*
X110577000Y-88122663D01*
X110577000Y-87908937D01*
X110535304Y-87699317D01*
X110453515Y-87501860D01*
X110334775Y-87324153D01*
X110183647Y-87173025D01*
X110005940Y-87054285D01*
X109808483Y-86972496D01*
X109807390Y-86972279D01*
X110713069Y-86066600D01*
X110724063Y-86066600D01*
X110895684Y-86032462D01*
X110962855Y-86131540D01*
X111156939Y-86323028D01*
X111384651Y-86472972D01*
X111637240Y-86575611D01*
X111905000Y-86627000D01*
X112255000Y-86627000D01*
X112255000Y-85369000D01*
X112235000Y-85369000D01*
X112235000Y-85115000D01*
X112255000Y-85115000D01*
X112255000Y-85095000D01*
X112509000Y-85095000D01*
X112509000Y-85115000D01*
G36*
X111258812Y-81319157D02*
G01*
X111469927Y-81432000D01*
X111258812Y-81544843D01*
X111047919Y-81717919D01*
X110874843Y-81928812D01*
X110746236Y-82169419D01*
X110667040Y-82430493D01*
X110640299Y-82702000D01*
X110667040Y-82973507D01*
X110746236Y-83234581D01*
X110874843Y-83475188D01*
X111047919Y-83686081D01*
X111258812Y-83859157D01*
X111474578Y-83974486D01*
X111384651Y-84011028D01*
X111250142Y-84099600D01*
X111131140Y-84020085D01*
X110933683Y-83938296D01*
X110724063Y-83896600D01*
X110510337Y-83896600D01*
X110300717Y-83938296D01*
X110103260Y-84020085D01*
X109925553Y-84138825D01*
X109774425Y-84289953D01*
X109655685Y-84467660D01*
X109573896Y-84665117D01*
X109532200Y-84874737D01*
X109532200Y-84885731D01*
X107241933Y-87176000D01*
X104881353Y-87176000D01*
X104752008Y-87018392D01*
X104539287Y-86843817D01*
X104346929Y-86741000D01*
X104539287Y-86638183D01*
X104752008Y-86463608D01*
X104881353Y-86306000D01*
X105531682Y-86306000D01*
X105572700Y-86310040D01*
X105613718Y-86306000D01*
X105613719Y-86306000D01*
X105736389Y-86293918D01*
X105893787Y-86246172D01*
X106038846Y-86168636D01*
X106165991Y-86064291D01*
X106192146Y-86032421D01*
X111064709Y-81159860D01*
X111258812Y-81319157D01*
X111258812Y-81319157D01*
G37*
X111258812Y-81319157D02*
X111469927Y-81432000D01*
X111258812Y-81544843D01*
X111047919Y-81717919D01*
X110874843Y-81928812D01*
X110746236Y-82169419D01*
X110667040Y-82430493D01*
X110640299Y-82702000D01*
X110667040Y-82973507D01*
X110746236Y-83234581D01*
X110874843Y-83475188D01*
X111047919Y-83686081D01*
X111258812Y-83859157D01*
X111474578Y-83974486D01*
X111384651Y-84011028D01*
X111250142Y-84099600D01*
X111131140Y-84020085D01*
X110933683Y-83938296D01*
X110724063Y-83896600D01*
X110510337Y-83896600D01*
X110300717Y-83938296D01*
X110103260Y-84020085D01*
X109925553Y-84138825D01*
X109774425Y-84289953D01*
X109655685Y-84467660D01*
X109573896Y-84665117D01*
X109532200Y-84874737D01*
X109532200Y-84885731D01*
X107241933Y-87176000D01*
X104881353Y-87176000D01*
X104752008Y-87018392D01*
X104539287Y-86843817D01*
X104346929Y-86741000D01*
X104539287Y-86638183D01*
X104752008Y-86463608D01*
X104881353Y-86306000D01*
X105531682Y-86306000D01*
X105572700Y-86310040D01*
X105613718Y-86306000D01*
X105613719Y-86306000D01*
X105736389Y-86293918D01*
X105893787Y-86246172D01*
X106038846Y-86168636D01*
X106165991Y-86064291D01*
X106192146Y-86032421D01*
X111064709Y-81159860D01*
X111258812Y-81319157D01*
G36*
X120382296Y-66236903D02*
G01*
X120138329Y-66308486D01*
X120017429Y-66563996D01*
X119948700Y-66838184D01*
X119934783Y-67120512D01*
X119976213Y-67400130D01*
X120071397Y-67666292D01*
X120138329Y-67791514D01*
X120382298Y-67863097D01*
X121195395Y-67050000D01*
X121181253Y-67035858D01*
X121360858Y-66856253D01*
X121375000Y-66870395D01*
X121389143Y-66856253D01*
X121568748Y-67035858D01*
X121554605Y-67050000D01*
X121568748Y-67064143D01*
X121389143Y-67243748D01*
X121375000Y-67229605D01*
X120561903Y-68042702D01*
X120633486Y-68286671D01*
X120888996Y-68407571D01*
X121163184Y-68476300D01*
X121445512Y-68490217D01*
X121725130Y-68448787D01*
X121828919Y-68411670D01*
X121273791Y-68966799D01*
X121125188Y-68844843D01*
X120884581Y-68716236D01*
X120623507Y-68637040D01*
X120420037Y-68617000D01*
X119583963Y-68617000D01*
X119380493Y-68637040D01*
X119119419Y-68716236D01*
X118878812Y-68844843D01*
X118667919Y-69017919D01*
X118494843Y-69228812D01*
X118366236Y-69469419D01*
X118287040Y-69730493D01*
X118260299Y-70002000D01*
X118287040Y-70273507D01*
X118300324Y-70317300D01*
X118175118Y-70317300D01*
X118134100Y-70313260D01*
X118093081Y-70317300D01*
X117970411Y-70329382D01*
X117813013Y-70377128D01*
X117761804Y-70404500D01*
X117690137Y-70404500D01*
X117480517Y-70446196D01*
X117283060Y-70527985D01*
X117105353Y-70646725D01*
X116954225Y-70797853D01*
X116835485Y-70975560D01*
X116753696Y-71173017D01*
X116712000Y-71382637D01*
X116712000Y-71596363D01*
X116753696Y-71805983D01*
X116835485Y-72003440D01*
X116954225Y-72181147D01*
X117105353Y-72332275D01*
X117283060Y-72451015D01*
X117480517Y-72532804D01*
X117690137Y-72574500D01*
X117903863Y-72574500D01*
X118113483Y-72532804D01*
X118267488Y-72469014D01*
X118260299Y-72542000D01*
X118287040Y-72813507D01*
X118366236Y-73074581D01*
X118494843Y-73315188D01*
X118667919Y-73526081D01*
X118878812Y-73699157D01*
X119089927Y-73812000D01*
X118878812Y-73924843D01*
X118667919Y-74097919D01*
X118494843Y-74308812D01*
X118366236Y-74549419D01*
X118287040Y-74810493D01*
X118260299Y-75082000D01*
X118287040Y-75353507D01*
X118366236Y-75614581D01*
X118494843Y-75855188D01*
X118667919Y-76066081D01*
X118878812Y-76239157D01*
X119089927Y-76352000D01*
X118878812Y-76464843D01*
X118667919Y-76637919D01*
X118494843Y-76848812D01*
X118366236Y-77089419D01*
X118287040Y-77350493D01*
X118260299Y-77622000D01*
X118287040Y-77893507D01*
X118300355Y-77937400D01*
X118029368Y-77937400D01*
X116611946Y-76519979D01*
X116585791Y-76488109D01*
X116458646Y-76383764D01*
X116313587Y-76306228D01*
X116156189Y-76258482D01*
X116033519Y-76246400D01*
X116033518Y-76246400D01*
X115992500Y-76242360D01*
X115980558Y-76243536D01*
X115975647Y-76238625D01*
X115797940Y-76119885D01*
X115600483Y-76038096D01*
X115390863Y-75996400D01*
X115177137Y-75996400D01*
X114967517Y-76038096D01*
X114770060Y-76119885D01*
X114592353Y-76238625D01*
X114441225Y-76389753D01*
X114322485Y-76567460D01*
X114240696Y-76764917D01*
X114199000Y-76974537D01*
X114199000Y-77188263D01*
X114240696Y-77397883D01*
X114322485Y-77595340D01*
X114441225Y-77773047D01*
X114592353Y-77924175D01*
X114770060Y-78042915D01*
X114967517Y-78124704D01*
X115177137Y-78166400D01*
X115390863Y-78166400D01*
X115489529Y-78146774D01*
X115377485Y-78314460D01*
X115295696Y-78511917D01*
X115254000Y-78721537D01*
X115254000Y-78935263D01*
X115295696Y-79144883D01*
X115377485Y-79342340D01*
X115496225Y-79520047D01*
X115647353Y-79671175D01*
X115825060Y-79789915D01*
X116022517Y-79871704D01*
X116232137Y-79913400D01*
X116243133Y-79913400D01*
X116838032Y-80508300D01*
X116193443Y-80508300D01*
X116161615Y-80431460D01*
X116042875Y-80253753D01*
X115891747Y-80102625D01*
X115714040Y-79983885D01*
X115516583Y-79902096D01*
X115306963Y-79860400D01*
X115093237Y-79860400D01*
X114883617Y-79902096D01*
X114686160Y-79983885D01*
X114508453Y-80102625D01*
X114357325Y-80253753D01*
X114238585Y-80431460D01*
X114156796Y-80628917D01*
X114115100Y-80838537D01*
X114115100Y-81052263D01*
X114156796Y-81261883D01*
X114238585Y-81459340D01*
X114357325Y-81637047D01*
X114508453Y-81788175D01*
X114686160Y-81906915D01*
X114883617Y-81988704D01*
X115093237Y-82030400D01*
X115119016Y-82030400D01*
X115131854Y-82040936D01*
X115276913Y-82118472D01*
X115434311Y-82166218D01*
X115556981Y-82178300D01*
X115556982Y-82178300D01*
X115598000Y-82182340D01*
X115639018Y-82178300D01*
X118363542Y-82178300D01*
X118287040Y-82430493D01*
X118260299Y-82702000D01*
X118287040Y-82973507D01*
X118336635Y-83137000D01*
X116576318Y-83137000D01*
X116535300Y-83132960D01*
X116494281Y-83137000D01*
X116371611Y-83149082D01*
X116214213Y-83196828D01*
X116069154Y-83274364D01*
X115975941Y-83350862D01*
X115942009Y-83378709D01*
X115915863Y-83410568D01*
X114117000Y-85209432D01*
X114117000Y-85114998D01*
X113951657Y-85114998D01*
X114074318Y-84900815D01*
X114060173Y-84829316D01*
X113954142Y-84578132D01*
X113801145Y-84352460D01*
X113607061Y-84160972D01*
X113379349Y-84011028D01*
X113289422Y-83974486D01*
X113505188Y-83859157D01*
X113716081Y-83686081D01*
X113889157Y-83475188D01*
X114017764Y-83234581D01*
X114096960Y-82973507D01*
X114123701Y-82702000D01*
X114096960Y-82430493D01*
X114017764Y-82169419D01*
X113889157Y-81928812D01*
X113716081Y-81717919D01*
X113505188Y-81544843D01*
X113294073Y-81432000D01*
X113505188Y-81319157D01*
X113716081Y-81146081D01*
X113889157Y-80935188D01*
X114017764Y-80694581D01*
X114096960Y-80433507D01*
X114123701Y-80162000D01*
X114096960Y-79890493D01*
X114017764Y-79629419D01*
X113889157Y-79388812D01*
X113716081Y-79177919D01*
X113505188Y-79004843D01*
X113294073Y-78892000D01*
X113505188Y-78779157D01*
X113716081Y-78606081D01*
X113889157Y-78395188D01*
X114017764Y-78154581D01*
X114096960Y-77893507D01*
X114123701Y-77622000D01*
X114096960Y-77350493D01*
X114017764Y-77089419D01*
X113889157Y-76848812D01*
X113716081Y-76637919D01*
X113505188Y-76464843D01*
X113294073Y-76352000D01*
X113505188Y-76239157D01*
X113716081Y-76066081D01*
X113889157Y-75855188D01*
X114017764Y-75614581D01*
X114096960Y-75353507D01*
X114123701Y-75082000D01*
X114096960Y-74810493D01*
X114017764Y-74549419D01*
X113889157Y-74308812D01*
X113716081Y-74097919D01*
X113505188Y-73924843D01*
X113294073Y-73812000D01*
X113505188Y-73699157D01*
X113716081Y-73526081D01*
X113889157Y-73315188D01*
X114017764Y-73074581D01*
X114096960Y-72813507D01*
X114123701Y-72542000D01*
X114096960Y-72270493D01*
X114017764Y-72009419D01*
X113889157Y-71768812D01*
X113716081Y-71557919D01*
X113505188Y-71384843D01*
X113417000Y-71337706D01*
X113417000Y-71206294D01*
X113505188Y-71159157D01*
X113716081Y-70986081D01*
X113889157Y-70775188D01*
X114017764Y-70534581D01*
X114096960Y-70273507D01*
X114123701Y-70002000D01*
X114096960Y-69730493D01*
X114017764Y-69469419D01*
X113889157Y-69228812D01*
X113716081Y-69017919D01*
X113505188Y-68844843D01*
X113417000Y-68797706D01*
X113417000Y-68702535D01*
X113422007Y-68651700D01*
X113416791Y-68598744D01*
X113402024Y-68448805D01*
X113342841Y-68253707D01*
X113246734Y-68073903D01*
X113117396Y-67916304D01*
X113077903Y-67883893D01*
X113017395Y-67823385D01*
X113096680Y-67704727D01*
X113204853Y-67443574D01*
X113260000Y-67166335D01*
X113260000Y-66883665D01*
X113204853Y-66606426D01*
X113096680Y-66345273D01*
X112989589Y-66185000D01*
X120330393Y-66185000D01*
X120382296Y-66236903D01*
X120382296Y-66236903D01*
G37*
X120382296Y-66236903D02*
X120138329Y-66308486D01*
X120017429Y-66563996D01*
X119948700Y-66838184D01*
X119934783Y-67120512D01*
X119976213Y-67400130D01*
X120071397Y-67666292D01*
X120138329Y-67791514D01*
X120382298Y-67863097D01*
X121195395Y-67050000D01*
X121181253Y-67035858D01*
X121360858Y-66856253D01*
X121375000Y-66870395D01*
X121389143Y-66856253D01*
X121568748Y-67035858D01*
X121554605Y-67050000D01*
X121568748Y-67064143D01*
X121389143Y-67243748D01*
X121375000Y-67229605D01*
X120561903Y-68042702D01*
X120633486Y-68286671D01*
X120888996Y-68407571D01*
X121163184Y-68476300D01*
X121445512Y-68490217D01*
X121725130Y-68448787D01*
X121828919Y-68411670D01*
X121273791Y-68966799D01*
X121125188Y-68844843D01*
X120884581Y-68716236D01*
X120623507Y-68637040D01*
X120420037Y-68617000D01*
X119583963Y-68617000D01*
X119380493Y-68637040D01*
X119119419Y-68716236D01*
X118878812Y-68844843D01*
X118667919Y-69017919D01*
X118494843Y-69228812D01*
X118366236Y-69469419D01*
X118287040Y-69730493D01*
X118260299Y-70002000D01*
X118287040Y-70273507D01*
X118300324Y-70317300D01*
X118175118Y-70317300D01*
X118134100Y-70313260D01*
X118093081Y-70317300D01*
X117970411Y-70329382D01*
X117813013Y-70377128D01*
X117761804Y-70404500D01*
X117690137Y-70404500D01*
X117480517Y-70446196D01*
X117283060Y-70527985D01*
X117105353Y-70646725D01*
X116954225Y-70797853D01*
X116835485Y-70975560D01*
X116753696Y-71173017D01*
X116712000Y-71382637D01*
X116712000Y-71596363D01*
X116753696Y-71805983D01*
X116835485Y-72003440D01*
X116954225Y-72181147D01*
X117105353Y-72332275D01*
X117283060Y-72451015D01*
X117480517Y-72532804D01*
X117690137Y-72574500D01*
X117903863Y-72574500D01*
X118113483Y-72532804D01*
X118267488Y-72469014D01*
X118260299Y-72542000D01*
X118287040Y-72813507D01*
X118366236Y-73074581D01*
X118494843Y-73315188D01*
X118667919Y-73526081D01*
X118878812Y-73699157D01*
X119089927Y-73812000D01*
X118878812Y-73924843D01*
X118667919Y-74097919D01*
X118494843Y-74308812D01*
X118366236Y-74549419D01*
X118287040Y-74810493D01*
X118260299Y-75082000D01*
X118287040Y-75353507D01*
X118366236Y-75614581D01*
X118494843Y-75855188D01*
X118667919Y-76066081D01*
X118878812Y-76239157D01*
X119089927Y-76352000D01*
X118878812Y-76464843D01*
X118667919Y-76637919D01*
X118494843Y-76848812D01*
X118366236Y-77089419D01*
X118287040Y-77350493D01*
X118260299Y-77622000D01*
X118287040Y-77893507D01*
X118300355Y-77937400D01*
X118029368Y-77937400D01*
X116611946Y-76519979D01*
X116585791Y-76488109D01*
X116458646Y-76383764D01*
X116313587Y-76306228D01*
X116156189Y-76258482D01*
X116033519Y-76246400D01*
X116033518Y-76246400D01*
X115992500Y-76242360D01*
X115980558Y-76243536D01*
X115975647Y-76238625D01*
X115797940Y-76119885D01*
X115600483Y-76038096D01*
X115390863Y-75996400D01*
X115177137Y-75996400D01*
X114967517Y-76038096D01*
X114770060Y-76119885D01*
X114592353Y-76238625D01*
X114441225Y-76389753D01*
X114322485Y-76567460D01*
X114240696Y-76764917D01*
X114199000Y-76974537D01*
X114199000Y-77188263D01*
X114240696Y-77397883D01*
X114322485Y-77595340D01*
X114441225Y-77773047D01*
X114592353Y-77924175D01*
X114770060Y-78042915D01*
X114967517Y-78124704D01*
X115177137Y-78166400D01*
X115390863Y-78166400D01*
X115489529Y-78146774D01*
X115377485Y-78314460D01*
X115295696Y-78511917D01*
X115254000Y-78721537D01*
X115254000Y-78935263D01*
X115295696Y-79144883D01*
X115377485Y-79342340D01*
X115496225Y-79520047D01*
X115647353Y-79671175D01*
X115825060Y-79789915D01*
X116022517Y-79871704D01*
X116232137Y-79913400D01*
X116243133Y-79913400D01*
X116838032Y-80508300D01*
X116193443Y-80508300D01*
X116161615Y-80431460D01*
X116042875Y-80253753D01*
X115891747Y-80102625D01*
X115714040Y-79983885D01*
X115516583Y-79902096D01*
X115306963Y-79860400D01*
X115093237Y-79860400D01*
X114883617Y-79902096D01*
X114686160Y-79983885D01*
X114508453Y-80102625D01*
X114357325Y-80253753D01*
X114238585Y-80431460D01*
X114156796Y-80628917D01*
X114115100Y-80838537D01*
X114115100Y-81052263D01*
X114156796Y-81261883D01*
X114238585Y-81459340D01*
X114357325Y-81637047D01*
X114508453Y-81788175D01*
X114686160Y-81906915D01*
X114883617Y-81988704D01*
X115093237Y-82030400D01*
X115119016Y-82030400D01*
X115131854Y-82040936D01*
X115276913Y-82118472D01*
X115434311Y-82166218D01*
X115556981Y-82178300D01*
X115556982Y-82178300D01*
X115598000Y-82182340D01*
X115639018Y-82178300D01*
X118363542Y-82178300D01*
X118287040Y-82430493D01*
X118260299Y-82702000D01*
X118287040Y-82973507D01*
X118336635Y-83137000D01*
X116576318Y-83137000D01*
X116535300Y-83132960D01*
X116494281Y-83137000D01*
X116371611Y-83149082D01*
X116214213Y-83196828D01*
X116069154Y-83274364D01*
X115975941Y-83350862D01*
X115942009Y-83378709D01*
X115915863Y-83410568D01*
X114117000Y-85209432D01*
X114117000Y-85114998D01*
X113951657Y-85114998D01*
X114074318Y-84900815D01*
X114060173Y-84829316D01*
X113954142Y-84578132D01*
X113801145Y-84352460D01*
X113607061Y-84160972D01*
X113379349Y-84011028D01*
X113289422Y-83974486D01*
X113505188Y-83859157D01*
X113716081Y-83686081D01*
X113889157Y-83475188D01*
X114017764Y-83234581D01*
X114096960Y-82973507D01*
X114123701Y-82702000D01*
X114096960Y-82430493D01*
X114017764Y-82169419D01*
X113889157Y-81928812D01*
X113716081Y-81717919D01*
X113505188Y-81544843D01*
X113294073Y-81432000D01*
X113505188Y-81319157D01*
X113716081Y-81146081D01*
X113889157Y-80935188D01*
X114017764Y-80694581D01*
X114096960Y-80433507D01*
X114123701Y-80162000D01*
X114096960Y-79890493D01*
X114017764Y-79629419D01*
X113889157Y-79388812D01*
X113716081Y-79177919D01*
X113505188Y-79004843D01*
X113294073Y-78892000D01*
X113505188Y-78779157D01*
X113716081Y-78606081D01*
X113889157Y-78395188D01*
X114017764Y-78154581D01*
X114096960Y-77893507D01*
X114123701Y-77622000D01*
X114096960Y-77350493D01*
X114017764Y-77089419D01*
X113889157Y-76848812D01*
X113716081Y-76637919D01*
X113505188Y-76464843D01*
X113294073Y-76352000D01*
X113505188Y-76239157D01*
X113716081Y-76066081D01*
X113889157Y-75855188D01*
X114017764Y-75614581D01*
X114096960Y-75353507D01*
X114123701Y-75082000D01*
X114096960Y-74810493D01*
X114017764Y-74549419D01*
X113889157Y-74308812D01*
X113716081Y-74097919D01*
X113505188Y-73924843D01*
X113294073Y-73812000D01*
X113505188Y-73699157D01*
X113716081Y-73526081D01*
X113889157Y-73315188D01*
X114017764Y-73074581D01*
X114096960Y-72813507D01*
X114123701Y-72542000D01*
X114096960Y-72270493D01*
X114017764Y-72009419D01*
X113889157Y-71768812D01*
X113716081Y-71557919D01*
X113505188Y-71384843D01*
X113417000Y-71337706D01*
X113417000Y-71206294D01*
X113505188Y-71159157D01*
X113716081Y-70986081D01*
X113889157Y-70775188D01*
X114017764Y-70534581D01*
X114096960Y-70273507D01*
X114123701Y-70002000D01*
X114096960Y-69730493D01*
X114017764Y-69469419D01*
X113889157Y-69228812D01*
X113716081Y-69017919D01*
X113505188Y-68844843D01*
X113417000Y-68797706D01*
X113417000Y-68702535D01*
X113422007Y-68651700D01*
X113416791Y-68598744D01*
X113402024Y-68448805D01*
X113342841Y-68253707D01*
X113246734Y-68073903D01*
X113117396Y-67916304D01*
X113077903Y-67883893D01*
X113017395Y-67823385D01*
X113096680Y-67704727D01*
X113204853Y-67443574D01*
X113260000Y-67166335D01*
X113260000Y-66883665D01*
X113204853Y-66606426D01*
X113096680Y-66345273D01*
X112989589Y-66185000D01*
X120330393Y-66185000D01*
X120382296Y-66236903D01*
G36*
X108332296Y-66211903D02*
G01*
X108088329Y-66283486D01*
X107967429Y-66538996D01*
X107898700Y-66813184D01*
X107884783Y-67095512D01*
X107926213Y-67375130D01*
X108021397Y-67641292D01*
X108088329Y-67766514D01*
X108332298Y-67838097D01*
X109145395Y-67025000D01*
X109131253Y-67010858D01*
X109310858Y-66831253D01*
X109325000Y-66845395D01*
X109339143Y-66831253D01*
X109518748Y-67010858D01*
X109504605Y-67025000D01*
X110317702Y-67838097D01*
X110561671Y-67766514D01*
X110575324Y-67737659D01*
X110710363Y-67939759D01*
X110790000Y-68019396D01*
X110790000Y-68043871D01*
X110784994Y-68094700D01*
X110790000Y-68145528D01*
X110790000Y-68145537D01*
X110804976Y-68297594D01*
X110864159Y-68492692D01*
X110960266Y-68672497D01*
X111089604Y-68830096D01*
X111129097Y-68862507D01*
X111177865Y-68911275D01*
X111047919Y-69017919D01*
X110874843Y-69228812D01*
X110746236Y-69469419D01*
X110667040Y-69730493D01*
X110640299Y-70002000D01*
X110667040Y-70273507D01*
X110746236Y-70534581D01*
X110874843Y-70775188D01*
X111047919Y-70986081D01*
X111258812Y-71159157D01*
X111347001Y-71206295D01*
X111347000Y-71337705D01*
X111258812Y-71384843D01*
X111047919Y-71557919D01*
X110874843Y-71768812D01*
X110746236Y-72009419D01*
X110667040Y-72270493D01*
X110640299Y-72542000D01*
X110667040Y-72813507D01*
X110746236Y-73074581D01*
X110874843Y-73315188D01*
X111047919Y-73526081D01*
X111258812Y-73699157D01*
X111469927Y-73812000D01*
X111258812Y-73924843D01*
X111047919Y-74097919D01*
X110874843Y-74308812D01*
X110746236Y-74549419D01*
X110667040Y-74810493D01*
X110640299Y-75082000D01*
X110667040Y-75353507D01*
X110680324Y-75397300D01*
X109121418Y-75397300D01*
X109080400Y-75393260D01*
X109039381Y-75397300D01*
X108916711Y-75409382D01*
X108759313Y-75457128D01*
X108614254Y-75534664D01*
X108524186Y-75608581D01*
X108487109Y-75639009D01*
X108460963Y-75670868D01*
X106977277Y-77154555D01*
X106885447Y-77062725D01*
X106707740Y-76943985D01*
X106510283Y-76862196D01*
X106300663Y-76820500D01*
X106086937Y-76820500D01*
X105877317Y-76862196D01*
X105679860Y-76943985D01*
X105572082Y-77016000D01*
X104881353Y-77016000D01*
X104752008Y-76858392D01*
X104539287Y-76683817D01*
X104346929Y-76581000D01*
X104539287Y-76478183D01*
X104752008Y-76303608D01*
X104926583Y-76090887D01*
X105056304Y-75848195D01*
X105136186Y-75584860D01*
X105163159Y-75311000D01*
X105136186Y-75037140D01*
X105056304Y-74773805D01*
X104926583Y-74531113D01*
X104752008Y-74318392D01*
X104539287Y-74143817D01*
X104346929Y-74041000D01*
X104539287Y-73938183D01*
X104752008Y-73763608D01*
X104881353Y-73606000D01*
X105432533Y-73606000D01*
X105643500Y-73816967D01*
X105643500Y-73827963D01*
X105685196Y-74037583D01*
X105766985Y-74235040D01*
X105885725Y-74412747D01*
X106036853Y-74563875D01*
X106214560Y-74682615D01*
X106412017Y-74764404D01*
X106621637Y-74806100D01*
X106835363Y-74806100D01*
X107044983Y-74764404D01*
X107242440Y-74682615D01*
X107420147Y-74563875D01*
X107571275Y-74412747D01*
X107690015Y-74235040D01*
X107771804Y-74037583D01*
X107813500Y-73827963D01*
X107813500Y-73614237D01*
X107771804Y-73404617D01*
X107690015Y-73207160D01*
X107571275Y-73029453D01*
X107420147Y-72878325D01*
X107242440Y-72759585D01*
X107044983Y-72677796D01*
X106835363Y-72636100D01*
X106824367Y-72636100D01*
X106401850Y-72213582D01*
X106440640Y-72197515D01*
X106618347Y-72078775D01*
X106769475Y-71927647D01*
X106888215Y-71749940D01*
X106970004Y-71552483D01*
X107011700Y-71342863D01*
X107011700Y-71129137D01*
X106970004Y-70919517D01*
X106888215Y-70722060D01*
X106769475Y-70544353D01*
X106618347Y-70393225D01*
X106440640Y-70274485D01*
X106243183Y-70192696D01*
X106033563Y-70151000D01*
X106022568Y-70151000D01*
X105541145Y-69669578D01*
X105514991Y-69637709D01*
X105387846Y-69533364D01*
X105242787Y-69455828D01*
X105085389Y-69408082D01*
X104962719Y-69396000D01*
X104962718Y-69396000D01*
X104921700Y-69391960D01*
X104881303Y-69395939D01*
X104752008Y-69238392D01*
X104539287Y-69063817D01*
X104344987Y-68959962D01*
X104411342Y-68933059D01*
X104641129Y-68782006D01*
X104837032Y-68589026D01*
X104991522Y-68361535D01*
X105098662Y-68108276D01*
X105113620Y-68034070D01*
X105104341Y-68017702D01*
X108511903Y-68017702D01*
X108583486Y-68261671D01*
X108838996Y-68382571D01*
X109113184Y-68451300D01*
X109395512Y-68465217D01*
X109675130Y-68423787D01*
X109941292Y-68328603D01*
X110066514Y-68261671D01*
X110138097Y-68017702D01*
X109325000Y-67204605D01*
X108511903Y-68017702D01*
X105104341Y-68017702D01*
X104991120Y-67818000D01*
X101473400Y-67818000D01*
X101473400Y-67838000D01*
X101219400Y-67838000D01*
X101219400Y-67818000D01*
X101199400Y-67818000D01*
X101199400Y-67564000D01*
X101219400Y-67564000D01*
X101219400Y-66294000D01*
X101473400Y-66294000D01*
X101473400Y-67564000D01*
X104991120Y-67564000D01*
X105113620Y-67347930D01*
X105098662Y-67273724D01*
X104991522Y-67020465D01*
X104837032Y-66792974D01*
X104641129Y-66599994D01*
X104411342Y-66448941D01*
X104156501Y-66345619D01*
X103886400Y-66294000D01*
X101473400Y-66294000D01*
X101219400Y-66294000D01*
X100210567Y-66294000D01*
X100210103Y-66185000D01*
X108305393Y-66185000D01*
X108332296Y-66211903D01*
X108332296Y-66211903D01*
G37*
X108332296Y-66211903D02*
X108088329Y-66283486D01*
X107967429Y-66538996D01*
X107898700Y-66813184D01*
X107884783Y-67095512D01*
X107926213Y-67375130D01*
X108021397Y-67641292D01*
X108088329Y-67766514D01*
X108332298Y-67838097D01*
X109145395Y-67025000D01*
X109131253Y-67010858D01*
X109310858Y-66831253D01*
X109325000Y-66845395D01*
X109339143Y-66831253D01*
X109518748Y-67010858D01*
X109504605Y-67025000D01*
X110317702Y-67838097D01*
X110561671Y-67766514D01*
X110575324Y-67737659D01*
X110710363Y-67939759D01*
X110790000Y-68019396D01*
X110790000Y-68043871D01*
X110784994Y-68094700D01*
X110790000Y-68145528D01*
X110790000Y-68145537D01*
X110804976Y-68297594D01*
X110864159Y-68492692D01*
X110960266Y-68672497D01*
X111089604Y-68830096D01*
X111129097Y-68862507D01*
X111177865Y-68911275D01*
X111047919Y-69017919D01*
X110874843Y-69228812D01*
X110746236Y-69469419D01*
X110667040Y-69730493D01*
X110640299Y-70002000D01*
X110667040Y-70273507D01*
X110746236Y-70534581D01*
X110874843Y-70775188D01*
X111047919Y-70986081D01*
X111258812Y-71159157D01*
X111347001Y-71206295D01*
X111347000Y-71337705D01*
X111258812Y-71384843D01*
X111047919Y-71557919D01*
X110874843Y-71768812D01*
X110746236Y-72009419D01*
X110667040Y-72270493D01*
X110640299Y-72542000D01*
X110667040Y-72813507D01*
X110746236Y-73074581D01*
X110874843Y-73315188D01*
X111047919Y-73526081D01*
X111258812Y-73699157D01*
X111469927Y-73812000D01*
X111258812Y-73924843D01*
X111047919Y-74097919D01*
X110874843Y-74308812D01*
X110746236Y-74549419D01*
X110667040Y-74810493D01*
X110640299Y-75082000D01*
X110667040Y-75353507D01*
X110680324Y-75397300D01*
X109121418Y-75397300D01*
X109080400Y-75393260D01*
X109039381Y-75397300D01*
X108916711Y-75409382D01*
X108759313Y-75457128D01*
X108614254Y-75534664D01*
X108524186Y-75608581D01*
X108487109Y-75639009D01*
X108460963Y-75670868D01*
X106977277Y-77154555D01*
X106885447Y-77062725D01*
X106707740Y-76943985D01*
X106510283Y-76862196D01*
X106300663Y-76820500D01*
X106086937Y-76820500D01*
X105877317Y-76862196D01*
X105679860Y-76943985D01*
X105572082Y-77016000D01*
X104881353Y-77016000D01*
X104752008Y-76858392D01*
X104539287Y-76683817D01*
X104346929Y-76581000D01*
X104539287Y-76478183D01*
X104752008Y-76303608D01*
X104926583Y-76090887D01*
X105056304Y-75848195D01*
X105136186Y-75584860D01*
X105163159Y-75311000D01*
X105136186Y-75037140D01*
X105056304Y-74773805D01*
X104926583Y-74531113D01*
X104752008Y-74318392D01*
X104539287Y-74143817D01*
X104346929Y-74041000D01*
X104539287Y-73938183D01*
X104752008Y-73763608D01*
X104881353Y-73606000D01*
X105432533Y-73606000D01*
X105643500Y-73816967D01*
X105643500Y-73827963D01*
X105685196Y-74037583D01*
X105766985Y-74235040D01*
X105885725Y-74412747D01*
X106036853Y-74563875D01*
X106214560Y-74682615D01*
X106412017Y-74764404D01*
X106621637Y-74806100D01*
X106835363Y-74806100D01*
X107044983Y-74764404D01*
X107242440Y-74682615D01*
X107420147Y-74563875D01*
X107571275Y-74412747D01*
X107690015Y-74235040D01*
X107771804Y-74037583D01*
X107813500Y-73827963D01*
X107813500Y-73614237D01*
X107771804Y-73404617D01*
X107690015Y-73207160D01*
X107571275Y-73029453D01*
X107420147Y-72878325D01*
X107242440Y-72759585D01*
X107044983Y-72677796D01*
X106835363Y-72636100D01*
X106824367Y-72636100D01*
X106401850Y-72213582D01*
X106440640Y-72197515D01*
X106618347Y-72078775D01*
X106769475Y-71927647D01*
X106888215Y-71749940D01*
X106970004Y-71552483D01*
X107011700Y-71342863D01*
X107011700Y-71129137D01*
X106970004Y-70919517D01*
X106888215Y-70722060D01*
X106769475Y-70544353D01*
X106618347Y-70393225D01*
X106440640Y-70274485D01*
X106243183Y-70192696D01*
X106033563Y-70151000D01*
X106022568Y-70151000D01*
X105541145Y-69669578D01*
X105514991Y-69637709D01*
X105387846Y-69533364D01*
X105242787Y-69455828D01*
X105085389Y-69408082D01*
X104962719Y-69396000D01*
X104962718Y-69396000D01*
X104921700Y-69391960D01*
X104881303Y-69395939D01*
X104752008Y-69238392D01*
X104539287Y-69063817D01*
X104344987Y-68959962D01*
X104411342Y-68933059D01*
X104641129Y-68782006D01*
X104837032Y-68589026D01*
X104991522Y-68361535D01*
X105098662Y-68108276D01*
X105113620Y-68034070D01*
X105104341Y-68017702D01*
X108511903Y-68017702D01*
X108583486Y-68261671D01*
X108838996Y-68382571D01*
X109113184Y-68451300D01*
X109395512Y-68465217D01*
X109675130Y-68423787D01*
X109941292Y-68328603D01*
X110066514Y-68261671D01*
X110138097Y-68017702D01*
X109325000Y-67204605D01*
X108511903Y-68017702D01*
X105104341Y-68017702D01*
X104991120Y-67818000D01*
X101473400Y-67818000D01*
X101473400Y-67838000D01*
X101219400Y-67838000D01*
X101219400Y-67818000D01*
X101199400Y-67818000D01*
X101199400Y-67564000D01*
X101219400Y-67564000D01*
X101219400Y-66294000D01*
X101473400Y-66294000D01*
X101473400Y-67564000D01*
X104991120Y-67564000D01*
X105113620Y-67347930D01*
X105098662Y-67273724D01*
X104991522Y-67020465D01*
X104837032Y-66792974D01*
X104641129Y-66599994D01*
X104411342Y-66448941D01*
X104156501Y-66345619D01*
X103886400Y-66294000D01*
X101473400Y-66294000D01*
X101219400Y-66294000D01*
X100210567Y-66294000D01*
X100210103Y-66185000D01*
X108305393Y-66185000D01*
X108332296Y-66211903D01*
G36*
X143163274Y-71857043D02*
G01*
X143138843Y-71886812D01*
X143010236Y-72127419D01*
X142931040Y-72388493D01*
X142904299Y-72660000D01*
X142929224Y-72913066D01*
X141801290Y-74041000D01*
X140908036Y-74041000D01*
X140759188Y-73918843D01*
X140671000Y-73871706D01*
X140671000Y-73740294D01*
X140759188Y-73693157D01*
X140970081Y-73520081D01*
X141143157Y-73309188D01*
X141271764Y-73068581D01*
X141350960Y-72807507D01*
X141377701Y-72536000D01*
X141350960Y-72264493D01*
X141271764Y-72003419D01*
X141143157Y-71762812D01*
X140970081Y-71551919D01*
X140759188Y-71378843D01*
X140671000Y-71331706D01*
X140671000Y-71200294D01*
X140759188Y-71153157D01*
X140970081Y-70980081D01*
X141143157Y-70769188D01*
X141271764Y-70528581D01*
X141350960Y-70267507D01*
X141370934Y-70064702D01*
X143163274Y-71857043D01*
X143163274Y-71857043D01*
G37*
X143163274Y-71857043D02*
X143138843Y-71886812D01*
X143010236Y-72127419D01*
X142931040Y-72388493D01*
X142904299Y-72660000D01*
X142929224Y-72913066D01*
X141801290Y-74041000D01*
X140908036Y-74041000D01*
X140759188Y-73918843D01*
X140671000Y-73871706D01*
X140671000Y-73740294D01*
X140759188Y-73693157D01*
X140970081Y-73520081D01*
X141143157Y-73309188D01*
X141271764Y-73068581D01*
X141350960Y-72807507D01*
X141377701Y-72536000D01*
X141350960Y-72264493D01*
X141271764Y-72003419D01*
X141143157Y-71762812D01*
X140970081Y-71551919D01*
X140759188Y-71378843D01*
X140671000Y-71331706D01*
X140671000Y-71200294D01*
X140759188Y-71153157D01*
X140970081Y-70980081D01*
X141143157Y-70769188D01*
X141271764Y-70528581D01*
X141350960Y-70267507D01*
X141370934Y-70064702D01*
X143163274Y-71857043D01*
M02*
