G04 #@! TF.GenerationSoftware,KiCad,Pcbnew,(5.1.2-1)-1*
G04 #@! TF.CreationDate,2019-05-25T08:59:50+02:00*
G04 #@! TF.ProjectId,IEC64,49454336-342e-46b6-9963-61645f706362,1.2*
G04 #@! TF.SameCoordinates,Original*
G04 #@! TF.FileFunction,Legend,Top*
G04 #@! TF.FilePolarity,Positive*
%FSLAX46Y46*%
G04 Gerber Fmt 4.6, Leading zero omitted, Abs format (unit mm)*
G04 Created by KiCad (PCBNEW (5.1.2-1)-1) date 2019-05-25 08:59:50*
%MOMM*%
%LPD*%
G04 APERTURE LIST*
%ADD10C,0.300000*%
%ADD11C,0.200000*%
%ADD12C,0.500000*%
%ADD13C,0.120000*%
%ADD14C,0.127000*%
%ADD15C,0.381000*%
%ADD16C,0.254000*%
%ADD17C,0.150000*%
%ADD18C,0.101600*%
G04 APERTURE END LIST*
D10*
X189614285Y-71078571D02*
X188757142Y-71078571D01*
X189185714Y-71078571D02*
X189185714Y-69578571D01*
X189042857Y-69792857D01*
X188900000Y-69935714D01*
X188757142Y-70007142D01*
X190185714Y-69721428D02*
X190257142Y-69650000D01*
X190400000Y-69578571D01*
X190757142Y-69578571D01*
X190900000Y-69650000D01*
X190971428Y-69721428D01*
X191042857Y-69864285D01*
X191042857Y-70007142D01*
X190971428Y-70221428D01*
X190114285Y-71078571D01*
X191042857Y-71078571D01*
X190328571Y-119128571D02*
X189471428Y-119128571D01*
X189900000Y-119128571D02*
X189900000Y-117628571D01*
X189757142Y-117842857D01*
X189614285Y-117985714D01*
X189471428Y-118057142D01*
X174028571Y-77402142D02*
X174028571Y-78259285D01*
X174028571Y-77830714D02*
X172528571Y-77830714D01*
X172742857Y-77973571D01*
X172885714Y-78116428D01*
X172957142Y-78259285D01*
X172671428Y-76830714D02*
X172600000Y-76759285D01*
X172528571Y-76616428D01*
X172528571Y-76259285D01*
X172600000Y-76116428D01*
X172671428Y-76045000D01*
X172814285Y-75973571D01*
X172957142Y-75973571D01*
X173171428Y-76045000D01*
X174028571Y-76902142D01*
X174028571Y-75973571D01*
X175221428Y-78259285D02*
X175150000Y-78187857D01*
X175078571Y-78045000D01*
X175078571Y-77687857D01*
X175150000Y-77545000D01*
X175221428Y-77473571D01*
X175364285Y-77402142D01*
X175507142Y-77402142D01*
X175721428Y-77473571D01*
X176578571Y-78330714D01*
X176578571Y-77402142D01*
X175578571Y-76116428D02*
X176578571Y-76116428D01*
X175007142Y-76473571D02*
X176078571Y-76830714D01*
X176078571Y-75902142D01*
X174028571Y-111764285D02*
X174028571Y-112621428D01*
X174028571Y-112192857D02*
X172528571Y-112192857D01*
X172742857Y-112335714D01*
X172885714Y-112478571D01*
X172957142Y-112621428D01*
X172528571Y-111264285D02*
X172528571Y-110335714D01*
X173100000Y-110835714D01*
X173100000Y-110621428D01*
X173171428Y-110478571D01*
X173242857Y-110407142D01*
X173385714Y-110335714D01*
X173742857Y-110335714D01*
X173885714Y-110407142D01*
X173957142Y-110478571D01*
X174028571Y-110621428D01*
X174028571Y-111050000D01*
X173957142Y-111192857D01*
X173885714Y-111264285D01*
X176578571Y-110335714D02*
X176578571Y-111192857D01*
X176578571Y-110764285D02*
X175078571Y-110764285D01*
X175292857Y-110907142D01*
X175435714Y-111050000D01*
X175507142Y-111192857D01*
D11*
X166700000Y-94400000D02*
X166700000Y-94500000D01*
D12*
X179943238Y-80043523D02*
X181943238Y-80043523D01*
X180990857Y-80995904D02*
X180990857Y-81662571D01*
X179943238Y-81948285D02*
X179943238Y-80995904D01*
X181943238Y-80995904D01*
X181943238Y-81948285D01*
X180990857Y-82805428D02*
X180990857Y-83472095D01*
X179943238Y-83757809D02*
X179943238Y-82805428D01*
X181943238Y-82805428D01*
X181943238Y-83757809D01*
X180990857Y-84614952D02*
X180990857Y-85281619D01*
X179943238Y-85567333D02*
X179943238Y-84614952D01*
X181943238Y-84614952D01*
X181943238Y-85567333D01*
X180705142Y-86424476D02*
X180705142Y-87948285D01*
X181276571Y-89757809D02*
X179943238Y-89757809D01*
X182038476Y-89281619D02*
X180609904Y-88805428D01*
X180609904Y-90043523D01*
X181086095Y-91091142D02*
X181181333Y-90900666D01*
X181276571Y-90805428D01*
X181467047Y-90710190D01*
X181562285Y-90710190D01*
X181752761Y-90805428D01*
X181848000Y-90900666D01*
X181943238Y-91091142D01*
X181943238Y-91472095D01*
X181848000Y-91662571D01*
X181752761Y-91757809D01*
X181562285Y-91853047D01*
X181467047Y-91853047D01*
X181276571Y-91757809D01*
X181181333Y-91662571D01*
X181086095Y-91472095D01*
X181086095Y-91091142D01*
X180990857Y-90900666D01*
X180895619Y-90805428D01*
X180705142Y-90710190D01*
X180324190Y-90710190D01*
X180133714Y-90805428D01*
X180038476Y-90900666D01*
X179943238Y-91091142D01*
X179943238Y-91472095D01*
X180038476Y-91662571D01*
X180133714Y-91757809D01*
X180324190Y-91853047D01*
X180705142Y-91853047D01*
X180895619Y-91757809D01*
X180990857Y-91662571D01*
X181086095Y-91472095D01*
X181086095Y-92995904D02*
X181181333Y-92805428D01*
X181276571Y-92710190D01*
X181467047Y-92614952D01*
X181562285Y-92614952D01*
X181752761Y-92710190D01*
X181848000Y-92805428D01*
X181943238Y-92995904D01*
X181943238Y-93376857D01*
X181848000Y-93567333D01*
X181752761Y-93662571D01*
X181562285Y-93757809D01*
X181467047Y-93757809D01*
X181276571Y-93662571D01*
X181181333Y-93567333D01*
X181086095Y-93376857D01*
X181086095Y-92995904D01*
X180990857Y-92805428D01*
X180895619Y-92710190D01*
X180705142Y-92614952D01*
X180324190Y-92614952D01*
X180133714Y-92710190D01*
X180038476Y-92805428D01*
X179943238Y-92995904D01*
X179943238Y-93376857D01*
X180038476Y-93567333D01*
X180133714Y-93662571D01*
X180324190Y-93757809D01*
X180705142Y-93757809D01*
X180895619Y-93662571D01*
X180990857Y-93567333D01*
X181086095Y-93376857D01*
X179943238Y-96138761D02*
X181943238Y-96138761D01*
X181276571Y-97091142D02*
X179943238Y-97091142D01*
X181086095Y-97091142D02*
X181181333Y-97186380D01*
X181276571Y-97376857D01*
X181276571Y-97662571D01*
X181181333Y-97853047D01*
X180990857Y-97948285D01*
X179943238Y-97948285D01*
X181276571Y-98614952D02*
X181276571Y-99376857D01*
X181943238Y-98900666D02*
X180228952Y-98900666D01*
X180038476Y-98995904D01*
X179943238Y-99186380D01*
X179943238Y-99376857D01*
X180038476Y-100805428D02*
X179943238Y-100614952D01*
X179943238Y-100234000D01*
X180038476Y-100043523D01*
X180228952Y-99948285D01*
X180990857Y-99948285D01*
X181181333Y-100043523D01*
X181276571Y-100234000D01*
X181276571Y-100614952D01*
X181181333Y-100805428D01*
X180990857Y-100900666D01*
X180800380Y-100900666D01*
X180609904Y-99948285D01*
X179943238Y-101757809D02*
X181276571Y-101757809D01*
X180895619Y-101757809D02*
X181086095Y-101853047D01*
X181181333Y-101948285D01*
X181276571Y-102138761D01*
X181276571Y-102329238D01*
X181276571Y-102710190D02*
X181276571Y-103472095D01*
X179943238Y-102995904D02*
X181657523Y-102995904D01*
X181848000Y-103091142D01*
X181943238Y-103281619D01*
X181943238Y-103472095D01*
X179943238Y-104995904D02*
X180990857Y-104995904D01*
X181181333Y-104900666D01*
X181276571Y-104710190D01*
X181276571Y-104329238D01*
X181181333Y-104138761D01*
X180038476Y-104995904D02*
X179943238Y-104805428D01*
X179943238Y-104329238D01*
X180038476Y-104138761D01*
X180228952Y-104043523D01*
X180419428Y-104043523D01*
X180609904Y-104138761D01*
X180705142Y-104329238D01*
X180705142Y-104805428D01*
X180800380Y-104995904D01*
X180038476Y-106805428D02*
X179943238Y-106614952D01*
X179943238Y-106234000D01*
X180038476Y-106043523D01*
X180133714Y-105948285D01*
X180324190Y-105853047D01*
X180895619Y-105853047D01*
X181086095Y-105948285D01*
X181181333Y-106043523D01*
X181276571Y-106234000D01*
X181276571Y-106614952D01*
X181181333Y-106805428D01*
X180038476Y-108424476D02*
X179943238Y-108234000D01*
X179943238Y-107853047D01*
X180038476Y-107662571D01*
X180228952Y-107567333D01*
X180990857Y-107567333D01*
X181181333Y-107662571D01*
X181276571Y-107853047D01*
X181276571Y-108234000D01*
X181181333Y-108424476D01*
X180990857Y-108519714D01*
X180800380Y-108519714D01*
X180609904Y-107567333D01*
D13*
X124645000Y-68470000D02*
X120605000Y-68470000D01*
X124645000Y-65630000D02*
X120605000Y-65630000D01*
X124645000Y-68470000D02*
X124645000Y-67845000D01*
X124645000Y-66255000D02*
X124645000Y-65630000D01*
X120605000Y-68470000D02*
X120605000Y-67845000D01*
X120605000Y-66255000D02*
X120605000Y-65630000D01*
X166645000Y-70920000D02*
X166645000Y-71545000D01*
X166645000Y-68705000D02*
X166645000Y-69330000D01*
X162605000Y-70920000D02*
X162605000Y-71545000D01*
X162605000Y-68705000D02*
X162605000Y-69330000D01*
X162605000Y-71545000D02*
X166645000Y-71545000D01*
X162605000Y-68705000D02*
X166645000Y-68705000D01*
X112570000Y-91545000D02*
X108530000Y-91545000D01*
X112570000Y-88705000D02*
X108530000Y-88705000D01*
X112570000Y-91545000D02*
X112570000Y-90920000D01*
X112570000Y-89330000D02*
X112570000Y-88705000D01*
X108530000Y-91545000D02*
X108530000Y-90920000D01*
X108530000Y-89330000D02*
X108530000Y-88705000D01*
X108555000Y-66230000D02*
X108555000Y-65605000D01*
X108555000Y-68445000D02*
X108555000Y-67820000D01*
X112595000Y-66230000D02*
X112595000Y-65605000D01*
X112595000Y-68445000D02*
X112595000Y-67820000D01*
X112595000Y-65605000D02*
X108555000Y-65605000D01*
X112595000Y-68445000D02*
X108555000Y-68445000D01*
D14*
X194716000Y-119405400D02*
X194716000Y-69115940D01*
X194716000Y-69115940D02*
X186588000Y-69115940D01*
X194716000Y-119405400D02*
X186588000Y-119405400D01*
X186588000Y-119405400D02*
X186588000Y-119659400D01*
X186588000Y-69115940D02*
X186588000Y-68859400D01*
D13*
X177225000Y-109661000D02*
X175895000Y-109661000D01*
X177225000Y-108331000D02*
X177225000Y-109661000D01*
X174625000Y-109661000D02*
X172025000Y-109661000D01*
X174625000Y-107061000D02*
X174625000Y-109661000D01*
X177225000Y-107061000D02*
X174625000Y-107061000D01*
X172025000Y-109661000D02*
X172025000Y-79061000D01*
X177225000Y-107061000D02*
X177225000Y-79061000D01*
X177225000Y-79061000D02*
X172025000Y-79061000D01*
X123402000Y-120638000D02*
X123402000Y-110738000D01*
X130782000Y-120638000D02*
X130782000Y-110738000D01*
X123402000Y-120638000D02*
X130782000Y-120638000D01*
X123402000Y-110738000D02*
X130782000Y-110738000D01*
X123162000Y-120878000D02*
X123162000Y-119494000D01*
X123162000Y-120878000D02*
X124545000Y-120878000D01*
X125187000Y-117718000D02*
X126457000Y-117718000D01*
X126457000Y-117718000D02*
X126457000Y-113658000D01*
X126457000Y-113658000D02*
X125187000Y-113658000D01*
X125187000Y-113658000D02*
X125187000Y-117718000D01*
X125307000Y-117718000D02*
X125307000Y-116364667D01*
X125427000Y-117718000D02*
X125427000Y-116364667D01*
X125547000Y-117718000D02*
X125547000Y-116364667D01*
X125667000Y-117718000D02*
X125667000Y-116364667D01*
X125787000Y-117718000D02*
X125787000Y-116364667D01*
X125907000Y-117718000D02*
X125907000Y-116364667D01*
X126027000Y-117718000D02*
X126027000Y-116364667D01*
X126147000Y-117718000D02*
X126147000Y-116364667D01*
X126267000Y-117718000D02*
X126267000Y-116364667D01*
X126387000Y-117718000D02*
X126387000Y-116364667D01*
X125187000Y-116364667D02*
X126457000Y-116364667D01*
X127727000Y-117718000D02*
X128997000Y-117718000D01*
X128997000Y-117718000D02*
X128997000Y-113658000D01*
X128997000Y-113658000D02*
X127727000Y-113658000D01*
X127727000Y-113658000D02*
X127727000Y-117718000D01*
X127847000Y-117718000D02*
X127847000Y-116364667D01*
X127967000Y-117718000D02*
X127967000Y-116364667D01*
X128087000Y-117718000D02*
X128087000Y-116364667D01*
X128207000Y-117718000D02*
X128207000Y-116364667D01*
X128327000Y-117718000D02*
X128327000Y-116364667D01*
X128447000Y-117718000D02*
X128447000Y-116364667D01*
X128567000Y-117718000D02*
X128567000Y-116364667D01*
X128687000Y-117718000D02*
X128687000Y-116364667D01*
X128807000Y-117718000D02*
X128807000Y-116364667D01*
X128927000Y-117718000D02*
X128927000Y-116364667D01*
X127727000Y-116364667D02*
X128997000Y-116364667D01*
X128482000Y-120638000D02*
X128482000Y-110738000D01*
X140942000Y-120638000D02*
X140942000Y-110738000D01*
X128482000Y-120638000D02*
X140942000Y-120638000D01*
X128482000Y-110738000D02*
X140942000Y-110738000D01*
X128242000Y-120878000D02*
X128242000Y-119494000D01*
X128242000Y-120878000D02*
X129625000Y-120878000D01*
X130267000Y-117718000D02*
X131537000Y-117718000D01*
X131537000Y-117718000D02*
X131537000Y-113658000D01*
X131537000Y-113658000D02*
X130267000Y-113658000D01*
X130267000Y-113658000D02*
X130267000Y-117718000D01*
X130387000Y-117718000D02*
X130387000Y-116364667D01*
X130507000Y-117718000D02*
X130507000Y-116364667D01*
X130627000Y-117718000D02*
X130627000Y-116364667D01*
X130747000Y-117718000D02*
X130747000Y-116364667D01*
X130867000Y-117718000D02*
X130867000Y-116364667D01*
X130987000Y-117718000D02*
X130987000Y-116364667D01*
X131107000Y-117718000D02*
X131107000Y-116364667D01*
X131227000Y-117718000D02*
X131227000Y-116364667D01*
X131347000Y-117718000D02*
X131347000Y-116364667D01*
X131467000Y-117718000D02*
X131467000Y-116364667D01*
X130267000Y-116364667D02*
X131537000Y-116364667D01*
X132807000Y-117718000D02*
X134077000Y-117718000D01*
X134077000Y-117718000D02*
X134077000Y-113658000D01*
X134077000Y-113658000D02*
X132807000Y-113658000D01*
X132807000Y-113658000D02*
X132807000Y-117718000D01*
X132927000Y-117718000D02*
X132927000Y-116364667D01*
X133047000Y-117718000D02*
X133047000Y-116364667D01*
X133167000Y-117718000D02*
X133167000Y-116364667D01*
X133287000Y-117718000D02*
X133287000Y-116364667D01*
X133407000Y-117718000D02*
X133407000Y-116364667D01*
X133527000Y-117718000D02*
X133527000Y-116364667D01*
X133647000Y-117718000D02*
X133647000Y-116364667D01*
X133767000Y-117718000D02*
X133767000Y-116364667D01*
X133887000Y-117718000D02*
X133887000Y-116364667D01*
X134007000Y-117718000D02*
X134007000Y-116364667D01*
X132807000Y-116364667D02*
X134077000Y-116364667D01*
X135347000Y-117718000D02*
X136617000Y-117718000D01*
X136617000Y-117718000D02*
X136617000Y-113658000D01*
X136617000Y-113658000D02*
X135347000Y-113658000D01*
X135347000Y-113658000D02*
X135347000Y-117718000D01*
X135467000Y-117718000D02*
X135467000Y-116364667D01*
X135587000Y-117718000D02*
X135587000Y-116364667D01*
X135707000Y-117718000D02*
X135707000Y-116364667D01*
X135827000Y-117718000D02*
X135827000Y-116364667D01*
X135947000Y-117718000D02*
X135947000Y-116364667D01*
X136067000Y-117718000D02*
X136067000Y-116364667D01*
X136187000Y-117718000D02*
X136187000Y-116364667D01*
X136307000Y-117718000D02*
X136307000Y-116364667D01*
X136427000Y-117718000D02*
X136427000Y-116364667D01*
X136547000Y-117718000D02*
X136547000Y-116364667D01*
X135347000Y-116364667D02*
X136617000Y-116364667D01*
X137887000Y-117718000D02*
X139157000Y-117718000D01*
X139157000Y-117718000D02*
X139157000Y-113658000D01*
X139157000Y-113658000D02*
X137887000Y-113658000D01*
X137887000Y-113658000D02*
X137887000Y-117718000D01*
X138007000Y-117718000D02*
X138007000Y-116364667D01*
X138127000Y-117718000D02*
X138127000Y-116364667D01*
X138247000Y-117718000D02*
X138247000Y-116364667D01*
X138367000Y-117718000D02*
X138367000Y-116364667D01*
X138487000Y-117718000D02*
X138487000Y-116364667D01*
X138607000Y-117718000D02*
X138607000Y-116364667D01*
X138727000Y-117718000D02*
X138727000Y-116364667D01*
X138847000Y-117718000D02*
X138847000Y-116364667D01*
X138967000Y-117718000D02*
X138967000Y-116364667D01*
X139087000Y-117718000D02*
X139087000Y-116364667D01*
X137887000Y-116364667D02*
X139157000Y-116364667D01*
D15*
X121302000Y-109664000D02*
X121302000Y-91884000D01*
X111142000Y-91884000D02*
X111142000Y-109664000D01*
X112920000Y-110680000D02*
X112920000Y-90868000D01*
X119524000Y-90868000D02*
X119524000Y-110680000D01*
D16*
X114952000Y-106616000D02*
X114952000Y-94932000D01*
X117492000Y-94932000D02*
X117492000Y-106616000D01*
X116222000Y-93154000D02*
G75*
G03X117492000Y-91884000I0J1270000D01*
G01*
X114952000Y-91884000D02*
G75*
G03X116222000Y-93154000I1270000J0D01*
G01*
D15*
X114952000Y-91884000D02*
X114952000Y-90868000D01*
X117492000Y-91884000D02*
X117492000Y-90868000D01*
D16*
X117492000Y-94932000D02*
X114952000Y-94932000D01*
X114952000Y-106616000D02*
X117492000Y-106616000D01*
D15*
X121302000Y-109664000D02*
X111142000Y-109664000D01*
X111142000Y-91884000D02*
X121302000Y-91884000D01*
X119524000Y-110680000D02*
X112920000Y-110680000D01*
X112920000Y-90868000D02*
X119524000Y-90868000D01*
X112890000Y-67716000D02*
X119494000Y-67716000D01*
X119494000Y-87528000D02*
X112890000Y-87528000D01*
X111112000Y-68732000D02*
X121272000Y-68732000D01*
X121272000Y-86512000D02*
X111112000Y-86512000D01*
D16*
X114922000Y-83464000D02*
X117462000Y-83464000D01*
X117462000Y-71780000D02*
X114922000Y-71780000D01*
D15*
X117462000Y-68732000D02*
X117462000Y-67716000D01*
X114922000Y-68732000D02*
X114922000Y-67716000D01*
D16*
X114922000Y-68732000D02*
G75*
G03X116192000Y-70002000I1270000J0D01*
G01*
X116192000Y-70002000D02*
G75*
G03X117462000Y-68732000I0J1270000D01*
G01*
X117462000Y-71780000D02*
X117462000Y-83464000D01*
X114922000Y-83464000D02*
X114922000Y-71780000D01*
D15*
X119494000Y-67716000D02*
X119494000Y-87528000D01*
X112890000Y-87528000D02*
X112890000Y-67716000D01*
X111112000Y-68732000D02*
X111112000Y-86512000D01*
X121272000Y-86512000D02*
X121272000Y-68732000D01*
D16*
X147186000Y-116602000D02*
X147186000Y-71898000D01*
X157346000Y-71898000D02*
X157346000Y-116602000D01*
D15*
X161156000Y-119650000D02*
X161156000Y-68850000D01*
X159378000Y-67834000D02*
X159378000Y-120666000D01*
X143376000Y-119650000D02*
X143376000Y-68850000D01*
X145154000Y-67834000D02*
X145154000Y-120666000D01*
X159378000Y-67834000D02*
X145154000Y-67834000D01*
X143376000Y-68850000D02*
X161156000Y-68850000D01*
X161156000Y-119650000D02*
X143376000Y-119650000D01*
X145154000Y-120666000D02*
X159378000Y-120666000D01*
D16*
X147186000Y-95520000D02*
X157346000Y-95520000D01*
X157346000Y-92980000D02*
X147186000Y-92980000D01*
X147186000Y-71898000D02*
X157346000Y-71898000D01*
X147186000Y-116602000D02*
X157346000Y-116602000D01*
D15*
X150996000Y-119650000D02*
X153536000Y-119650000D01*
D16*
X152266000Y-118380000D02*
G75*
G03X150996000Y-119650000I0J-1270000D01*
G01*
X153536000Y-119650000D02*
G75*
G03X152266000Y-118380000I-1270000J0D01*
G01*
D15*
X153536000Y-119650000D02*
X153536000Y-120666000D01*
X150996000Y-119650000D02*
X150996000Y-120666000D01*
X124904000Y-105302000D02*
X139128000Y-105302000D01*
X140906000Y-104286000D02*
X123126000Y-104286000D01*
X123126000Y-68726000D02*
X140906000Y-68726000D01*
X139128000Y-67710000D02*
X124904000Y-67710000D01*
D16*
X137096000Y-85236000D02*
X126936000Y-85236000D01*
X126936000Y-87776000D02*
X137096000Y-87776000D01*
X137096000Y-101238000D02*
X126936000Y-101238000D01*
X137096000Y-71774000D02*
X126936000Y-71774000D01*
D15*
X140906000Y-68726000D02*
X140906000Y-104286000D01*
X139128000Y-105302000D02*
X139128000Y-67710000D01*
X123126000Y-68726000D02*
X123126000Y-104286000D01*
X124904000Y-105302000D02*
X124904000Y-67710000D01*
D16*
X126936000Y-71774000D02*
X126936000Y-101238000D01*
X137096000Y-101238000D02*
X137096000Y-71774000D01*
D15*
X133286000Y-68726000D02*
X130746000Y-68726000D01*
D16*
X132016000Y-69996000D02*
G75*
G03X133286000Y-68726000I0J1270000D01*
G01*
X130746000Y-68726000D02*
G75*
G03X132016000Y-69996000I1270000J0D01*
G01*
D15*
X130746000Y-68726000D02*
X130746000Y-67710000D01*
X133286000Y-68726000D02*
X133286000Y-67710000D01*
D13*
X138600000Y-109858000D02*
X138600000Y-107058000D01*
X138600000Y-107058000D02*
X125560000Y-107058000D01*
X125560000Y-107058000D02*
X125560000Y-109858000D01*
X125560000Y-109858000D02*
X138600000Y-109858000D01*
X135890000Y-109858000D02*
X135890000Y-107058000D01*
X166000000Y-75410000D02*
X163200000Y-75410000D01*
X163200000Y-75410000D02*
X163200000Y-90990000D01*
X163200000Y-90990000D02*
X166000000Y-90990000D01*
X166000000Y-90990000D02*
X166000000Y-75410000D01*
X166000000Y-78120000D02*
X163200000Y-78120000D01*
X114332000Y-118340000D02*
X114332000Y-118010000D01*
X114332000Y-118010000D02*
X120872000Y-118010000D01*
X120872000Y-118010000D02*
X120872000Y-118340000D01*
X114332000Y-120420000D02*
X114332000Y-120750000D01*
X114332000Y-120750000D02*
X120872000Y-120750000D01*
X120872000Y-120750000D02*
X120872000Y-120420000D01*
X120872000Y-117702000D02*
X120872000Y-117372000D01*
X114332000Y-117702000D02*
X120872000Y-117702000D01*
X114332000Y-117372000D02*
X114332000Y-117702000D01*
X120872000Y-114962000D02*
X120872000Y-115292000D01*
X114332000Y-114962000D02*
X120872000Y-114962000D01*
X114332000Y-115292000D02*
X114332000Y-114962000D01*
D17*
X125883333Y-66982142D02*
X125835714Y-67029761D01*
X125692857Y-67077380D01*
X125597619Y-67077380D01*
X125454761Y-67029761D01*
X125359523Y-66934523D01*
X125311904Y-66839285D01*
X125264285Y-66648809D01*
X125264285Y-66505952D01*
X125311904Y-66315476D01*
X125359523Y-66220238D01*
X125454761Y-66125000D01*
X125597619Y-66077380D01*
X125692857Y-66077380D01*
X125835714Y-66125000D01*
X125883333Y-66172619D01*
X126835714Y-67077380D02*
X126264285Y-67077380D01*
X126550000Y-67077380D02*
X126550000Y-66077380D01*
X126454761Y-66220238D01*
X126359523Y-66315476D01*
X126264285Y-66363095D01*
X122702380Y-72497619D02*
X122702380Y-73069047D01*
X122702380Y-72783333D02*
X121702380Y-72783333D01*
X121845238Y-72878571D01*
X121940476Y-72973809D01*
X121988095Y-73069047D01*
X121702380Y-71878571D02*
X121702380Y-71783333D01*
X121750000Y-71688095D01*
X121797619Y-71640476D01*
X121892857Y-71592857D01*
X122083333Y-71545238D01*
X122321428Y-71545238D01*
X122511904Y-71592857D01*
X122607142Y-71640476D01*
X122654761Y-71688095D01*
X122702380Y-71783333D01*
X122702380Y-71878571D01*
X122654761Y-71973809D01*
X122607142Y-72021428D01*
X122511904Y-72069047D01*
X122321428Y-72116666D01*
X122083333Y-72116666D01*
X121892857Y-72069047D01*
X121797619Y-72021428D01*
X121750000Y-71973809D01*
X121702380Y-71878571D01*
X121702380Y-70926190D02*
X121702380Y-70830952D01*
X121750000Y-70735714D01*
X121797619Y-70688095D01*
X121892857Y-70640476D01*
X122083333Y-70592857D01*
X122321428Y-70592857D01*
X122511904Y-70640476D01*
X122607142Y-70688095D01*
X122654761Y-70735714D01*
X122702380Y-70830952D01*
X122702380Y-70926190D01*
X122654761Y-71021428D01*
X122607142Y-71069047D01*
X122511904Y-71116666D01*
X122321428Y-71164285D01*
X122083333Y-71164285D01*
X121892857Y-71116666D01*
X121797619Y-71069047D01*
X121750000Y-71021428D01*
X121702380Y-70926190D01*
X122035714Y-70164285D02*
X122702380Y-70164285D01*
X122130952Y-70164285D02*
X122083333Y-70116666D01*
X122035714Y-70021428D01*
X122035714Y-69878571D01*
X122083333Y-69783333D01*
X122178571Y-69735714D01*
X122702380Y-69735714D01*
X122178571Y-68926190D02*
X122178571Y-69259523D01*
X122702380Y-69259523D02*
X121702380Y-69259523D01*
X121702380Y-68783333D01*
X164458333Y-67932142D02*
X164410714Y-67979761D01*
X164267857Y-68027380D01*
X164172619Y-68027380D01*
X164029761Y-67979761D01*
X163934523Y-67884523D01*
X163886904Y-67789285D01*
X163839285Y-67598809D01*
X163839285Y-67455952D01*
X163886904Y-67265476D01*
X163934523Y-67170238D01*
X164029761Y-67075000D01*
X164172619Y-67027380D01*
X164267857Y-67027380D01*
X164410714Y-67075000D01*
X164458333Y-67122619D01*
X164839285Y-67122619D02*
X164886904Y-67075000D01*
X164982142Y-67027380D01*
X165220238Y-67027380D01*
X165315476Y-67075000D01*
X165363095Y-67122619D01*
X165410714Y-67217857D01*
X165410714Y-67313095D01*
X165363095Y-67455952D01*
X164791666Y-68027380D01*
X165410714Y-68027380D01*
X163077380Y-73127380D02*
X162505952Y-73127380D01*
X162791666Y-73127380D02*
X162791666Y-72127380D01*
X162696428Y-72270238D01*
X162601190Y-72365476D01*
X162505952Y-72413095D01*
X163696428Y-72127380D02*
X163791666Y-72127380D01*
X163886904Y-72175000D01*
X163934523Y-72222619D01*
X163982142Y-72317857D01*
X164029761Y-72508333D01*
X164029761Y-72746428D01*
X163982142Y-72936904D01*
X163934523Y-73032142D01*
X163886904Y-73079761D01*
X163791666Y-73127380D01*
X163696428Y-73127380D01*
X163601190Y-73079761D01*
X163553571Y-73032142D01*
X163505952Y-72936904D01*
X163458333Y-72746428D01*
X163458333Y-72508333D01*
X163505952Y-72317857D01*
X163553571Y-72222619D01*
X163601190Y-72175000D01*
X163696428Y-72127380D01*
X164648809Y-72127380D02*
X164744047Y-72127380D01*
X164839285Y-72175000D01*
X164886904Y-72222619D01*
X164934523Y-72317857D01*
X164982142Y-72508333D01*
X164982142Y-72746428D01*
X164934523Y-72936904D01*
X164886904Y-73032142D01*
X164839285Y-73079761D01*
X164744047Y-73127380D01*
X164648809Y-73127380D01*
X164553571Y-73079761D01*
X164505952Y-73032142D01*
X164458333Y-72936904D01*
X164410714Y-72746428D01*
X164410714Y-72508333D01*
X164458333Y-72317857D01*
X164505952Y-72222619D01*
X164553571Y-72175000D01*
X164648809Y-72127380D01*
X165410714Y-72460714D02*
X165410714Y-73127380D01*
X165410714Y-72555952D02*
X165458333Y-72508333D01*
X165553571Y-72460714D01*
X165696428Y-72460714D01*
X165791666Y-72508333D01*
X165839285Y-72603571D01*
X165839285Y-73127380D01*
X166648809Y-72603571D02*
X166315476Y-72603571D01*
X166315476Y-73127380D02*
X166315476Y-72127380D01*
X166791666Y-72127380D01*
X110158333Y-88357142D02*
X110110714Y-88404761D01*
X109967857Y-88452380D01*
X109872619Y-88452380D01*
X109729761Y-88404761D01*
X109634523Y-88309523D01*
X109586904Y-88214285D01*
X109539285Y-88023809D01*
X109539285Y-87880952D01*
X109586904Y-87690476D01*
X109634523Y-87595238D01*
X109729761Y-87500000D01*
X109872619Y-87452380D01*
X109967857Y-87452380D01*
X110110714Y-87500000D01*
X110158333Y-87547619D01*
X110491666Y-87452380D02*
X111110714Y-87452380D01*
X110777380Y-87833333D01*
X110920238Y-87833333D01*
X111015476Y-87880952D01*
X111063095Y-87928571D01*
X111110714Y-88023809D01*
X111110714Y-88261904D01*
X111063095Y-88357142D01*
X111015476Y-88404761D01*
X110920238Y-88452380D01*
X110634523Y-88452380D01*
X110539285Y-88404761D01*
X110491666Y-88357142D01*
X110327380Y-95572619D02*
X110327380Y-96144047D01*
X110327380Y-95858333D02*
X109327380Y-95858333D01*
X109470238Y-95953571D01*
X109565476Y-96048809D01*
X109613095Y-96144047D01*
X109327380Y-94953571D02*
X109327380Y-94858333D01*
X109375000Y-94763095D01*
X109422619Y-94715476D01*
X109517857Y-94667857D01*
X109708333Y-94620238D01*
X109946428Y-94620238D01*
X110136904Y-94667857D01*
X110232142Y-94715476D01*
X110279761Y-94763095D01*
X110327380Y-94858333D01*
X110327380Y-94953571D01*
X110279761Y-95048809D01*
X110232142Y-95096428D01*
X110136904Y-95144047D01*
X109946428Y-95191666D01*
X109708333Y-95191666D01*
X109517857Y-95144047D01*
X109422619Y-95096428D01*
X109375000Y-95048809D01*
X109327380Y-94953571D01*
X109327380Y-94001190D02*
X109327380Y-93905952D01*
X109375000Y-93810714D01*
X109422619Y-93763095D01*
X109517857Y-93715476D01*
X109708333Y-93667857D01*
X109946428Y-93667857D01*
X110136904Y-93715476D01*
X110232142Y-93763095D01*
X110279761Y-93810714D01*
X110327380Y-93905952D01*
X110327380Y-94001190D01*
X110279761Y-94096428D01*
X110232142Y-94144047D01*
X110136904Y-94191666D01*
X109946428Y-94239285D01*
X109708333Y-94239285D01*
X109517857Y-94191666D01*
X109422619Y-94144047D01*
X109375000Y-94096428D01*
X109327380Y-94001190D01*
X109660714Y-93239285D02*
X110327380Y-93239285D01*
X109755952Y-93239285D02*
X109708333Y-93191666D01*
X109660714Y-93096428D01*
X109660714Y-92953571D01*
X109708333Y-92858333D01*
X109803571Y-92810714D01*
X110327380Y-92810714D01*
X109803571Y-92001190D02*
X109803571Y-92334523D01*
X110327380Y-92334523D02*
X109327380Y-92334523D01*
X109327380Y-91858333D01*
X107137857Y-66858333D02*
X107090238Y-66810714D01*
X107042619Y-66667857D01*
X107042619Y-66572619D01*
X107090238Y-66429761D01*
X107185476Y-66334523D01*
X107280714Y-66286904D01*
X107471190Y-66239285D01*
X107614047Y-66239285D01*
X107804523Y-66286904D01*
X107899761Y-66334523D01*
X107995000Y-66429761D01*
X108042619Y-66572619D01*
X108042619Y-66667857D01*
X107995000Y-66810714D01*
X107947380Y-66858333D01*
X107709285Y-67715476D02*
X107042619Y-67715476D01*
X108090238Y-67477380D02*
X107375952Y-67239285D01*
X107375952Y-67858333D01*
X110252380Y-72647619D02*
X110252380Y-73219047D01*
X110252380Y-72933333D02*
X109252380Y-72933333D01*
X109395238Y-73028571D01*
X109490476Y-73123809D01*
X109538095Y-73219047D01*
X109252380Y-72028571D02*
X109252380Y-71933333D01*
X109300000Y-71838095D01*
X109347619Y-71790476D01*
X109442857Y-71742857D01*
X109633333Y-71695238D01*
X109871428Y-71695238D01*
X110061904Y-71742857D01*
X110157142Y-71790476D01*
X110204761Y-71838095D01*
X110252380Y-71933333D01*
X110252380Y-72028571D01*
X110204761Y-72123809D01*
X110157142Y-72171428D01*
X110061904Y-72219047D01*
X109871428Y-72266666D01*
X109633333Y-72266666D01*
X109442857Y-72219047D01*
X109347619Y-72171428D01*
X109300000Y-72123809D01*
X109252380Y-72028571D01*
X109252380Y-71076190D02*
X109252380Y-70980952D01*
X109300000Y-70885714D01*
X109347619Y-70838095D01*
X109442857Y-70790476D01*
X109633333Y-70742857D01*
X109871428Y-70742857D01*
X110061904Y-70790476D01*
X110157142Y-70838095D01*
X110204761Y-70885714D01*
X110252380Y-70980952D01*
X110252380Y-71076190D01*
X110204761Y-71171428D01*
X110157142Y-71219047D01*
X110061904Y-71266666D01*
X109871428Y-71314285D01*
X109633333Y-71314285D01*
X109442857Y-71266666D01*
X109347619Y-71219047D01*
X109300000Y-71171428D01*
X109252380Y-71076190D01*
X109585714Y-70314285D02*
X110252380Y-70314285D01*
X109680952Y-70314285D02*
X109633333Y-70266666D01*
X109585714Y-70171428D01*
X109585714Y-70028571D01*
X109633333Y-69933333D01*
X109728571Y-69885714D01*
X110252380Y-69885714D01*
X109728571Y-69076190D02*
X109728571Y-69409523D01*
X110252380Y-69409523D02*
X109252380Y-69409523D01*
X109252380Y-68933333D01*
D18*
X196119571Y-95351304D02*
X196180047Y-95411780D01*
X196240523Y-95593209D01*
X196240523Y-95714161D01*
X196180047Y-95895590D01*
X196059095Y-96016542D01*
X195938142Y-96077019D01*
X195696238Y-96137495D01*
X195514809Y-96137495D01*
X195272904Y-96077019D01*
X195151952Y-96016542D01*
X195031000Y-95895590D01*
X194970523Y-95714161D01*
X194970523Y-95593209D01*
X195031000Y-95411780D01*
X195091476Y-95351304D01*
X196240523Y-94807019D02*
X194970523Y-94807019D01*
X196240523Y-94081304D01*
X194970523Y-94081304D01*
X196240523Y-92811304D02*
X196240523Y-93537019D01*
X196240523Y-93174161D02*
X194970523Y-93174161D01*
X195151952Y-93295114D01*
X195272904Y-93416066D01*
X195333380Y-93537019D01*
D17*
X177897380Y-94636333D02*
X178611666Y-94636333D01*
X178754523Y-94683952D01*
X178849761Y-94779190D01*
X178897380Y-94922047D01*
X178897380Y-95017285D01*
X177992619Y-94207761D02*
X177945000Y-94160142D01*
X177897380Y-94064904D01*
X177897380Y-93826809D01*
X177945000Y-93731571D01*
X177992619Y-93683952D01*
X178087857Y-93636333D01*
X178183095Y-93636333D01*
X178325952Y-93683952D01*
X178897380Y-94255380D01*
X178897380Y-93636333D01*
X125808666Y-122070761D02*
X125951523Y-122118380D01*
X126189619Y-122118380D01*
X126284857Y-122070761D01*
X126332476Y-122023142D01*
X126380095Y-121927904D01*
X126380095Y-121832666D01*
X126332476Y-121737428D01*
X126284857Y-121689809D01*
X126189619Y-121642190D01*
X125999142Y-121594571D01*
X125903904Y-121546952D01*
X125856285Y-121499333D01*
X125808666Y-121404095D01*
X125808666Y-121308857D01*
X125856285Y-121213619D01*
X125903904Y-121166000D01*
X125999142Y-121118380D01*
X126237238Y-121118380D01*
X126380095Y-121166000D01*
X126713428Y-121118380D02*
X126951523Y-122118380D01*
X127142000Y-121404095D01*
X127332476Y-122118380D01*
X127570571Y-121118380D01*
X128475333Y-122118380D02*
X127903904Y-122118380D01*
X128189619Y-122118380D02*
X128189619Y-121118380D01*
X128094380Y-121261238D01*
X127999142Y-121356476D01*
X127903904Y-121404095D01*
X133308666Y-122070761D02*
X133451523Y-122118380D01*
X133689619Y-122118380D01*
X133784857Y-122070761D01*
X133832476Y-122023142D01*
X133880095Y-121927904D01*
X133880095Y-121832666D01*
X133832476Y-121737428D01*
X133784857Y-121689809D01*
X133689619Y-121642190D01*
X133499142Y-121594571D01*
X133403904Y-121546952D01*
X133356285Y-121499333D01*
X133308666Y-121404095D01*
X133308666Y-121308857D01*
X133356285Y-121213619D01*
X133403904Y-121166000D01*
X133499142Y-121118380D01*
X133737238Y-121118380D01*
X133880095Y-121166000D01*
X134213428Y-121118380D02*
X134451523Y-122118380D01*
X134642000Y-121404095D01*
X134832476Y-122118380D01*
X135070571Y-121118380D01*
X135403904Y-121213619D02*
X135451523Y-121166000D01*
X135546761Y-121118380D01*
X135784857Y-121118380D01*
X135880095Y-121166000D01*
X135927714Y-121213619D01*
X135975333Y-121308857D01*
X135975333Y-121404095D01*
X135927714Y-121546952D01*
X135356285Y-122118380D01*
X135975333Y-122118380D01*
X115558095Y-89368380D02*
X115558095Y-90177904D01*
X115605714Y-90273142D01*
X115653333Y-90320761D01*
X115748571Y-90368380D01*
X115939047Y-90368380D01*
X116034285Y-90320761D01*
X116081904Y-90273142D01*
X116129523Y-90177904D01*
X116129523Y-89368380D01*
X117129523Y-90368380D02*
X116558095Y-90368380D01*
X116843809Y-90368380D02*
X116843809Y-89368380D01*
X116748571Y-89511238D01*
X116653333Y-89606476D01*
X116558095Y-89654095D01*
X113677142Y-111212380D02*
X114343809Y-111212380D01*
X113915238Y-112212380D01*
X115153333Y-111545714D02*
X115153333Y-112212380D01*
X114915238Y-111164761D02*
X114677142Y-111879047D01*
X115296190Y-111879047D01*
X116153333Y-112212380D02*
X115677142Y-112212380D01*
X115677142Y-111212380D01*
X116439047Y-112164761D02*
X116581904Y-112212380D01*
X116820000Y-112212380D01*
X116915238Y-112164761D01*
X116962857Y-112117142D01*
X117010476Y-112021904D01*
X117010476Y-111926666D01*
X116962857Y-111831428D01*
X116915238Y-111783809D01*
X116820000Y-111736190D01*
X116629523Y-111688571D01*
X116534285Y-111640952D01*
X116486666Y-111593333D01*
X116439047Y-111498095D01*
X116439047Y-111402857D01*
X116486666Y-111307619D01*
X116534285Y-111260000D01*
X116629523Y-111212380D01*
X116867619Y-111212380D01*
X117010476Y-111260000D01*
X117629523Y-111212380D02*
X117724761Y-111212380D01*
X117820000Y-111260000D01*
X117867619Y-111307619D01*
X117915238Y-111402857D01*
X117962857Y-111593333D01*
X117962857Y-111831428D01*
X117915238Y-112021904D01*
X117867619Y-112117142D01*
X117820000Y-112164761D01*
X117724761Y-112212380D01*
X117629523Y-112212380D01*
X117534285Y-112164761D01*
X117486666Y-112117142D01*
X117439047Y-112021904D01*
X117391428Y-111831428D01*
X117391428Y-111593333D01*
X117439047Y-111402857D01*
X117486666Y-111307619D01*
X117534285Y-111260000D01*
X117629523Y-111212380D01*
X118581904Y-111212380D02*
X118677142Y-111212380D01*
X118772380Y-111260000D01*
X118820000Y-111307619D01*
X118867619Y-111402857D01*
X118915238Y-111593333D01*
X118915238Y-111831428D01*
X118867619Y-112021904D01*
X118820000Y-112117142D01*
X118772380Y-112164761D01*
X118677142Y-112212380D01*
X118581904Y-112212380D01*
X118486666Y-112164761D01*
X118439047Y-112117142D01*
X118391428Y-112021904D01*
X118343809Y-111831428D01*
X118343809Y-111593333D01*
X118391428Y-111402857D01*
X118439047Y-111307619D01*
X118486666Y-111260000D01*
X118581904Y-111212380D01*
X115430095Y-66394380D02*
X115430095Y-67203904D01*
X115477714Y-67299142D01*
X115525333Y-67346761D01*
X115620571Y-67394380D01*
X115811047Y-67394380D01*
X115906285Y-67346761D01*
X115953904Y-67299142D01*
X116001523Y-67203904D01*
X116001523Y-66394380D01*
X116430095Y-66489619D02*
X116477714Y-66442000D01*
X116572952Y-66394380D01*
X116811047Y-66394380D01*
X116906285Y-66442000D01*
X116953904Y-66489619D01*
X117001523Y-66584857D01*
X117001523Y-66680095D01*
X116953904Y-66822952D01*
X116382476Y-67394380D01*
X117001523Y-67394380D01*
X112144380Y-87944380D02*
X112715809Y-87944380D01*
X112430095Y-88944380D02*
X112430095Y-87944380D01*
X112953904Y-87944380D02*
X113620571Y-87944380D01*
X113192000Y-88944380D01*
X114430095Y-88277714D02*
X114430095Y-88944380D01*
X114192000Y-87896761D02*
X113953904Y-88611047D01*
X114572952Y-88611047D01*
X115430095Y-88944380D02*
X114953904Y-88944380D01*
X114953904Y-87944380D01*
X115715809Y-88896761D02*
X115858666Y-88944380D01*
X116096761Y-88944380D01*
X116192000Y-88896761D01*
X116239619Y-88849142D01*
X116287238Y-88753904D01*
X116287238Y-88658666D01*
X116239619Y-88563428D01*
X116192000Y-88515809D01*
X116096761Y-88468190D01*
X115906285Y-88420571D01*
X115811047Y-88372952D01*
X115763428Y-88325333D01*
X115715809Y-88230095D01*
X115715809Y-88134857D01*
X115763428Y-88039619D01*
X115811047Y-87992000D01*
X115906285Y-87944380D01*
X116144380Y-87944380D01*
X116287238Y-87992000D01*
X117239619Y-88944380D02*
X116668190Y-88944380D01*
X116953904Y-88944380D02*
X116953904Y-87944380D01*
X116858666Y-88087238D01*
X116763428Y-88182476D01*
X116668190Y-88230095D01*
X118192000Y-88944380D02*
X117620571Y-88944380D01*
X117906285Y-88944380D02*
X117906285Y-87944380D01*
X117811047Y-88087238D01*
X117715809Y-88182476D01*
X117620571Y-88230095D01*
X118953904Y-88420571D02*
X119096761Y-88468190D01*
X119144380Y-88515809D01*
X119192000Y-88611047D01*
X119192000Y-88753904D01*
X119144380Y-88849142D01*
X119096761Y-88896761D01*
X119001523Y-88944380D01*
X118620571Y-88944380D01*
X118620571Y-87944380D01*
X118953904Y-87944380D01*
X119049142Y-87992000D01*
X119096761Y-88039619D01*
X119144380Y-88134857D01*
X119144380Y-88230095D01*
X119096761Y-88325333D01*
X119049142Y-88372952D01*
X118953904Y-88420571D01*
X118620571Y-88420571D01*
X120144380Y-88944380D02*
X119572952Y-88944380D01*
X119858666Y-88944380D02*
X119858666Y-87944380D01*
X119763428Y-88087238D01*
X119668190Y-88182476D01*
X119572952Y-88230095D01*
X151504095Y-121452380D02*
X151504095Y-122261904D01*
X151551714Y-122357142D01*
X151599333Y-122404761D01*
X151694571Y-122452380D01*
X151885047Y-122452380D01*
X151980285Y-122404761D01*
X152027904Y-122357142D01*
X152075523Y-122261904D01*
X152075523Y-121452380D01*
X152456476Y-121452380D02*
X153075523Y-121452380D01*
X152742190Y-121833333D01*
X152885047Y-121833333D01*
X152980285Y-121880952D01*
X153027904Y-121928571D01*
X153075523Y-122023809D01*
X153075523Y-122261904D01*
X153027904Y-122357142D01*
X152980285Y-122404761D01*
X152885047Y-122452380D01*
X152599333Y-122452380D01*
X152504095Y-122404761D01*
X152456476Y-122357142D01*
X148907904Y-67254380D02*
X148907904Y-66254380D01*
X149241238Y-66968666D01*
X149574571Y-66254380D01*
X149574571Y-67254380D01*
X150622190Y-67159142D02*
X150574571Y-67206761D01*
X150431714Y-67254380D01*
X150336476Y-67254380D01*
X150193619Y-67206761D01*
X150098380Y-67111523D01*
X150050761Y-67016285D01*
X150003142Y-66825809D01*
X150003142Y-66682952D01*
X150050761Y-66492476D01*
X150098380Y-66397238D01*
X150193619Y-66302000D01*
X150336476Y-66254380D01*
X150431714Y-66254380D01*
X150574571Y-66302000D01*
X150622190Y-66349619D01*
X151479333Y-66254380D02*
X151288857Y-66254380D01*
X151193619Y-66302000D01*
X151146000Y-66349619D01*
X151050761Y-66492476D01*
X151003142Y-66682952D01*
X151003142Y-67063904D01*
X151050761Y-67159142D01*
X151098380Y-67206761D01*
X151193619Y-67254380D01*
X151384095Y-67254380D01*
X151479333Y-67206761D01*
X151526952Y-67159142D01*
X151574571Y-67063904D01*
X151574571Y-66825809D01*
X151526952Y-66730571D01*
X151479333Y-66682952D01*
X151384095Y-66635333D01*
X151193619Y-66635333D01*
X151098380Y-66682952D01*
X151050761Y-66730571D01*
X151003142Y-66825809D01*
X152146000Y-66682952D02*
X152050761Y-66635333D01*
X152003142Y-66587714D01*
X151955523Y-66492476D01*
X151955523Y-66444857D01*
X152003142Y-66349619D01*
X152050761Y-66302000D01*
X152146000Y-66254380D01*
X152336476Y-66254380D01*
X152431714Y-66302000D01*
X152479333Y-66349619D01*
X152526952Y-66444857D01*
X152526952Y-66492476D01*
X152479333Y-66587714D01*
X152431714Y-66635333D01*
X152336476Y-66682952D01*
X152146000Y-66682952D01*
X152050761Y-66730571D01*
X152003142Y-66778190D01*
X151955523Y-66873428D01*
X151955523Y-67063904D01*
X152003142Y-67159142D01*
X152050761Y-67206761D01*
X152146000Y-67254380D01*
X152336476Y-67254380D01*
X152431714Y-67206761D01*
X152479333Y-67159142D01*
X152526952Y-67063904D01*
X152526952Y-66873428D01*
X152479333Y-66778190D01*
X152431714Y-66730571D01*
X152336476Y-66682952D01*
X152907904Y-66349619D02*
X152955523Y-66302000D01*
X153050761Y-66254380D01*
X153288857Y-66254380D01*
X153384095Y-66302000D01*
X153431714Y-66349619D01*
X153479333Y-66444857D01*
X153479333Y-66540095D01*
X153431714Y-66682952D01*
X152860285Y-67254380D01*
X153479333Y-67254380D01*
X154431714Y-67254380D02*
X153860285Y-67254380D01*
X154146000Y-67254380D02*
X154146000Y-66254380D01*
X154050761Y-66397238D01*
X153955523Y-66492476D01*
X153860285Y-66540095D01*
X154860285Y-67254380D02*
X154860285Y-66254380D01*
X155241238Y-66254380D01*
X155336476Y-66302000D01*
X155384095Y-66349619D01*
X155431714Y-66444857D01*
X155431714Y-66587714D01*
X155384095Y-66682952D01*
X155336476Y-66730571D01*
X155241238Y-66778190D01*
X154860285Y-66778190D01*
X131274095Y-66318380D02*
X131274095Y-67127904D01*
X131321714Y-67223142D01*
X131369333Y-67270761D01*
X131464571Y-67318380D01*
X131655047Y-67318380D01*
X131750285Y-67270761D01*
X131797904Y-67223142D01*
X131845523Y-67127904D01*
X131845523Y-66318380D01*
X132750285Y-66651714D02*
X132750285Y-67318380D01*
X132512190Y-66270761D02*
X132274095Y-66985047D01*
X132893142Y-66985047D01*
X129389523Y-105719619D02*
X129437142Y-105672000D01*
X129532380Y-105624380D01*
X129770476Y-105624380D01*
X129865714Y-105672000D01*
X129913333Y-105719619D01*
X129960952Y-105814857D01*
X129960952Y-105910095D01*
X129913333Y-106052952D01*
X129341904Y-106624380D01*
X129960952Y-106624380D01*
X130294285Y-105624380D02*
X130960952Y-105624380D01*
X130532380Y-106624380D01*
X131913333Y-106529142D02*
X131865714Y-106576761D01*
X131722857Y-106624380D01*
X131627619Y-106624380D01*
X131484761Y-106576761D01*
X131389523Y-106481523D01*
X131341904Y-106386285D01*
X131294285Y-106195809D01*
X131294285Y-106052952D01*
X131341904Y-105862476D01*
X131389523Y-105767238D01*
X131484761Y-105672000D01*
X131627619Y-105624380D01*
X131722857Y-105624380D01*
X131865714Y-105672000D01*
X131913333Y-105719619D01*
X132865714Y-106624380D02*
X132294285Y-106624380D01*
X132580000Y-106624380D02*
X132580000Y-105624380D01*
X132484761Y-105767238D01*
X132389523Y-105862476D01*
X132294285Y-105910095D01*
X133246666Y-105719619D02*
X133294285Y-105672000D01*
X133389523Y-105624380D01*
X133627619Y-105624380D01*
X133722857Y-105672000D01*
X133770476Y-105719619D01*
X133818095Y-105814857D01*
X133818095Y-105910095D01*
X133770476Y-106052952D01*
X133199047Y-106624380D01*
X133818095Y-106624380D01*
X134389523Y-106052952D02*
X134294285Y-106005333D01*
X134246666Y-105957714D01*
X134199047Y-105862476D01*
X134199047Y-105814857D01*
X134246666Y-105719619D01*
X134294285Y-105672000D01*
X134389523Y-105624380D01*
X134580000Y-105624380D01*
X134675238Y-105672000D01*
X134722857Y-105719619D01*
X134770476Y-105814857D01*
X134770476Y-105862476D01*
X134722857Y-105957714D01*
X134675238Y-106005333D01*
X134580000Y-106052952D01*
X134389523Y-106052952D01*
X134294285Y-106100571D01*
X134246666Y-106148190D01*
X134199047Y-106243428D01*
X134199047Y-106433904D01*
X134246666Y-106529142D01*
X134294285Y-106576761D01*
X134389523Y-106624380D01*
X134580000Y-106624380D01*
X134675238Y-106576761D01*
X134722857Y-106529142D01*
X134770476Y-106433904D01*
X134770476Y-106243428D01*
X134722857Y-106148190D01*
X134675238Y-106100571D01*
X134580000Y-106052952D01*
X140152380Y-109148476D02*
X139676190Y-109481809D01*
X140152380Y-109719904D02*
X139152380Y-109719904D01*
X139152380Y-109338952D01*
X139200000Y-109243714D01*
X139247619Y-109196095D01*
X139342857Y-109148476D01*
X139485714Y-109148476D01*
X139580952Y-109196095D01*
X139628571Y-109243714D01*
X139676190Y-109338952D01*
X139676190Y-109719904D01*
X140152380Y-108719904D02*
X139152380Y-108719904D01*
X140152380Y-108148476D01*
X139152380Y-108148476D01*
X140152380Y-107148476D02*
X140152380Y-107719904D01*
X140152380Y-107434190D02*
X139152380Y-107434190D01*
X139295238Y-107529428D01*
X139390476Y-107624666D01*
X139438095Y-107719904D01*
X124912380Y-109053238D02*
X124912380Y-109624666D01*
X124912380Y-109338952D02*
X123912380Y-109338952D01*
X124055238Y-109434190D01*
X124150476Y-109529428D01*
X124198095Y-109624666D01*
X123912380Y-108434190D02*
X123912380Y-108338952D01*
X123960000Y-108243714D01*
X124007619Y-108196095D01*
X124102857Y-108148476D01*
X124293333Y-108100857D01*
X124531428Y-108100857D01*
X124721904Y-108148476D01*
X124817142Y-108196095D01*
X124864761Y-108243714D01*
X124912380Y-108338952D01*
X124912380Y-108434190D01*
X124864761Y-108529428D01*
X124817142Y-108577047D01*
X124721904Y-108624666D01*
X124531428Y-108672285D01*
X124293333Y-108672285D01*
X124102857Y-108624666D01*
X124007619Y-108577047D01*
X123960000Y-108529428D01*
X123912380Y-108434190D01*
X124912380Y-107672285D02*
X123912380Y-107672285D01*
X124531428Y-107577047D02*
X124912380Y-107291333D01*
X124245714Y-107291333D02*
X124626666Y-107672285D01*
X164163523Y-74762380D02*
X163830190Y-74286190D01*
X163592095Y-74762380D02*
X163592095Y-73762380D01*
X163973047Y-73762380D01*
X164068285Y-73810000D01*
X164115904Y-73857619D01*
X164163523Y-73952857D01*
X164163523Y-74095714D01*
X164115904Y-74190952D01*
X164068285Y-74238571D01*
X163973047Y-74286190D01*
X163592095Y-74286190D01*
X164592095Y-74762380D02*
X164592095Y-73762380D01*
X165163523Y-74762380D01*
X165163523Y-73762380D01*
X165592095Y-73857619D02*
X165639714Y-73810000D01*
X165734952Y-73762380D01*
X165973047Y-73762380D01*
X166068285Y-73810000D01*
X166115904Y-73857619D01*
X166163523Y-73952857D01*
X166163523Y-74048095D01*
X166115904Y-74190952D01*
X165544476Y-74762380D01*
X166163523Y-74762380D01*
X163750761Y-92796380D02*
X163179333Y-92796380D01*
X163465047Y-92796380D02*
X163465047Y-91796380D01*
X163369809Y-91939238D01*
X163274571Y-92034476D01*
X163179333Y-92082095D01*
X164369809Y-91796380D02*
X164465047Y-91796380D01*
X164560285Y-91844000D01*
X164607904Y-91891619D01*
X164655523Y-91986857D01*
X164703142Y-92177333D01*
X164703142Y-92415428D01*
X164655523Y-92605904D01*
X164607904Y-92701142D01*
X164560285Y-92748761D01*
X164465047Y-92796380D01*
X164369809Y-92796380D01*
X164274571Y-92748761D01*
X164226952Y-92701142D01*
X164179333Y-92605904D01*
X164131714Y-92415428D01*
X164131714Y-92177333D01*
X164179333Y-91986857D01*
X164226952Y-91891619D01*
X164274571Y-91844000D01*
X164369809Y-91796380D01*
X165131714Y-92796380D02*
X165131714Y-91796380D01*
X165226952Y-92415428D02*
X165512666Y-92796380D01*
X165512666Y-92129714D02*
X165131714Y-92510666D01*
X117435333Y-122118380D02*
X117102000Y-121642190D01*
X116863904Y-122118380D02*
X116863904Y-121118380D01*
X117244857Y-121118380D01*
X117340095Y-121166000D01*
X117387714Y-121213619D01*
X117435333Y-121308857D01*
X117435333Y-121451714D01*
X117387714Y-121546952D01*
X117340095Y-121594571D01*
X117244857Y-121642190D01*
X116863904Y-121642190D01*
X118387714Y-122118380D02*
X117816285Y-122118380D01*
X118102000Y-122118380D02*
X118102000Y-121118380D01*
X118006761Y-121261238D01*
X117911523Y-121356476D01*
X117816285Y-121404095D01*
X117482952Y-119832380D02*
X116911523Y-119832380D01*
X117197238Y-119832380D02*
X117197238Y-118832380D01*
X117102000Y-118975238D01*
X117006761Y-119070476D01*
X116911523Y-119118095D01*
X117911523Y-119832380D02*
X117911523Y-118832380D01*
X118006761Y-119451428D02*
X118292476Y-119832380D01*
X118292476Y-119165714D02*
X117911523Y-119546666D01*
X117435333Y-114414380D02*
X117102000Y-113938190D01*
X116863904Y-114414380D02*
X116863904Y-113414380D01*
X117244857Y-113414380D01*
X117340095Y-113462000D01*
X117387714Y-113509619D01*
X117435333Y-113604857D01*
X117435333Y-113747714D01*
X117387714Y-113842952D01*
X117340095Y-113890571D01*
X117244857Y-113938190D01*
X116863904Y-113938190D01*
X117816285Y-113509619D02*
X117863904Y-113462000D01*
X117959142Y-113414380D01*
X118197238Y-113414380D01*
X118292476Y-113462000D01*
X118340095Y-113509619D01*
X118387714Y-113604857D01*
X118387714Y-113700095D01*
X118340095Y-113842952D01*
X117768666Y-114414380D01*
X118387714Y-114414380D01*
X117482952Y-116784380D02*
X116911523Y-116784380D01*
X117197238Y-116784380D02*
X117197238Y-115784380D01*
X117102000Y-115927238D01*
X117006761Y-116022476D01*
X116911523Y-116070095D01*
X117911523Y-116784380D02*
X117911523Y-115784380D01*
X118006761Y-116403428D02*
X118292476Y-116784380D01*
X118292476Y-116117714D02*
X117911523Y-116498666D01*
M02*
