M48
; DRILL file {KiCad (5.1.2-1)-1} date Samstag, 25. Mai 2019 um 08:59:53
; FORMAT={-:-/ absolute / inch / decimal}
; #@! TF.CreationDate,2019-05-25T08:59:53+02:00
; #@! TF.GenerationSoftware,Kicad,Pcbnew,(5.1.2-1)-1
FMAT,2
INCH
T1C0.0197
T2C0.0276
T3C0.0315
T4C0.0394
T5C0.1575
%
G90
G05
T1
X4.1308Y-3.9234
X4.1404Y-4.208
X4.1558Y-4.09
X4.1703Y-2.8046
X4.1809Y-3.0671
X4.1988Y-4.3654
X4.2019Y-2.9024
X4.2185Y-3.4016
X4.248Y-2.9567
X4.249Y-4.4724
X4.2509Y-3.9517
X4.2919Y-3.9089
X4.3107Y-3.4652
X4.3474Y-4.5384
X4.355Y-3.3457
X4.4288Y-3.4652
X4.4682Y-3.7171
X4.5351Y-3.6957
X4.5351Y-3.6399
X4.5354Y-3.1868
X4.5387Y-3.0347
X4.5772Y-3.5228
X4.5803Y-3.1035
X4.5886Y-2.9567
X4.6319Y-4.0202
X4.6332Y-4.4645
X4.6377Y-2.8145
X4.6667Y-4.4228
X4.6781Y-4.6171
X4.715Y-3.4806
X4.7873Y-3.457
X5.0154Y-4.2126
X5.0223Y-4.143
X5.0279Y-3.3557
X5.0643Y-3.0946
X5.0653Y-3.2456
X5.074Y-3.1876
X5.2292Y-4.0545
X5.3315Y-3.6926
X5.5945Y-2.8386
X5.7713Y-4.174
X5.8278Y-3.7392
X5.8474Y-4.2943
X5.8484Y-4.4911
X5.9439Y-3.0335
X6.0827Y-3.5413
X6.4026Y-4.0463
X6.4596Y-4.1594
X6.4685Y-3.9301
X6.6555Y-4.064
X6.6555Y-4.3829
X7.0374Y-4.3947
X7.1094Y-4.2825
X7.2146Y-3.2815
X7.2215Y-3.9636
X7.2293Y-3.7106
X7.2293Y-3.8209
X7.2382Y-3.4685
X7.2402Y-3.5955
X7.249Y-3.0965
X7.2867Y-4.1887
X7.2972Y-4.6654
X7.4124Y-4.0341
T2
X4.1537Y-4.779
X5.9645Y-3.9541
T3
X5.1536Y-4.4046
X5.1536Y-4.7046
X5.2536Y-4.4046
X5.2536Y-4.7046
X5.3536Y-4.4046
X5.3536Y-4.7046
X5.4536Y-4.4046
X5.4536Y-4.7046
X4.8975Y-2.7557
X4.8975Y-2.8557
X4.8975Y-2.9557
X4.8975Y-3.0557
X4.8975Y-3.1557
X4.8975Y-3.2557
X4.8975Y-3.3557
X4.8975Y-3.4557
X4.8975Y-3.5557
X4.8975Y-3.6557
X4.8975Y-3.7557
X4.8975Y-3.8557
X4.8975Y-3.9557
X4.8975Y-4.0557
X5.4975Y-2.7557
X5.4975Y-2.8557
X5.4975Y-2.9557
X5.4975Y-3.0557
X5.4975Y-3.1557
X5.4975Y-3.2557
X5.4975Y-3.3557
X5.4975Y-3.4557
X5.4975Y-3.5557
X5.4975Y-3.6557
X5.4975Y-3.7557
X5.4975Y-3.8557
X5.4975Y-3.9557
X5.4975Y-4.0557
X6.4803Y-3.0256
X6.4803Y-3.1256
X6.4803Y-3.2256
X6.4803Y-3.3256
X6.4803Y-3.4256
X6.4803Y-3.5256
X5.0Y-4.27
X5.1Y-4.27
X5.2Y-4.27
X5.3Y-4.27
X5.4Y-4.27
X4.4245Y-2.756
X4.4245Y-2.856
X4.4245Y-2.956
X4.4245Y-3.056
X4.4245Y-3.156
X4.4245Y-3.256
X4.4245Y-3.356
X4.7245Y-2.756
X4.7245Y-2.856
X4.7245Y-2.956
X4.7245Y-3.056
X4.7245Y-3.156
X4.7245Y-3.256
X4.7245Y-3.356
X4.3041Y-2.6388
X4.4026Y-2.6388
X4.3031Y-3.5482
X4.4016Y-3.5482
X4.7785Y-2.6398
X4.877Y-2.6398
X4.48Y-4.58
X4.78Y-4.58
X4.4257Y-3.6675
X4.4257Y-3.7675
X4.4257Y-3.8675
X4.4257Y-3.9675
X4.4257Y-4.0675
X4.4257Y-4.1675
X4.4257Y-4.2675
X4.7257Y-3.6675
X4.7257Y-3.7675
X4.7257Y-3.8675
X4.7257Y-3.9675
X4.7257Y-4.0675
X4.7257Y-4.1675
X4.7257Y-4.2675
X4.9536Y-4.4046
X4.9536Y-4.7046
X5.0536Y-4.4046
X5.0536Y-4.7046
X6.4321Y-2.7608
X6.5305Y-2.7608
X5.6947Y-2.7606
X5.6947Y-2.8606
X5.6947Y-2.9606
X5.6947Y-3.0606
X5.6947Y-3.1606
X5.6947Y-3.2606
X5.6947Y-3.3606
X5.6947Y-3.4606
X5.6947Y-3.5606
X5.6947Y-3.6606
X5.6947Y-3.7606
X5.6947Y-3.8606
X5.6947Y-3.9606
X5.6947Y-4.0606
X5.6947Y-4.1606
X5.6947Y-4.2606
X5.6947Y-4.3606
X5.6947Y-4.4606
X5.6947Y-4.5606
X5.6947Y-4.6606
X6.2947Y-2.7606
X6.2947Y-2.8606
X6.2947Y-2.9606
X6.2947Y-3.0606
X6.2947Y-3.1606
X6.2947Y-3.2606
X6.2947Y-3.3606
X6.2947Y-3.4606
X6.2947Y-3.5606
X6.2947Y-3.6606
X6.2947Y-3.7606
X6.2947Y-3.8606
X6.2947Y-3.9606
X6.2947Y-4.0606
X6.2947Y-4.1606
X6.2947Y-4.2606
X6.2947Y-4.3606
X6.2947Y-4.4606
X6.2947Y-4.5606
X6.2947Y-4.6606
X4.48Y-4.7
X4.78Y-4.7
T4
X6.825Y-3.165
X6.825Y-3.265
X6.825Y-3.365
X6.825Y-3.465
X6.825Y-3.565
X6.825Y-3.665
X6.825Y-3.765
X6.825Y-3.865
X6.825Y-3.965
X6.825Y-4.065
X6.825Y-4.165
X6.825Y-4.265
X6.925Y-3.165
X6.925Y-3.265
X6.925Y-3.365
X6.925Y-3.465
X6.925Y-3.565
X6.925Y-3.665
X6.925Y-3.765
X6.925Y-3.865
X6.925Y-3.965
X6.925Y-4.065
X6.925Y-4.165
X6.925Y-4.265
T5
X6.875Y-4.65
X6.875Y-2.775
T0
M30
