G04 #@! TF.GenerationSoftware,KiCad,Pcbnew,(5.1.2-1)-1*
G04 #@! TF.CreationDate,2019-05-25T08:59:50+02:00*
G04 #@! TF.ProjectId,IEC64,49454336-342e-46b6-9963-61645f706362,1.2*
G04 #@! TF.SameCoordinates,Original*
G04 #@! TF.FileFunction,Soldermask,Bot*
G04 #@! TF.FilePolarity,Negative*
%FSLAX46Y46*%
G04 Gerber Fmt 4.6, Leading zero omitted, Abs format (unit mm)*
G04 Created by KiCad (PCBNEW (5.1.2-1)-1) date 2019-05-25 08:59:50*
%MOMM*%
%LPD*%
G04 APERTURE LIST*
%ADD10O,6.750000X1.924000*%
%ADD11C,2.000000*%
%ADD12R,8.655000X2.305000*%
%ADD13O,2.100000X2.100000*%
%ADD14R,2.100000X2.100000*%
%ADD15R,2.000000X2.000000*%
%ADD16O,2.000000X2.000000*%
%ADD17O,2.600000X1.900000*%
%ADD18C,8.400000*%
G04 APERTURE END LIST*
D10*
X101346400Y-77851000D03*
X101346400Y-75311000D03*
X101346400Y-70231000D03*
X101346400Y-113411000D03*
X101346400Y-72771000D03*
X101346400Y-118491000D03*
X101346400Y-93091000D03*
X101346400Y-90551000D03*
X101346400Y-80391000D03*
X101346400Y-100711000D03*
X101346400Y-103251000D03*
X101346400Y-95631000D03*
X101346400Y-82931000D03*
X101346400Y-108331000D03*
X101346400Y-67691000D03*
X101346400Y-88011000D03*
X101346400Y-110871000D03*
X101346400Y-98171000D03*
X101346400Y-115951000D03*
X101346400Y-105791000D03*
X101346400Y-85471000D03*
X101346400Y-121031000D03*
D11*
X123875000Y-67050000D03*
X121375000Y-67050000D03*
X165875000Y-70125000D03*
X163375000Y-70125000D03*
X111800000Y-90125000D03*
X109300000Y-90125000D03*
X109325000Y-67025000D03*
X111825000Y-67025000D03*
D12*
X189890000Y-116179600D03*
X189890000Y-112217200D03*
X189890000Y-108254800D03*
X189890000Y-104292400D03*
X189890000Y-100330000D03*
X189890000Y-96367600D03*
X189890000Y-92405200D03*
X189890000Y-88442800D03*
X189890000Y-84480400D03*
X189890000Y-80520540D03*
X189890000Y-76555600D03*
X189890000Y-72593200D03*
D13*
X173355000Y-80391000D03*
X175895000Y-80391000D03*
X173355000Y-82931000D03*
X175895000Y-82931000D03*
X173355000Y-85471000D03*
X175895000Y-85471000D03*
X173355000Y-88011000D03*
X175895000Y-88011000D03*
X173355000Y-90551000D03*
X175895000Y-90551000D03*
X173355000Y-93091000D03*
X175895000Y-93091000D03*
X173355000Y-95631000D03*
X175895000Y-95631000D03*
X173355000Y-98171000D03*
X175895000Y-98171000D03*
X173355000Y-100711000D03*
X175895000Y-100711000D03*
X173355000Y-103251000D03*
X175895000Y-103251000D03*
X173355000Y-105791000D03*
X175895000Y-105791000D03*
X173355000Y-108331000D03*
D14*
X175895000Y-108331000D03*
D15*
X125822000Y-119498000D03*
D16*
X128362000Y-111878000D03*
X128362000Y-119498000D03*
X125822000Y-111878000D03*
D15*
X130902000Y-119498000D03*
D16*
X138522000Y-111878000D03*
X133442000Y-119498000D03*
X135982000Y-111878000D03*
X135982000Y-119498000D03*
X133442000Y-111878000D03*
X138522000Y-119498000D03*
X130902000Y-111878000D03*
D17*
X112412000Y-93154000D03*
X112412000Y-95694000D03*
X112412000Y-98234000D03*
X112412000Y-100774000D03*
X112412000Y-103314000D03*
X112412000Y-105854000D03*
X112412000Y-108394000D03*
X120032000Y-108394000D03*
X120032000Y-105854000D03*
X120032000Y-103314000D03*
X120032000Y-100774000D03*
X120032000Y-98234000D03*
X120032000Y-95694000D03*
X120032000Y-93154000D03*
X120002000Y-70002000D03*
X120002000Y-72542000D03*
X120002000Y-75082000D03*
X120002000Y-77622000D03*
X120002000Y-80162000D03*
X120002000Y-82702000D03*
X120002000Y-85242000D03*
X112382000Y-85242000D03*
X112382000Y-82702000D03*
X112382000Y-80162000D03*
X112382000Y-77622000D03*
X112382000Y-75082000D03*
X112382000Y-72542000D03*
X112382000Y-70002000D03*
X159886000Y-118380000D03*
X159886000Y-115840000D03*
X159886000Y-113300000D03*
X159886000Y-110760000D03*
X159886000Y-108220000D03*
X159886000Y-105680000D03*
X159886000Y-103140000D03*
X159886000Y-100600000D03*
X159886000Y-98060000D03*
X159886000Y-95520000D03*
X159886000Y-92980000D03*
X159886000Y-90440000D03*
X159886000Y-87900000D03*
X159886000Y-85360000D03*
X159886000Y-82820000D03*
X159886000Y-80280000D03*
X159886000Y-77740000D03*
X159886000Y-75200000D03*
X159886000Y-72660000D03*
X159886000Y-70120000D03*
X144646000Y-70120000D03*
X144646000Y-72660000D03*
X144646000Y-75200000D03*
X144646000Y-77740000D03*
X144646000Y-80280000D03*
X144646000Y-82820000D03*
X144646000Y-85360000D03*
X144646000Y-87900000D03*
X144646000Y-90440000D03*
X144646000Y-92980000D03*
X144646000Y-95520000D03*
X144646000Y-98060000D03*
X144646000Y-100600000D03*
X144646000Y-103140000D03*
X144646000Y-105680000D03*
X144646000Y-108220000D03*
X144646000Y-110760000D03*
X144646000Y-113300000D03*
X144646000Y-115840000D03*
X144646000Y-118380000D03*
X124396000Y-69996000D03*
X124396000Y-72536000D03*
X124396000Y-75076000D03*
X124396000Y-77616000D03*
X124396000Y-80156000D03*
X124396000Y-82696000D03*
X124396000Y-85236000D03*
X124396000Y-87776000D03*
X124396000Y-90316000D03*
X124396000Y-92856000D03*
X124396000Y-95396000D03*
X124396000Y-97936000D03*
X124396000Y-100476000D03*
X124396000Y-103016000D03*
X139636000Y-103016000D03*
X139636000Y-100476000D03*
X139636000Y-97936000D03*
X139636000Y-95396000D03*
X139636000Y-92856000D03*
X139636000Y-90316000D03*
X139636000Y-87776000D03*
X139636000Y-85236000D03*
X139636000Y-82696000D03*
X139636000Y-80156000D03*
X139636000Y-77616000D03*
X139636000Y-75076000D03*
X139636000Y-72536000D03*
X139636000Y-69996000D03*
D18*
X174625000Y-70485000D03*
X174625000Y-118110000D03*
D15*
X137160000Y-108458000D03*
D16*
X134620000Y-108458000D03*
X132080000Y-108458000D03*
X129540000Y-108458000D03*
X127000000Y-108458000D03*
D15*
X164600000Y-76850000D03*
D16*
X164600000Y-79390000D03*
X164600000Y-81930000D03*
X164600000Y-84470000D03*
X164600000Y-87010000D03*
X164600000Y-89550000D03*
D11*
X113792000Y-119380000D03*
D16*
X121412000Y-119380000D03*
X121412000Y-116332000D03*
D11*
X113792000Y-116332000D03*
M02*
